<svg xmlns="http://www.w3.org/2000/svg" viewBox="0 0 429.97 272.31"><defs><style>.cls-1{fill:#fff;}</style></defs><title>behance</title><g id="Capa_2" data-name="Capa 2"><g id="Capa_2-2" data-name="Capa 2"><path class="cls-1" d="M173.53,121.74s40.68-3,40.68-50.74S180.92,0,138.75,0H0V266.65H138.75s84.71,2.68,84.71-78.7C223.46,188,227.15,121.74,173.53,121.74ZM61.14,47.4h77.62s18.86,0,18.86,27.74S146.52,106.9,134,106.9H61.14Zm74,171.87h-74V148h77.61s28.12-.36,28.12,36.63C166.87,215.46,146.31,219,135.18,219.27Z"/><rect class="cls-1" x="279.07" y="15.71" width="110.02" height="32.84"/><path class="cls-1" d="M336.43,67.85C233.89,67.85,234,170.29,234,170.29s-7,101.94,102.45,101.94c0,0,91.25,5.22,91.25-70.91H380.75S382.32,230,338,230c0,0-46.92,3.14-46.92-46.41H429.24S444.36,67.85,336.43,67.85ZM378.14,148H290.55s5.73-41.1,46.92-41.1S378.14,148,378.14,148Z"/></g></g></svg>