<svg xmlns="http://www.w3.org/2000/svg" viewBox="0 0 1327.04 398.62"><defs><style>.cls-1{fill:#606060;}</style></defs><title>br_1</title><g id="Capa_2" data-name="Capa 2"><g id="Capa_2-2" data-name="Capa 2"><g id="isologotipo"><g id="sitio"><path class="cls-1" d="M208.92,221.21a53.06,53.06,0,0,0,27.88,7.92c16,0,25.36-8.26,25.36-20.69,0-11.14-6.47-17.81-22.84-23.91-19.79-7.21-32-17.64-32-34.56,0-18.87,15.64-32.91,39.21-32.91,12.21,0,21.39,2.89,26.62,5.93l-4.33,12.78C265.05,133.44,257,130,246,130c-16.55,0-22.84,9.9-22.84,18.17,0,11.33,7.37,16.91,24.09,23.39,20.52,8.1,30.76,17.8,30.76,35.63,0,18.7-13.66,35.07-42.26,35.07-11.7,0-24.46-3.6-30.94-7.92Z"/><rect class="cls-1" x="292.21" y="119.04" width="15.83" height="121.24"/><polygon class="cls-1" points="351.21 132.35 314.34 132.35 314.34 119.04 404.1 119.04 404.1 132.35 367.04 132.35 367.04 240.28 351.21 240.28 351.21 132.35"/><rect class="cls-1" x="410.2" y="119.04" width="15.83" height="121.24"/><path class="cls-1" d="M493.32,242.27c-32.21,0-54.51-24.83-54.51-61.53,0-38.49,23.74-63.68,56.13-63.68,33.29,0,54.68,25.37,54.68,61.35,0,41.55-25.36,63.86-56.13,63.86ZM494,229.5c24.83,0,38.86-22.84,38.86-50.38,0-24.1-12.59-49.29-38.69-49.29s-39,24.29-39,50.57c0,25.54,14,49.1,38.68,49.1Z"/><path class="cls-1" d="M1120,221.21a53,53,0,0,0,27.88,7.92c16,0,25.36-8.26,25.36-20.69,0-11.14-6.46-17.81-22.85-23.91-19.78-7.21-32-17.64-32-34.56,0-18.87,15.64-32.91,39.22-32.91,12.22,0,21.4,2.89,26.62,5.93l-4.33,12.78c-3.77-2.33-11.87-5.76-22.84-5.76-16.55,0-22.84,9.9-22.84,18.17,0,11.33,7.37,16.91,24.09,23.39,20.52,8.1,30.78,17.8,30.78,35.63,0,18.7-13.68,35.07-42.27,35.07-11.71,0-24.47-3.6-30.95-7.92Z"/><path class="cls-1" d="M1209.43,242.27c-6.12,0-10.44-4.86-10.44-11.33s4.49-11.34,10.8-11.34,10.61,4.67,10.61,11.34c0,6.47-4.31,11.33-10.8,11.33Z"/><path class="cls-1" d="M1253,202.15l-12.58,38.15h-16.19L1265.36,119h18.9l41.37,121.26h-16.72l-13-38.15Zm39.76-12.24L1280.65,155c-2.5-7.93-4.3-15.11-6.11-22.12H1274c-1.6,7-3.58,14.56-5.93,21.93l-11.86,35.08Z"/><path class="cls-1" d="M595.66,221.21a53.15,53.15,0,0,0,27.89,7.92c16,0,25.36-8.26,25.36-20.69,0-11.14-6.46-17.81-22.84-23.91-19.79-7.21-32-17.64-32-34.56,0-18.87,15.65-32.91,39.22-32.91,12.22,0,21.41,2.89,26.63,5.93l-4.33,12.78c-3.77-2.33-11.87-5.76-22.84-5.76-16.55,0-22.86,9.9-22.86,18.17,0,11.33,7.38,16.91,24.11,23.39,20.5,8.1,30.77,17.8,30.77,35.63,0,18.7-13.68,35.07-42.28,35.07-11.69,0-24.46-3.6-30.94-7.92Z"/><path class="cls-1" d="M698.75,202.15,686.16,240.3H670L711.14,119H730l41.4,121.26H754.7l-13-38.15Zm39.75-12.24L726.44,155c-2.51-7.93-4.31-15.11-6.11-22.12h-.54c-1.61,7-3.6,14.56-5.94,21.93L702,189.91Z"/><polygon class="cls-1" points="781.67 119.04 797.5 119.04 797.5 227.14 849.31 227.14 849.31 240.28 781.67 240.28 781.67 119.04"/><path class="cls-1" d="M868.74,119v72c0,27,12,38.5,28.22,38.5,17.82,0,29.52-11.87,29.52-38.5V119h15.81v70.88c0,37.22-19.58,52.35-45.85,52.35-24.83,0-43.54-14-43.54-51.82V119Z"/><path class="cls-1" d="M962.1,120.65a229.7,229.7,0,0,1,33.45-2.51c22.48,0,38.48,5,49.11,14.93,11,9.9,17.27,24.13,17.27,43.72,0,19.79-6.3,36-17.46,47.13-11.5,11.33-30.22,17.44-53.78,17.44-11.33,0-20.5-.34-28.59-1.44Zm15.82,107.41c4,.71,9.72.71,15.83.71,33.45.19,51.61-18.7,51.61-51.45.2-28.95-16-46.76-49.1-46.76a89.53,89.53,0,0,0-18.34,1.61Z"/><path class="cls-1" d="M271.1,319V289.15H282c5,0,8.84,1.38,11.62,4.1s4.24,6.33,4.24,10.85a14.35,14.35,0,0,1-4.24,10.75Q289.36,319,282.38,319Zm2.35-1.91h8.45a13.32,13.32,0,0,0,9.66-3.66,12.77,12.77,0,0,0,3.76-9.56,11.74,11.74,0,0,0-4-9.29,14.06,14.06,0,0,0-9.7-3.51h-8.2Z"/><path class="cls-1" d="M303.58,319V289.15h8.16c3.09,0,5.45.67,7.11,2a6.76,6.76,0,0,1,2.51,5.61q0,5.43-5.75,7.39c.92.3,2.1,1.59,3.58,3.83l7.23,11h-2.73l-6.43-9.93a11.34,11.34,0,0,0-3.05-3.47,6.83,6.83,0,0,0-3.79-.91h-4.5V319Zm2.34-16.23H311q7.89,0,7.88-5.91a5.06,5.06,0,0,0-2-4.32,8.4,8.4,0,0,0-5-1.47h-5.86Z"/><path class="cls-1" d="M327.57,304.07a14.42,14.42,0,0,1,4.7-11.08,15.82,15.82,0,0,1,11-4.32,15.58,15.58,0,0,1,11.38,4.54,15.18,15.18,0,0,1-.05,21.78,15.49,15.49,0,0,1-11.21,4.51,16,16,0,0,1-11.09-4.33,14.37,14.37,0,0,1-4.74-11.1m2.51,0a12.31,12.31,0,0,0,4,9.53,13.4,13.4,0,0,0,9.3,3.69,13.26,13.26,0,0,0,9.35-3.69,13.39,13.39,0,0,0,0-19,13.63,13.63,0,0,0-18.73,0,12.44,12.44,0,0,0-3.95,9.49"/><path class="cls-1" d="M382,307.41v-1.94h8.51v11.44A24.77,24.77,0,0,1,380,319.5a16.59,16.59,0,0,1-11.66-4.28,14.47,14.47,0,0,1-4.63-11.15A14.65,14.65,0,0,1,368.23,293a16.15,16.15,0,0,1,11.5-4.32,20.36,20.36,0,0,1,4.6.59,30.79,30.79,0,0,1,5.54,1.95v2.62a21.56,21.56,0,0,0-10.57-3,13,13,0,0,0-9.39,3.6,12.79,12.79,0,0,0-3.73,9.64,12.6,12.6,0,0,0,3.93,9.68,14,14,0,0,0,9.85,3.59,18,18,0,0,0,8.26-1.87v-8.06Z"/><path class="cls-1" d="M395.89,289.15h2.33v16.53c0,3.68.93,6.54,2.77,8.6a9.57,9.57,0,0,0,7.4,3.06,9.4,9.4,0,0,0,7.34-3.08c1.88-2.08,2.81-4.94,2.81-8.58V289.15h2.34v16.6c0,4.43-1.18,7.84-3.57,10.21a12.37,12.37,0,0,1-9,3.54A12.15,12.15,0,0,1,399.4,316q-3.51-3.57-3.51-9.86Z"/><polygon class="cls-1" points="427.28 319.01 427.28 289.15 443.69 289.15 443.69 291.08 429.62 291.08 429.62 303.07 443.33 303.07 443.33 305.01 429.62 305.01 429.62 317.1 444.06 317.1 444.06 319.01 427.28 319.01"/><path class="cls-1" d="M448.75,319V289.15h8.18c3.07,0,5.45.67,7.09,2a6.77,6.77,0,0,1,2.52,5.61q0,5.43-5.75,7.39c.92.3,2.12,1.59,3.57,3.83l7.24,11h-2.72l-6.44-9.93a11.89,11.89,0,0,0-3-3.47,6.92,6.92,0,0,0-3.81-.91h-4.51V319Zm2.33-16.23h5.08q7.86,0,7.86-5.91a5,5,0,0,0-2-4.32,8.37,8.37,0,0,0-5-1.47h-5.87Z"/><rect class="cls-1" x="473.91" y="289.15" width="2.34" height="29.86"/><path class="cls-1" d="M479.79,319l13.73-30h1.27l13.73,30h-2.39l-4.75-10.28H486.92L482.2,319Zm8-12.21h12.73l-6.42-14Z"/><polygon class="cls-1" points="610 319.01 610 289.15 625.39 289.15 625.39 291.08 612.35 291.08 612.35 302.47 624.12 302.47 624.12 304.39 612.35 304.39 612.35 319.01 610 319.01"/><path class="cls-1" d="M626,319l13.73-30H641l13.7,30h-2.39l-4.74-10.28H633.12L628.41,319Zm8-12.21h12.74l-6.41-14Z"/><path class="cls-1" d="M658.58,319V289.15h8.18c3.07,0,5.44.67,7.1,2a6.77,6.77,0,0,1,2.52,5.61q0,5.43-5.76,7.39c.93.3,2.12,1.59,3.6,3.83l7.21,11h-2.71l-6.45-9.93a11.74,11.74,0,0,0-3-3.47,6.86,6.86,0,0,0-3.8-.91h-4.5V319Zm2.35-16.23H666q7.86,0,7.86-5.91a5.09,5.09,0,0,0-2-4.32,8.44,8.44,0,0,0-5-1.47h-5.86Z"/><polygon class="cls-1" points="683.71 289.15 686.05 289.15 697.45 302.99 708.84 289.15 711.18 289.15 711.18 319.01 708.84 319.01 708.84 292.39 697.45 306.43 686.05 292.39 686.05 319.01 683.71 319.01 683.71 289.15"/><path class="cls-1" d="M714.8,319l13.74-30h1.25l13.74,30h-2.4l-4.75-10.28H721.92L717.22,319Zm8-12.21h12.73l-6.41-14Z"/><path class="cls-1" d="M772.27,291.22v2.61a22.68,22.68,0,0,0-10.64-3,12.5,12.5,0,0,0-9.35,3.8,12.93,12.93,0,0,0-3.69,9.47,13.47,13.47,0,0,0,3.54,9.32q3.52,3.91,9.7,3.92a24.72,24.72,0,0,0,10.78-3v2.39a29.79,29.79,0,0,1-5.31,2,19.64,19.64,0,0,1-5.47.77,15.45,15.45,0,0,1-11.31-4.43,15.67,15.67,0,0,1,.1-22,15.34,15.34,0,0,1,11.13-4.44,26.26,26.26,0,0,1,10.52,2.55"/><rect class="cls-1" x="777.08" y="289.15" width="2.34" height="29.86"/><path class="cls-1" d="M783,319l13.73-30H798l13.73,30h-2.39l-4.75-10.28H790.09L785.39,319Zm8-12.21h12.74l-6.42-14Z"/><path class="cls-1" d="M925.9,291.22v2.61a22.68,22.68,0,0,0-10.63-3,12.48,12.48,0,0,0-9.35,3.8,12.9,12.9,0,0,0-3.7,9.47,13.43,13.43,0,0,0,3.55,9.32c2.34,2.61,5.59,3.92,9.68,3.92a24.87,24.87,0,0,0,10.8-3v2.39a30,30,0,0,1-5.33,2,19.59,19.59,0,0,1-5.47.77,15.49,15.49,0,0,1-11.31-4.43,14.84,14.84,0,0,1-4.44-11,14.69,14.69,0,0,1,4.56-11,15.31,15.31,0,0,1,11.11-4.44,26.3,26.3,0,0,1,10.53,2.55"/><path class="cls-1" d="M929.56,304.07A14.36,14.36,0,0,1,934.27,293a15.82,15.82,0,0,1,11-4.32,15.6,15.6,0,0,1,11.38,4.54,15.19,15.19,0,0,1,0,21.78,15.49,15.49,0,0,1-11.22,4.51,16,16,0,0,1-11.09-4.33,14.34,14.34,0,0,1-4.74-11.1m2.5,0a12.34,12.34,0,0,0,4,9.53,13.44,13.44,0,0,0,9.31,3.69,13.28,13.28,0,0,0,9.36-3.69,13.41,13.41,0,0,0,0-19,13.65,13.65,0,0,0-18.74,0,12.44,12.44,0,0,0-4,9.49"/><polygon class="cls-1" points="966.86 289.15 969.2 289.15 980.59 302.99 991.99 289.15 994.31 289.15 994.31 319.01 991.99 319.01 991.99 292.39 980.59 306.43 969.2 292.39 969.2 319.01 966.86 319.01 966.86 289.15"/><polygon class="cls-1" points="1001.29 319.01 1001.29 289.15 1017.69 289.15 1017.69 291.08 1003.63 291.08 1003.63 303.07 1017.34 303.07 1017.34 305.01 1003.63 305.01 1003.63 317.1 1018.06 317.1 1018.06 319.01 1001.29 319.01"/><path class="cls-1" d="M1022.77,319V289.15H1031c3.07,0,5.44.67,7.09,2a6.77,6.77,0,0,1,2.52,5.61q0,5.43-5.76,7.39c.92.3,2.12,1.59,3.58,3.83l7.24,11h-2.73l-6.44-9.93a12,12,0,0,0-3-3.47,6.92,6.92,0,0,0-3.81-.91h-4.51V319Zm2.33-16.23h5.06q7.89,0,7.88-5.91a5.06,5.06,0,0,0-2-4.32,8.43,8.43,0,0,0-5-1.47h-5.86Z"/><path class="cls-1" d="M1072.84,291.22v2.61a22.65,22.65,0,0,0-10.64-3,12.47,12.47,0,0,0-9.35,3.8,12.93,12.93,0,0,0-3.69,9.47,13.5,13.5,0,0,0,3.53,9.32,12.44,12.44,0,0,0,9.69,3.92,24.79,24.79,0,0,0,10.8-3v2.39a30,30,0,0,1-5.33,2,19.54,19.54,0,0,1-5.47.77,15.45,15.45,0,0,1-11.3-4.43,14.88,14.88,0,0,1-4.44-11,14.69,14.69,0,0,1,4.56-11,15.28,15.28,0,0,1,11.11-4.44,26.34,26.34,0,0,1,10.53,2.55"/><rect class="cls-1" x="1077.66" y="289.15" width="2.33" height="29.86"/><path class="cls-1" d="M1085.62,304.07a14.4,14.4,0,0,1,4.72-11.08,15.81,15.81,0,0,1,11-4.32,15.6,15.6,0,0,1,11.38,4.54,15.16,15.16,0,0,1,0,21.78,15.46,15.46,0,0,1-11.22,4.51,16,16,0,0,1-11.1-4.33,14.4,14.4,0,0,1-4.74-11.1m2.51,0a12.32,12.32,0,0,0,4,9.53,13.65,13.65,0,0,0,18.67,0,13.41,13.41,0,0,0,0-19,13.65,13.65,0,0,0-18.74,0,12.45,12.45,0,0,0-4,9.49"/><polygon class="cls-1" points="1135.26 319.01 1135.26 289.15 1151.68 289.15 1151.68 291.08 1137.61 291.08 1137.61 303.07 1151.32 303.07 1151.32 305.01 1137.61 305.01 1137.61 317.1 1152.05 317.1 1152.05 319.01 1135.26 319.01"/><polygon class="cls-1" points="1153.29 319.01 1166.85 303.74 1153.98 289.15 1156.96 289.15 1168.4 301.98 1179.83 289.15 1182.82 289.15 1169.96 303.74 1183.58 319.01 1180.5 319.01 1168.37 305.37 1156.27 319.01 1153.29 319.01"/><polygon class="cls-1" points="1183.53 289.15 1208.51 289.15 1208.51 291.08 1197.18 291.08 1197.18 319.01 1194.85 319.01 1194.85 291.08 1183.53 291.08 1183.53 289.15"/><polygon class="cls-1" points="1212.22 319.01 1212.22 289.15 1228.63 289.15 1228.63 291.08 1214.56 291.08 1214.56 303.07 1228.27 303.07 1228.27 305.01 1214.56 305.01 1214.56 317.1 1229 317.1 1229 319.01 1212.22 319.01"/><path class="cls-1" d="M1233.7,319V289.15h8.18c3.07,0,5.43.67,7.09,2a6.83,6.83,0,0,1,2.52,5.61q0,5.43-5.76,7.39c.93.3,2.12,1.59,3.59,3.83l7.23,11h-2.72l-6.44-9.93a11.75,11.75,0,0,0-3.05-3.47,6.85,6.85,0,0,0-3.79-.91H1236V319Zm2.34-16.23h5.07q7.86,0,7.86-5.91a5.08,5.08,0,0,0-2-4.32,8.46,8.46,0,0,0-5.06-1.47H1236Z"/><rect class="cls-1" x="1258.85" y="289.15" width="2.34" height="29.86"/><path class="cls-1" d="M1266.83,304.07a14.33,14.33,0,0,1,4.72-11.08,15.77,15.77,0,0,1,11-4.32,15.6,15.6,0,0,1,11.38,4.54,15.18,15.18,0,0,1,0,21.78,15.49,15.49,0,0,1-11.21,4.51,16,16,0,0,1-11.11-4.33,14.36,14.36,0,0,1-4.73-11.1m2.51,0a12.34,12.34,0,0,0,4,9.53,13.64,13.64,0,0,0,18.66,0,13.39,13.39,0,0,0,0-19,13.62,13.62,0,0,0-18.72,0,12.42,12.42,0,0,0-4,9.49"/><path class="cls-1" d="M1304.2,319V289.15h8.17c3.07,0,5.44.67,7.11,2a6.79,6.79,0,0,1,2.51,5.61c0,3.62-1.93,6.09-5.76,7.39.93.3,2.11,1.59,3.59,3.83l7.22,11h-2.72l-6.43-9.93a11.89,11.89,0,0,0-3.05-3.47,6.89,6.89,0,0,0-3.8-.91h-4.51V319Zm2.33-16.23h5.07q7.89,0,7.88-5.91a5.05,5.05,0,0,0-2-4.32,8.4,8.4,0,0,0-5-1.47h-5.86Z"/><path class="cls-1" d="M214.93,297.49l-7,10.42c-3,4.55-2.57,10.66,5.52,10,1.65-.15,26.85,0,26.85,0,10.55.89,9.32-5.93,6.65-9.37l-7.18-10.93Z"/><path class="cls-1" d="M236,267H218.51a.83.83,0,0,0-.81.56.84.84,0,0,0,.18.93,6.14,6.14,0,0,1,2.06,3.5,25.68,25.68,0,0,1,.15,4.24l.11,10.48-13.8,20.66,0,0c-1.81,3-2.16,6.06-1.2,8.44a6.24,6.24,0,0,0,6.38,3.69h.07l31.95,0c3.27,0,5.75-1.62,6.58-4.1s.1-5.6-2.3-8.65l0-.08-13.06-20-.25-10.5V276a25,25,0,0,1,.08-4.08,6.16,6.16,0,0,1,2-3.51A.87.87,0,0,0,236,267m-1.76,1.75a7.62,7.62,0,0,0-1.33,3,16.45,16.45,0,0,0-.13,3.52h-4a.88.88,0,0,0,.1,1.76h3.93l.18,6.68h-4.21a.86.86,0,0,0-.81.92.87.87,0,0,0,.91.83H233l0,1.62a.79.79,0,0,0,.14.47l3.12,4.78H232a.85.85,0,0,0-.82.9.87.87,0,0,0,.92.84h4.77a.91.91,0,0,0,.49-.13l3.44,5.26h-4.12a.89.89,0,0,0,.08,1.77h4.78a1.37,1.37,0,0,0,.37-.08l3.31,5.1H241.3a.87.87,0,1,0,.09,1.73h4.92l.07.09s0,0,0,.07c2.19,2.77,2.67,5.32,2.08,7.05s-2.22,2.93-4.94,2.94l-32,0h0c-2.48.15-4-.91-4.7-2.62s-.52-4.22,1.07-6.85l13.91-20.87a.86.86,0,0,0,.15-.49l-.1-10.75a23.12,23.12,0,0,0-.19-4.55,7.42,7.42,0,0,0-1.35-2.89Z"/><path class="cls-1" d="M240.49,297H214.37l-7.26,10.83c-3.37,5.63-1.09,11.11,4.47,10.8l32.09,0c6,0,8.18-5.58,3.54-11.41Z"/><path class="cls-1" d="M582.49,294.14a13.14,13.14,0,1,0-13.7-22.42l-17.24,10.55,2.8,1.7c7.27,4.43,10.09,11.92,11.16,17.39l.55,2.83Zm-2.09-3.42-11.61,7.11A29.68,29.68,0,0,0,559,282.39l11.83-7.25a9.16,9.16,0,0,1,4.75-1.33,9,9,0,0,1,7.79,4.36,9.13,9.13,0,0,1-3,12.55"/><path class="cls-1" d="M533.14,294.15l15.4-9.41.29.12a20,20,0,0,1,4.69,2.79l-14.83,9.06a1.16,1.16,0,0,0-.39,1.62,1.15,1.15,0,0,0,1,.57,1.34,1.34,0,0,0,.61-.15l14.89-9.08a1.46,1.46,0,0,0,.43-.53c5.44,5.32,7,12.56,7.37,16l.06.39-16.44,10a12.56,12.56,0,0,1-13.1-21.44"/><path class="cls-1" d="M874.64,280a18.4,18.4,0,0,0-1.31-1.71,26.88,26.88,0,0,0-20.72-9.72h-.15a26.88,26.88,0,0,0-20.57,9.72,18.5,18.5,0,0,0-1.32,1.71,26.94,26.94,0,0,0,0,31.1c.42.58.84,1.15,1.32,1.7a26.87,26.87,0,0,0,20.57,9.71h.15a26.91,26.91,0,0,0,20.72-9.72c.46-.55.89-1.12,1.31-1.7a26.94,26.94,0,0,0,0-31.1M844.72,272a25.28,25.28,0,0,0-6,10.08,25.19,25.19,0,0,1-5.09-2.54A24.8,24.8,0,0,1,844.72,272m-12.36,9.24a28.83,28.83,0,0,0,5.77,2.91,42.86,42.86,0,0,0-1.47,11.1h-8.82a24.75,24.75,0,0,1,4.52-14m-4.43,16.21h8.76a42,42,0,0,0,1.44,9.34,28.83,28.83,0,0,0-5.77,2.91,24.57,24.57,0,0,1-4.43-12.25m5.74,13.94a26.75,26.75,0,0,1,5.08-2.53,25.41,25.41,0,0,0,6,10.08,24.82,24.82,0,0,1-11.05-7.55m17.84,8.78c-4.55-.63-8.48-5.3-10.68-12a40.67,40.67,0,0,1,10.68-1.63Zm0-15.85a41.28,41.28,0,0,0-11.31,1.78,41.58,41.58,0,0,1-1.29-8.65h12.6Zm0-9.07H838.86a42.76,42.76,0,0,1,1.34-10.39,42.13,42.13,0,0,0,11.31,1.76Zm0-10.84a41.52,41.52,0,0,1-10.68-1.63c2.2-6.72,6.13-11.36,10.68-12Zm25.87,10.84h-9A42.19,42.19,0,0,0,867,284.22a29.19,29.19,0,0,0,5.89-3,24.75,24.75,0,0,1,4.52,14m-5.84-15.71a24.47,24.47,0,0,1-5.2,2.57A25.18,25.18,0,0,0,860.29,272a24.72,24.72,0,0,1,11.25,7.61m-17.83-8.75c4.51.71,8.37,5.36,10.56,12a40.59,40.59,0,0,1-10.56,1.61Zm0,15.83a41.7,41.7,0,0,0,11.18-1.72,40.71,40.71,0,0,1,1.32,10.35h-12.5Zm0,10.83h12.47a41.49,41.49,0,0,1-1.27,8.59,43.08,43.08,0,0,0-11.19-1.72v-6.87Zm0,22.7V306.57a40.47,40.47,0,0,1,10.58,1.6c-2.21,6.66-6.07,11.31-10.58,12m6.58-1.14a24.94,24.94,0,0,0,6.06-10.19,25.11,25.11,0,0,1,5.19,2.57A24.82,24.82,0,0,1,860.29,319m12.57-9.31a27.71,27.71,0,0,0-5.89-3,42.3,42.3,0,0,0,1.42-9.3h8.9a24.57,24.57,0,0,1-4.43,12.25"/><path class="cls-1" d="M852.61,322.91h-.15l0-.21,0-.21-.06.43A27.36,27.36,0,0,1,831.56,313c-.42-.52-.87-1.06-1.33-1.71a27.38,27.38,0,0,1,0-31.63c.45-.62.89-1.19,1.33-1.7a27.31,27.31,0,0,1,20.9-9.9h.1a27.32,27.32,0,0,1,21.11,9.9c.41.48.83,1,1.32,1.7h0a27.38,27.38,0,0,1,0,31.63c-.5.69-.91,1.22-1.32,1.71a27.31,27.31,0,0,1-21.06,9.88m-.12-.55v.12l0-.05Zm.07-.32.15,0a26.51,26.51,0,0,0,20.3-9.59c.39-.47.8-1,1.26-1.66a26.44,26.44,0,0,0,0-30.61,20.9,20.9,0,0,0-1.26-1.68,26.48,26.48,0,0,0-20.4-9.57h-.15a26.5,26.5,0,0,0-20.25,9.56c-.41.5-.84,1-1.27,1.68a26.44,26.44,0,0,0,0,30.61c.45.61.86,1.17,1.27,1.65A26.54,26.54,0,0,0,852.46,322v0l.1,0m-.62-1.35-.49-.07c-4.58-.63-8.71-5.21-11.05-12.28l-.14-.42.43-.14a41.08,41.08,0,0,1,10.81-1.65l.44,0Zm-10.57-12.21c2.17,6.25,5.75,10.37,9.7,11.2V307a41.65,41.65,0,0,0-9.7,1.48m11.92,12.2V306.11l.43,0a40.88,40.88,0,0,1,10.7,1.62l.43.15-.16.42c-2.31,7-6.39,11.59-10.9,12.3Zm.86-13.68v12.65c3.91-.88,7.43-5,9.58-11.18a40.32,40.32,0,0,0-9.58-1.47m4.46,13.05,1.39-1.32a24.86,24.86,0,0,0,5.93-10l.16-.43.42.15a26.26,26.26,0,0,1,5.28,2.62l.4.28-.31.37a25.35,25.35,0,0,1-11.45,7.75Zm8-10.64a27.1,27.1,0,0,1-4.72,8.58,24.45,24.45,0,0,0,9-6.48,27.6,27.6,0,0,0-4.29-2.1M846.41,320l-1.84-.63a25.08,25.08,0,0,1-11.23-7.69l-.31-.37.4-.27a28.66,28.66,0,0,1,5.17-2.58l.42-.15.14.43a24.8,24.8,0,0,0,5.87,9.91Zm-12.09-8.5a24.43,24.43,0,0,0,8.82,6.4,27.24,27.24,0,0,1-4.65-8.45,24.89,24.89,0,0,0-4.17,2.05m-2.07-1.19L832,310a25,25,0,0,1-4.53-12.45l0-.47h9.64l0,.41a41.11,41.11,0,0,0,1.42,9.24l.1.39-.35.13a26.25,26.25,0,0,0-5.68,2.88Zm-3.85-12.4a23.88,23.88,0,0,0,4.09,11.22,28.41,28.41,0,0,1,5.11-2.59,43.23,43.23,0,0,1-1.32-8.63ZM873,310.32l-.36-.21a28.26,28.26,0,0,0-5.79-2.92l-.38-.15.11-.38a42.48,42.48,0,0,0,1.42-9.19v-.41h9.79l0,.47A24.76,24.76,0,0,1,873.2,310Zm-5.49-3.81a27.88,27.88,0,0,1,5.24,2.63,24,24,0,0,0,4.1-11.22h-8a41.61,41.61,0,0,1-1.32,8.59m-27.6.15-.1-.42a43,43,0,0,1-1.3-8.74v-.44h13.47v7.71h-.43a41.52,41.52,0,0,0-11.2,1.76Zm-.51-8.74a41,41,0,0,0,1.14,7.66,42.78,42.78,0,0,1,10.56-1.66v-6Zm25.85,8.71-.44-.14a42.22,42.22,0,0,0-11.07-1.71h-.42v-7.28h.42v-.43h12.91l0,.44a41.19,41.19,0,0,1-1.26,8.69Zm-11.05-2.71a43.13,43.13,0,0,1,10.43,1.62,41.51,41.51,0,0,0,1.12-7.62H854.17Zm23.64-8.21H868v-.43a43,43,0,0,0-1.46-10.95l-.11-.37.38-.15a28.2,28.2,0,0,0,5.79-2.89l.36-.24.23.35a24.94,24.94,0,0,1,4.61,14.24Zm-8.95-.87h8.07a24.11,24.11,0,0,0-4.21-13,28.68,28.68,0,0,1-5.23,2.61,43.37,43.37,0,0,1,1.37,10.36m-2.21.87H853.29v-9.47l.42,0a42.33,42.33,0,0,0,11.07-1.72l.42-.11.12.42a41.18,41.18,0,0,1,1.33,10.46Zm-12.5-.87h11.63a40.88,40.88,0,0,0-1.2-9.37,42.32,42.32,0,0,1-10.43,1.6Zm-2.21.87h-13.5v-.44a41.09,41.09,0,0,1,1.36-10.49l.1-.45.44.14a41.5,41.5,0,0,0,11.17,1.75l.43,0Zm-12.64-.87h11.77v-7.77a41.86,41.86,0,0,1-10.56-1.64,41,41,0,0,0-1.21,9.41m-2.21.87H827.4v-.44A25.08,25.08,0,0,1,832,281l.23-.35.37.24a28.7,28.7,0,0,0,5.68,2.85l.35.14-.1.39a42.3,42.3,0,0,0-1.46,11Zm-8.81-.87h8a44.08,44.08,0,0,1,1.37-10.4,28.71,28.71,0,0,1-5.11-2.57,24.16,24.16,0,0,0-4.21,13m23.66-9.95h-.44a41.25,41.25,0,0,1-10.8-1.66l-.43-.14.15-.41c2.33-7.06,6.45-11.65,11-12.29l.49-.06Zm-10.55-2.38a40.68,40.68,0,0,0,9.68,1.49V271.32c-4,.83-7.53,5-9.68,11.19m11.9,2.38V270.32l.5.08c4.52.7,8.59,5.3,10.9,12.3l.14.42-.41.13a42.38,42.38,0,0,1-10.7,1.63Zm.86-13.55V284a41.91,41.91,0,0,0,9.58-1.44c-2.15-6.21-5.67-10.34-9.58-11.22m11.93,11.37-.15-.42a24.86,24.86,0,0,0-5.93-10L858.62,271l1.81.6a25.09,25.09,0,0,1,11.45,7.74l.31.38-.4.28a27.79,27.79,0,0,1-5.3,2.6ZM861.89,273a27,27,0,0,1,4.7,8.58,24.61,24.61,0,0,0,4.31-2.09,24.64,24.64,0,0,0-9-6.49M839,282.67l-.41-.14a26.26,26.26,0,0,1-5.2-2.58l-.4-.28.31-.37a25.19,25.19,0,0,1,11.23-7.68l1.84-.62L845,272.35a24.32,24.32,0,0,0-5.85,9.91Zm-4.72-3.18a25,25,0,0,0,4.18,2.05,27.37,27.37,0,0,1,4.64-8.45,24.43,24.43,0,0,0-8.82,6.4"/></g><polygon class="cls-1" points="125.75 216.59 125.74 216.59 123.51 241.24 123.51 241.24 125.75 216.59"/><path class="cls-1" d="M30.55,182.94v-.21l-.15.11-.14.1Z"/><path class="cls-1" d="M31.11,182.94v-.56l-.56.35v.21Z"/><path class="cls-1" d="M31.69,182.94v-.87c-.13.08-.25.12-.37.2l-.21.11v.56Z"/><path class="cls-1" d="M32.26,182.94v-1.19s0,0,0,0l-.53.29v.87Z"/><path class="cls-1" d="M32.82,182.94v-1.51l-.15.08-.41.24v1.19Z"/><path class="cls-1" d="M33.4,182.94v-1.83l-.58.32v1.51Z"/><path class="cls-1" d="M34,182.94v-2.15a3.59,3.59,0,0,1-.38.21l-.18.11v1.83Z"/><path class="cls-1" d="M34,182.94h.57v-2.46l-.05,0c-.17.1-.34.2-.52.29Z"/><path class="cls-1" d="M35.1,182.94v-2.78l-.17.1c-.13.06-.27.15-.4.22v2.46Z"/><path class="cls-1" d="M35.67,182.94v-3.1l-.28.16-.29.16v2.78Z"/><path class="cls-1" d="M35.67,182.94h.57v-3.42l-.57.32Z"/><path class="cls-1" d="M36.24,182.94h.57v-3.73l-.07,0-.44.25-.06,0Z"/><path class="cls-1" d="M37.39,182.94v-4.06a1.06,1.06,0,0,0-.2.12,3.59,3.59,0,0,0-.38.21v3.73Z"/><path class="cls-1" d="M37.39,182.94H38V178.6l-.57.28Z"/><path class="cls-1" d="M38,182.94h.56v-4.6c-.13.07-.28.12-.42.19l-.14.07Z"/><path class="cls-1" d="M38.52,182.94h.58v-4.85l-.55.24h0Z"/><path class="cls-1" d="M39.1,182.94h.57v-5.1l-.22.1-.35.15Z"/><path class="cls-1" d="M39.67,182.94h.58v-5.36l-.58.26Z"/><path class="cls-1" d="M40.25,182.94h.57v-5.61l-.48.21-.09,0Z"/><path class="cls-1" d="M40.82,182.94h.56v-5.86l-.14.06-.42.19Z"/><path class="cls-1" d="M41.38,182.94H42v-6.11l-.57.25Z"/><path class="cls-1" d="M42,182.94h.57v-6.37l-.38.17a.82.82,0,0,1-.19.09Z"/><path class="cls-1" d="M42.52,182.94h.58v-6.62l-.58.25Z"/><path class="cls-1" d="M43.1,182.94h.54v-6.86l-.54.24Z"/><path class="cls-1" d="M43.64,182.94h.59v-7.12l-.59.26Z"/><path class="cls-1" d="M44.23,182.94h.57v-7.15h-.48a.24.24,0,0,0-.09,0Z"/><rect class="cls-1" x="44.8" y="175.79" width="0.56" height="7.15"/><rect class="cls-1" x="45.37" y="175.79" width="0.57" height="7.15"/><rect class="cls-1" x="45.94" y="175.79" width="0.57" height="7.15"/><rect class="cls-1" x="46.5" y="175.79" width="0.57" height="7.15"/><rect class="cls-1" x="47.08" y="175.79" width="0.57" height="7.15"/><rect class="cls-1" x="47.64" y="175.79" width="0.57" height="7.15"/><rect class="cls-1" x="48.21" y="175.79" width="0.56" height="7.15"/><rect class="cls-1" x="48.78" y="175.79" width="0.57" height="7.15"/><rect class="cls-1" x="49.35" y="175.79" width="0.57" height="7.15"/><rect class="cls-1" x="49.92" y="175.79" width="0.57" height="7.15"/><rect class="cls-1" x="50.49" y="175.79" width="0.58" height="7.15"/><rect class="cls-1" x="51.07" y="175.79" width="0.58" height="7.15"/><rect class="cls-1" x="51.64" y="175.79" width="0.57" height="7.15"/><rect class="cls-1" x="52.21" y="175.79" width="0.58" height="7.15"/><rect class="cls-1" x="52.79" y="175.79" width="0.56" height="7.15"/><rect class="cls-1" x="53.35" y="175.79" width="0.57" height="7.15"/><rect class="cls-1" x="53.92" y="175.79" width="0.58" height="7.15"/><rect class="cls-1" x="54.5" y="175.79" width="0.56" height="7.15"/><rect class="cls-1" x="55.06" y="175.79" width="0.57" height="7.15"/><rect class="cls-1" x="55.63" y="175.79" width="0.57" height="7.15"/><rect class="cls-1" x="56.2" y="175.79" width="0.57" height="7.15"/><rect class="cls-1" x="56.77" y="175.79" width="0.56" height="7.15"/><rect class="cls-1" x="57.34" y="175.79" width="0.57" height="7.15"/><rect class="cls-1" x="57.91" y="175.79" width="0.56" height="7.15"/><rect class="cls-1" x="58.47" y="175.79" width="0.58" height="7.15"/><rect class="cls-1" x="59.05" y="175.79" width="0.58" height="7.15"/><rect class="cls-1" x="59.63" y="175.79" width="0.57" height="7.15"/><rect class="cls-1" x="60.2" y="175.79" width="0.58" height="7.15"/><rect class="cls-1" x="60.77" y="175.79" width="0.57" height="7.15"/><rect class="cls-1" x="61.34" y="175.79" width="0.57" height="7.15"/><rect class="cls-1" x="61.92" y="175.79" width="0.58" height="7.15"/><rect class="cls-1" x="62.49" y="175.79" width="0.57" height="7.15"/><rect class="cls-1" x="63.06" y="175.79" width="0.56" height="7.15"/><rect class="cls-1" x="63.62" y="175.79" width="0.58" height="7.15"/><rect class="cls-1" x="64.2" y="175.79" width="0.56" height="7.15"/><rect class="cls-1" x="64.76" y="175.79" width="0.57" height="7.15"/><rect class="cls-1" x="65.33" y="175.79" width="0.57" height="7.15"/><rect class="cls-1" x="65.9" y="175.79" width="0.56" height="7.15"/><rect class="cls-1" x="66.47" y="175.79" width="0.56" height="7.15"/><rect class="cls-1" x="67.03" y="175.79" width="0.58" height="7.15"/><rect class="cls-1" x="67.61" y="175.79" width="0.57" height="7.15"/><rect class="cls-1" x="68.18" y="175.79" width="0.57" height="7.15"/><rect class="cls-1" x="68.75" y="175.79" width="0.58" height="7.15"/><rect class="cls-1" x="69.33" y="175.79" width="0.56" height="7.15"/><polygon class="cls-1" points="69.89 182.94 72.54 182.94 72.54 175.79 70.47 175.79 69.89 175.79 69.89 182.94"/><rect class="cls-1" x="72.54" y="175.79" width="2.06" height="7.15"/><rect class="cls-1" x="74.61" y="175.79" width="2.06" height="7.15"/><polygon class="cls-1" points="76.66 182.94 78.75 182.94 78.75 175.79 76.69 175.79 76.66 175.79 76.66 182.94"/><rect class="cls-1" x="78.75" y="175.79" width="2.06" height="7.15"/><rect class="cls-1" x="80.82" y="175.79" width="2.08" height="7.15"/><polygon class="cls-1" points="82.89 182.94 84.97 182.94 84.97 175.79 82.9 175.79 82.89 175.79 82.89 182.94"/><rect class="cls-1" x="84.97" y="175.79" width="2.08" height="7.15"/><rect class="cls-1" x="87.04" y="175.79" width="2.06" height="7.15"/><polygon class="cls-1" points="89.1 182.94 91.18 182.94 91.18 175.79 89.11 175.79 89.1 175.79 89.1 182.94"/><rect class="cls-1" x="91.18" y="175.79" width="2.06" height="7.15"/><polygon class="cls-1" points="93.23 182.94 95.32 182.94 95.32 175.79 93.27 175.79 93.23 175.79 93.23 182.94"/><rect class="cls-1" x="95.32" y="175.79" width="2.08" height="7.15"/><rect class="cls-1" x="97.39" y="175.79" width="2.06" height="7.15"/><polygon class="cls-1" points="99.45 182.94 101.54 182.94 101.54 175.79 99.48 175.79 99.45 175.79 99.45 182.94"/><rect class="cls-1" x="101.54" y="175.79" width="2.06" height="7.15"/><rect class="cls-1" x="103.6" y="175.79" width="2.07" height="7.15"/><rect class="cls-1" x="105.67" y="175.79" width="2.07" height="7.15"/><rect class="cls-1" x="107.74" y="175.79" width="2.07" height="7.15"/><polygon class="cls-1" points="111.88 182.94 111.88 175.79 109.83 175.79 109.82 175.79 109.82 182.94 111.88 182.94"/><polygon class="cls-1" points="111.88 175.79 111.88 182.94 113.95 182.94 113.95 175.79 113.95 175.79 111.88 175.79"/><path class="cls-1" d="M116,182.94v-6.11c-.7-.34-1.37-.72-2.08-1v7.15Z"/><path class="cls-1" d="M116,182.94h2.08v-5.07c-.69-.35-1.37-.71-2.08-1Z"/><path class="cls-1" d="M118.11,182.94h2.07v-4c-.68-.37-1.38-.68-2.07-1Z"/><path class="cls-1" d="M122.24,182.94v-2.85c-.69-.4-1.36-.81-2.06-1.19v4Z"/><path class="cls-1" d="M124.31,182.94v-1.56c-.69-.43-1.37-.88-2.07-1.29v2.85Z"/><path class="cls-1" d="M126.81,182.94c-.81-.54-1.67-1-2.5-1.56v1.56Z"/><path class="cls-1" d="M143.53,199.77h.15l-.15-.19Z"/><path class="cls-1" d="M143.53,199.77v-.19c-.22-.34-.48-.63-.7-1v1.15Z"/><path class="cls-1" d="M142.83,199.77v-1.15c-.23-.32-.48-.63-.71-1v2.1Z"/><path class="cls-1" d="M142.12,199.77v-2.1c-.23-.32-.47-.63-.7-.94v3Z"/><path class="cls-1" d="M141.42,199.77v-3c-.24-.31-.46-.64-.7-.95v4Z"/><path class="cls-1" d="M140.72,199.77v-4c-.24-.3-.45-.63-.69-.93v4.92Z"/><path class="cls-1" d="M140,199.77v-4.92c-.25-.3-.47-.65-.72-.95v5.87Z"/><path class="cls-1" d="M138.61,199.77h.7V193.9c-.22-.25-.48-.46-.7-.72Z"/><path class="cls-1" d="M137.91,199.77h.7v-6.59c-.18-.19-.39-.37-.58-.57h-.12Z"/><rect class="cls-1" x="137.21" y="192.61" width="0.7" height="7.16"/><rect class="cls-1" x="136.52" y="192.61" width="0.69" height="7.16"/><rect class="cls-1" x="135.8" y="192.61" width="0.72" height="7.16"/><rect class="cls-1" x="135.11" y="192.61" width="0.69" height="7.16"/><rect class="cls-1" x="134.4" y="192.61" width="0.71" height="7.16"/><rect class="cls-1" x="133.7" y="192.61" width="0.7" height="7.16"/><rect class="cls-1" x="132.99" y="192.61" width="0.71" height="7.16"/><rect class="cls-1" x="132.3" y="192.61" width="0.7" height="7.16"/><rect class="cls-1" x="131.59" y="192.61" width="0.71" height="7.16"/><rect class="cls-1" x="130.89" y="192.61" width="0.7" height="7.16"/><rect class="cls-1" x="130.2" y="192.61" width="0.69" height="7.16"/><rect class="cls-1" x="129.5" y="192.61" width="0.7" height="7.16"/><rect class="cls-1" x="128.78" y="192.61" width="0.71" height="7.16"/><rect class="cls-1" x="128.08" y="192.61" width="0.7" height="7.16"/><rect class="cls-1" x="127.4" y="192.61" width="0.69" height="7.16"/><polygon class="cls-1" points="127.39 199.77 127.39 199.77 127.39 192.61 127.39 192.61 126.7 192.61 126.7 199.77 127.39 199.77"/><rect class="cls-1" x="125.98" y="192.61" width="0.71" height="7.16"/><rect class="cls-1" x="125.28" y="192.61" width="0.71" height="7.16"/><rect class="cls-1" x="124.58" y="192.61" width="0.69" height="7.16"/><polygon class="cls-1" points="123.88 199.77 124.58 199.77 124.58 199.77 124.58 192.61 124.58 192.61 123.88 192.61 123.88 199.77"/><rect class="cls-1" x="123.18" y="192.61" width="0.7" height="7.16"/><rect class="cls-1" x="122.47" y="192.61" width="0.71" height="7.16"/><rect class="cls-1" x="121.76" y="192.61" width="0.71" height="7.16"/><rect class="cls-1" x="121.07" y="192.61" width="0.69" height="7.16"/><rect class="cls-1" x="120.38" y="192.61" width="0.69" height="7.16"/><rect class="cls-1" x="119.68" y="192.61" width="0.7" height="7.16"/><rect class="cls-1" x="118.96" y="192.61" width="0.72" height="7.16"/><rect class="cls-1" x="118.25" y="192.61" width="0.71" height="7.16"/><rect class="cls-1" x="117.57" y="192.61" width="0.68" height="7.16"/><rect class="cls-1" x="116.86" y="192.61" width="0.71" height="7.16"/><rect class="cls-1" x="116.16" y="192.61" width="0.7" height="7.16"/><rect class="cls-1" x="115.47" y="192.61" width="0.7" height="7.16"/><rect class="cls-1" x="114.76" y="192.61" width="0.71" height="7.16"/><rect class="cls-1" x="114.06" y="192.61" width="0.7" height="7.16"/><rect class="cls-1" x="113.35" y="192.61" width="0.71" height="7.16"/><rect class="cls-1" x="112.66" y="192.61" width="0.69" height="7.16"/><rect class="cls-1" x="111.95" y="192.61" width="0.71" height="7.16"/><rect class="cls-1" x="111.25" y="192.61" width="0.7" height="7.16"/><rect class="cls-1" x="110.55" y="192.61" width="0.69" height="7.16"/><rect class="cls-1" x="109.85" y="192.61" width="0.7" height="7.16"/><rect class="cls-1" x="109.15" y="192.61" width="0.71" height="7.16"/><rect class="cls-1" x="108.44" y="192.61" width="0.71" height="7.16"/><rect class="cls-1" x="107.74" y="192.61" width="0.7" height="7.16"/><rect class="cls-1" x="107.04" y="192.61" width="0.7" height="7.16"/><rect class="cls-1" x="106.34" y="192.61" width="0.7" height="7.16"/><rect class="cls-1" x="105.63" y="192.61" width="0.71" height="7.16"/><rect class="cls-1" x="104.93" y="192.61" width="0.7" height="7.16"/><rect class="cls-1" x="104.23" y="192.61" width="0.7" height="7.16"/><rect class="cls-1" x="103.53" y="192.61" width="0.7" height="7.16"/><rect class="cls-1" x="102.82" y="192.61" width="0.71" height="7.16"/><rect class="cls-1" x="102.13" y="192.61" width="0.69" height="7.16"/><rect class="cls-1" x="101.42" y="192.61" width="0.71" height="7.16"/><rect class="cls-1" x="100.74" y="192.61" width="0.68" height="7.16"/><polygon class="cls-1" points="100.02 199.77 100.72 199.77 100.74 199.77 100.74 192.61 100.72 192.61 100.02 192.61 100.02 199.77"/><rect class="cls-1" x="99.34" y="192.61" width="0.68" height="7.16"/><rect class="cls-1" x="98.61" y="192.61" width="0.72" height="7.16"/><rect class="cls-1" x="97.91" y="192.61" width="0.71" height="7.16"/><rect class="cls-1" x="97.22" y="192.61" width="0.69" height="7.16"/><polygon class="cls-1" points="96.52 199.77 97.22 199.77 97.22 199.77 97.22 192.61 97.22 192.61 96.52 192.61 96.52 199.77"/><rect class="cls-1" x="95.82" y="192.61" width="0.69" height="7.16"/><rect class="cls-1" x="95.12" y="192.61" width="0.71" height="7.16"/><rect class="cls-1" x="94.4" y="192.61" width="0.72" height="7.16"/><rect class="cls-1" x="93.71" y="192.61" width="0.69" height="7.16"/><polygon class="cls-1" points="93.01 199.77 93.7 199.77 93.71 199.77 93.71 192.61 93.7 192.61 93.01 192.61 93.01 199.77"/><rect class="cls-1" x="92.31" y="192.61" width="0.7" height="7.16"/><rect class="cls-1" x="91.6" y="192.61" width="0.71" height="7.16"/><polygon class="cls-1" points="88.36 199.77 90.89 199.77 91.6 199.77 91.6 192.61 90.89 192.61 88.36 192.61 88.36 199.77"/><rect class="cls-1" x="85.82" y="192.61" width="2.53" height="7.16"/><rect class="cls-1" x="83.25" y="192.61" width="2.57" height="7.16"/><rect class="cls-1" x="80.72" y="192.61" width="2.53" height="7.16"/><rect class="cls-1" x="78.16" y="192.61" width="2.56" height="7.16"/><rect class="cls-1" x="75.62" y="192.61" width="2.53" height="7.16"/><rect class="cls-1" x="73.09" y="192.61" width="2.53" height="7.16"/><polygon class="cls-1" points="70.53 199.77 73.06 199.77 73.09 199.77 73.09 192.61 73.06 192.61 70.53 192.61 70.53 199.77"/><rect class="cls-1" x="67.99" y="192.61" width="2.54" height="7.16"/><rect class="cls-1" x="65.43" y="192.61" width="2.56" height="7.16"/><rect class="cls-1" x="62.87" y="192.61" width="2.56" height="7.16"/><rect class="cls-1" x="60.33" y="192.61" width="2.54" height="7.16"/><rect class="cls-1" x="57.78" y="192.61" width="2.55" height="7.16"/><polygon class="cls-1" points="55.24 199.77 57.78 199.77 57.78 199.77 57.78 192.61 57.78 192.61 55.24 192.61 55.24 199.77"/><rect class="cls-1" x="52.69" y="192.61" width="2.55" height="7.16"/><rect class="cls-1" x="50.14" y="192.61" width="2.54" height="7.16"/><rect class="cls-1" x="47.59" y="192.61" width="2.55" height="7.16"/><rect class="cls-1" x="45.04" y="192.61" width="2.55" height="7.16"/><rect class="cls-1" x="42.51" y="192.61" width="2.53" height="7.16"/><polygon class="cls-1" points="39.97 199.77 42.49 199.77 42.51 199.77 42.51 192.61 42.49 192.61 39.97 192.61 39.97 199.77"/><rect class="cls-1" x="37.42" y="192.61" width="2.55" height="7.16"/><rect class="cls-1" x="34.87" y="192.61" width="2.55" height="7.16"/><rect class="cls-1" x="32.31" y="192.61" width="2.55" height="7.16"/><rect class="cls-1" x="29.77" y="192.61" width="2.55" height="7.16"/><rect class="cls-1" x="27.23" y="192.61" width="2.54" height="7.16"/><polygon class="cls-1" points="24.67 199.77 27.2 199.77 27.23 199.77 27.23 192.61 27.2 192.61 24.67 192.61 24.67 199.77"/><path class="cls-1" d="M22.13,199.77h2.54v-7.16H18.51s-.06.08-.1.12-.31.39-.47.58-.31.39-.47.57l-.48.59c-.17.19-.32.4-.48.59l-.46.57-.49.6c-.16.2-.33.38-.48.58s-.32.37-.46.57-.22.25-.32.39c.49.68,1,1.35,1.54,2Z"/><polygon class="cls-1" points="137.06 211.2 137.06 211.33 137.24 209.42 137.23 209.42 137.06 211.2"/><polygon class="cls-1" points="137.06 211.2 136.57 216.59 136.58 216.59 137.06 211.33 137.06 211.2"/><path class="cls-1" d="M135,209.48l.09-.06H135Z"/><path class="cls-1" d="M134.25,209.42V210c.24-.17.49-.3.72-.47v-.06Z"/><path class="cls-1" d="M133.56,209.42v1c.23-.16.47-.31.69-.47v-.53Z"/><path class="cls-1" d="M132.86,209.42v1.47c.24-.15.47-.31.7-.47v-1Z"/><path class="cls-1" d="M132.16,209.42v1.94c.24-.15.46-.32.7-.47v-1.47Z"/><path class="cls-1" d="M131.47,209.42v2.34a.83.83,0,0,1,.13-.07c.19-.12.38-.21.56-.33v-1.94Z"/><path class="cls-1" d="M131.47,211.76v-2.34h-.71v2.75C131,212,131.23,211.91,131.47,211.76Z"/><path class="cls-1" d="M130.76,212.17v-2.75h-.71v3.15Z"/><path class="cls-1" d="M130.05,212.57v-3.15h-.7V213C129.58,212.84,129.81,212.7,130.05,212.57Z"/><path class="cls-1" d="M129.35,213v-3.56h-.69v3.92Z"/><path class="cls-1" d="M128.66,213.34v-3.92H128v4.28C128.18,213.57,128.43,213.46,128.66,213.34Z"/><path class="cls-1" d="M128,213.7v-4.28h-.7V214Z"/><path class="cls-1" d="M126.55,214.38l.7-.34v-4.62h-.7Z"/><path class="cls-1" d="M125.91,214.7l-.07.77v.09l.08-.86.63-.32v-5h-.71v5.31Z"/><path class="cls-1" d="M125.84,214.73v-5.31h-.68V215Z"/><polygon class="cls-1" points="125.74 216.59 125.75 216.59 125.84 215.56 125.84 215.47 125.74 216.59"/><path class="cls-1" d="M125.16,215v-5.61h-.72v5.92C124.68,215.23,124.93,215.14,125.16,215Z"/><path class="cls-1" d="M124.44,215.34v-5.92h-.71v6.22Z"/><path class="cls-1" d="M123.05,215.92l.68-.28v-6.22h-.68Z"/><path class="cls-1" d="M123.05,215.92v-6.5h-.7v6.8Z"/><path class="cls-1" d="M122.35,216.22v-6.8h-.7v7.06C121.88,216.4,122.12,216.32,122.35,216.22Z"/><path class="cls-1" d="M120.92,216.59h.46a1.53,1.53,0,0,0,.27-.11v-7.06h-.73Z"/><rect class="cls-1" x="120.22" y="209.42" width="0.7" height="7.16"/><rect class="cls-1" x="119.53" y="209.42" width="0.69" height="7.16"/><polygon class="cls-1" points="119.53 216.59 119.53 216.59 119.53 209.42 119.53 209.42 118.84 209.42 118.84 216.59 119.53 216.59"/><rect class="cls-1" x="118.13" y="209.42" width="0.71" height="7.16"/><rect class="cls-1" x="117.42" y="209.42" width="0.71" height="7.16"/><rect class="cls-1" x="116.71" y="209.42" width="0.71" height="7.16"/><rect class="cls-1" x="116.03" y="209.42" width="0.68" height="7.16"/><rect class="cls-1" x="115.33" y="209.42" width="0.7" height="7.16"/><rect class="cls-1" x="114.63" y="209.42" width="0.69" height="7.16"/><rect class="cls-1" x="113.92" y="209.42" width="0.71" height="7.16"/><rect class="cls-1" x="113.21" y="209.42" width="0.71" height="7.16"/><rect class="cls-1" x="112.52" y="209.42" width="0.69" height="7.16"/><rect class="cls-1" x="111.81" y="209.42" width="0.7" height="7.16"/><rect class="cls-1" x="111.12" y="209.42" width="0.69" height="7.16"/><rect class="cls-1" x="110.4" y="209.42" width="0.71" height="7.16"/><rect class="cls-1" x="109.72" y="209.42" width="0.69" height="7.16"/><rect class="cls-1" x="109" y="209.42" width="0.71" height="7.16"/><rect class="cls-1" x="108.31" y="209.42" width="0.69" height="7.16"/><rect class="cls-1" x="107.6" y="209.42" width="0.71" height="7.16"/><rect class="cls-1" x="106.89" y="209.42" width="0.71" height="7.16"/><rect class="cls-1" x="106.19" y="209.42" width="0.7" height="7.16"/><rect class="cls-1" x="105.5" y="209.42" width="0.69" height="7.16"/><rect class="cls-1" x="104.8" y="209.42" width="0.7" height="7.16"/><rect class="cls-1" x="104.11" y="209.42" width="0.69" height="7.16"/><rect class="cls-1" x="103.39" y="209.42" width="0.72" height="7.16"/><rect class="cls-1" x="102.7" y="209.42" width="0.68" height="7.16"/><polygon class="cls-1" points="102.69 216.59 102.7 216.59 102.7 209.42 102.69 209.42 102 209.42 102 216.59 102.69 216.59"/><rect class="cls-1" x="101.28" y="209.42" width="0.71" height="7.16"/><rect class="cls-1" x="100.59" y="209.42" width="0.69" height="7.16"/><rect class="cls-1" x="99.88" y="209.42" width="0.71" height="7.16"/><rect class="cls-1" x="99.19" y="209.42" width="0.69" height="7.16"/><polygon class="cls-1" points="99.18 216.59 99.19 216.59 99.19 209.42 99.18 209.42 98.48 209.42 98.48 216.59 99.18 216.59"/><rect class="cls-1" x="97.78" y="209.42" width="0.7" height="7.16"/><rect class="cls-1" x="97.08" y="209.42" width="0.7" height="7.16"/><rect class="cls-1" x="96.37" y="209.42" width="0.71" height="7.16"/><rect class="cls-1" x="95.68" y="209.42" width="0.69" height="7.16"/><polygon class="cls-1" points="95.67 216.59 95.68 216.59 95.68 209.42 95.67 209.42 94.97 209.42 94.97 216.59 95.67 216.59"/><rect class="cls-1" x="94.29" y="209.42" width="0.68" height="7.16"/><rect class="cls-1" x="93.57" y="209.42" width="0.72" height="7.16"/><rect class="cls-1" x="92.86" y="209.42" width="0.71" height="7.16"/><rect class="cls-1" x="92.16" y="209.42" width="0.69" height="7.16"/><polygon class="cls-1" points="91.47 216.59 92.16 216.59 92.16 216.59 92.16 209.42 92.16 209.42 91.47 209.42 91.47 216.59"/><rect class="cls-1" x="90.77" y="209.42" width="0.69" height="7.16"/><rect class="cls-1" x="90.07" y="209.42" width="0.7" height="7.16"/><rect class="cls-1" x="89.35" y="209.42" width="0.72" height="7.16"/><rect class="cls-1" x="88.67" y="209.42" width="0.68" height="7.16"/><polygon class="cls-1" points="87.96 216.59 88.64 216.59 88.67 216.59 88.67 209.42 88.64 209.42 87.96 209.42 85.41 209.42 85.41 216.59 87.96 216.59"/><rect class="cls-1" x="82.86" y="209.42" width="2.56" height="7.16"/><rect class="cls-1" x="80.31" y="209.42" width="2.55" height="7.16"/><rect class="cls-1" x="77.75" y="209.42" width="2.55" height="7.16"/><rect class="cls-1" x="75.22" y="209.42" width="2.54" height="7.16"/><rect class="cls-1" x="72.68" y="209.42" width="2.54" height="7.16"/><rect class="cls-1" x="70.12" y="209.42" width="2.56" height="7.16"/><rect class="cls-1" x="67.59" y="209.42" width="2.53" height="7.16"/><rect class="cls-1" x="65.02" y="209.42" width="2.57" height="7.16"/><rect class="cls-1" x="62.49" y="209.42" width="2.53" height="7.16"/><rect class="cls-1" x="59.94" y="209.42" width="2.55" height="7.16"/><polygon class="cls-1" points="57.39 216.59 59.93 216.59 59.94 216.59 59.94 209.42 59.93 209.42 57.39 209.42 57.39 216.59"/><rect class="cls-1" x="54.85" y="209.42" width="2.54" height="7.16"/><rect class="cls-1" x="52.29" y="209.42" width="2.56" height="7.16"/><rect class="cls-1" x="49.75" y="209.42" width="2.55" height="7.16"/><rect class="cls-1" x="47.21" y="209.42" width="2.54" height="7.16"/><polygon class="cls-1" points="44.66 216.59 47.19 216.59 47.21 216.59 47.21 209.42 47.19 209.42 44.66 209.42 44.66 216.59"/><rect class="cls-1" x="42.1" y="209.42" width="2.55" height="7.16"/><path class="cls-1" d="M42.1,209.42H39.56v6.27c.8.3,1.6.61,2.42.9h.12Z"/><path class="cls-1" d="M39.56,209.42H37v5.24c.84.35,1.69.7,2.55,1Z"/><path class="cls-1" d="M37,209.42H34.46v4.14c.84.38,1.69.75,2.55,1.1Z"/><path class="cls-1" d="M34.46,209.42H31.92v2.91c.84.43,1.68.83,2.54,1.23Z"/><path class="cls-1" d="M31.92,209.42H29.37V211c.85.49,1.69.94,2.55,1.38Z"/><path class="cls-1" d="M29.37,209.42H26.83c.83.53,1.68,1,2.54,1.53Z"/><path class="cls-1" d="M8,121.89c2.91,10,9.44,20.29,22.76,27.92l.2-.13.91-.57.45-.28c.16-.1.3-.2.46-.29s.61-.33.9-.51l.9-.49.46-.25.9-.51c.31-.17.59-.34.91-.5l.45-.25.45-.22c.29-.15.61-.28.9-.43l.45-.22.45-.21.9-.45.45-.2c.31-.15.59-.3.9-.44l.34-.16.56-.24.89-.38.9-.38c1.78-.75,3.58-1.45,5.42-2.1.6-.21,1.22-.39,1.83-.6l1.83-.6,1.84-.56,1.84-.52,1.82-.5c.61-.17,1.22-.32,1.83-.47s1.22-.32,1.83-.46l1.82-.42,1.83-.42c.6-.14,1.21-.26,1.82-.39l1.82-.38,1.82-.37,1.82-.34,1.82-.35c.6-.12,1.21-.22,1.81-.32l1.82-.33,1.82-.32,1.51-.25c-26.25-5.83-52.32-9.74-65.7-27.77A59.09,59.09,0,0,0,8,121.89Z"/><path class="cls-1" d="M7.11,118.27A66.78,66.78,0,0,1,6,105.93,55.63,55.63,0,0,0,7.11,118.27Z"/><path class="cls-1" d="M125.06,155.43c-1.77.77-3.67,1.46-5.65,2.12-1.21.41-2.45.81-3.74,1.19a.39.39,0,0,0-.14,0c-.56.15-1.16.28-1.73.44l-1.87.47-1.86.47c-.62.16-1.22.33-1.86.47s-1.25.27-1.87.41l-1.86.4-1.85.4c-.63.12-1.23.27-1.86.39l-1.86.37-1.86.35c-.61.13-1.23.24-1.85.36l-1.85.36-1.87.34-1.85.36-1.86.34-3.67.68-1.24.24c10.68,2.65,21.36,5.74,31.09,10.15h0c.71.32,1.38.7,2.08,1s1.39.69,2.08,1,1.39.66,2.07,1,1.37.79,2.06,1.19,1.38.86,2.07,1.29,1.69,1,2.5,1.56A62.65,62.65,0,0,1,138,192.61c.19.2.4.38.58.57s.48.47.7.72.47.65.72.95.45.63.69.93.46.64.7.95.47.62.7.94.48.63.71,1,.48.62.7,1l.15.19c.15.24.34.44.49.68a43.42,43.42,0,0,0,5.67-10.4L148.2,208v0l1.64-18a51.4,51.4,0,0,0,1.83-5.62,61.61,61.61,0,0,1,2.23,16.14c.68-13.64-2.51-33.47-22.31-48.4A61.15,61.15,0,0,1,125.06,155.43Z"/><path class="cls-1" d="M122.92,247.7l.59-6.46h0l-.59,6.46c-1.76.75-3.65,1.43-5.61,2.09-1.23.41-2.47.82-3.78,1.19-.58.16-1.2.29-1.79.45l1.42-15.49h0l-1.41,15.49c-1.82.49-3.65,1-5.54,1.42s-3.66.79-5.52,1.19l2-22h0l-2,22c-1.82.38-3.65.74-5.51,1.1s-3.66.72-5.52,1.06L92.11,229h0L89.63,256.2l-1.11.21L91,228.68h0l-2.52,27.73-1.12.2-1.14.22c-.37.07-.75.15-1.13.21l2.65-29.17h0L85.12,257l-1.12.21,2.69-29.65h0L84,257.25l-1.11.21,2.73-30.11h0l-2.73,30.11-1.13.21-1.15.22-1.11.21,2.86-31.51h0l-2.86,31.52-.84.16c24.59,6,49.54,13.92,63.18,34.87l.18-.25,0,.44v0l0-.49a45.33,45.33,0,0,0,7.66-16.24,61.71,61.71,0,0,1,2.24,16.77c.61-13.79-2.77-33.76-23.06-48.62l-.27.15C126.81,245.89,125,246.83,122.92,247.7Z"/><path class="cls-1" d="M80.18,226.1h0l-2.89,31.83h0Z"/><path class="cls-1" d="M76.81,226.4l1.12-.2c.38-.07.75-.13,1.14-.18l.38-.07c-13.09-2.89-26.1-5.35-37.47-9.36-.82-.29-1.62-.6-2.42-.9s-1.71-.68-2.55-1-1.71-.72-2.55-1.1-1.7-.8-2.54-1.23-1.7-.89-2.55-1.38-1.71-1-2.54-1.53a45.09,45.09,0,0,1-11-9.65c-.53-.65-1.05-1.32-1.54-2a1.6,1.6,0,0,0-.16.19c-.15.21-.33.38-.49.59s-.31.5-.48.75-.31.55-.48.8-.33.58-.5.86-.33.55-.49.81-.33.54-.49.82-.34.54-.5.85-.33.52-.49.79-.33.54-.48.82-.36.55-.51.85-.33.84-.52,1.24-.33.84-.51,1.24-.36.86-.54,1.28-.35.82-.51,1.25-.36.8-.51,1.23-.38.84-.54,1.3c-.1.27-.23.5-.33.78h0c2.72,10,9,20.36,22,28.15.32-.21.67-.41,1-.61l-.11,1.16h0l.11-1.18L30,241l-.22,2.46h0L30,241c.4-.23.77-.48,1.17-.71l-.34,3.73h0l.34-3.73c.37-.22.78-.42,1.17-.64s.77-.4,1.16-.62l-.55,6.1h0l.55-6.1,1.17-.6L34,245.62h0l.65-7.16,1.15-.6-.75,8.23h0l.74-8.24c.37-.18.77-.34,1.15-.51l1.16-.53c.39-.18.77-.36,1.16-.52s.58-.28.89-.4l.26-.1-1.09,12h0l1.1-12c.37-.16.75-.29,1.13-.44l-1.17,12.87v0l1.17-12.89,1.14-.45L41.5,248.62h0l1.24-13.72c.38-.15.76-.31,1.14-.44s.77-.28,1.15-.41l-1.38,15.28h0l1.39-15.28,1.14-.41-1.45,16h0l1.45-16c.38-.12.76-.26,1.14-.39L45.81,250h0l1.52-16.74c.37-.12.76-.26,1.13-.37l-1.58,17.44h0l1.59-17.44c.38-.13.76-.24,1.14-.35l1.14-.35L49.05,251h0l1.7-18.8c.38-.12.75-.24,1.14-.34l-1.77,19.43h0l1.77-19.43L53,231.5l-1.82,20.06h0l1.83-20.06c.37-.1.75-.19,1.12-.3L52.3,251.85h0l1.88-20.65,1.13-.3c.39-.1.76-.21,1.14-.33l1.13-.26-2,22.4h0l2-22.4,1.12-.28-2.09,23h0l2.08-23,1.12-.27-2.13,23.51h0l2.14-23.51,1.12-.28,1.15-.23,1.12-.26L61,254.06h0L63.26,229l1.12-.24-2.32,25.57h0l2.33-25.57,1.12-.23-2.37,26.07h0l2.37-26.09,1.13-.22,1.13-.22,1.13-.22-2.5,27.52h0l2.5-27.52,1.12-.22-2.54,28h0l2.55-28,1.11-.21-2.58,28.45h0l2.59-28.45,1.12-.21,1.14-.21,1.12-.19-2.71,29.84h0l2.71-29.84,1.12-.2-2.75,30.29h0l2.76-30.29,1.11-.2L74,257.15h0Z"/><polygon class="cls-1" points="81.26 226.35 81.25 226.35 78.36 258.19 78.36 258.19 81.26 226.35"/><path class="cls-1" d="M3.13,200l1-14A55.39,55.39,0,0,0,3.13,200Z"/><path class="cls-1" d="M4.11,186.07l-1,14c.06,1,.14,2,.23,2.91L4.73,183.4C4.5,184.3,4.29,185.19,4.11,186.07Z"/><path class="cls-1" d="M5.31,181.34c-.21.69-.41,1.37-.58,2.06L3.36,202.94c.08.76.18,1.5.28,2.2Z"/><path class="cls-1" d="M5.86,179.56c-.2.6-.37,1.19-.55,1.78l-1.67,23.8c.1.66.2,1.28.3,1.87Z"/><path class="cls-1" d="M6.4,178.12c-.18.48-.38,1-.54,1.44L3.94,207c.11.59.21,1.15.33,1.69Z"/><path class="cls-1" d="M6.93,176.73c-.19.46-.35.93-.53,1.39L4.27,208.7c.11.5.21,1,.32,1.43Z"/><path class="cls-1" d="M7.44,175.6c-.17.37-.36.75-.51,1.13l-2.34,33.4c.12.48.23.92.34,1.33Z"/><path class="cls-1" d="M8,174.42c-.19.4-.36.78-.53,1.18L4.93,211.46c.13.49.25.91.35,1.27Z"/><path class="cls-1" d="M8.48,173.36c-.18.35-.35.71-.51,1.06L5.28,212.73c.16.48.28.87.36,1.12Z"/><path class="cls-1" d="M6.1,213.44l2.87-41c-.16.3-.34.6-.49.92L5.64,213.85c.07.21.13.35.13.36h0C5.87,213.94,6,213.71,6.1,213.44Z"/><path class="cls-1" d="M6.1,213.44c.16-.46.37-.85.54-1.3l2.84-40.67c-.18.32-.34.64-.51,1Z"/><path class="cls-1" d="M6.64,212.14c.15-.43.34-.82.51-1.23L10,170.58l-.49.89Z"/><path class="cls-1" d="M7.15,210.91c.16-.43.34-.84.51-1.25l2.79-39.85c-.15.26-.33.52-.48.77Z"/><path class="cls-1" d="M7.66,209.66c.18-.42.35-.88.54-1.28L11,169c-.17.26-.34.53-.5.8Z"/><path class="cls-1" d="M8.2,208.38c.18-.4.32-.84.51-1.24l2.73-38.92c-.18.26-.32.52-.49.79Z"/><path class="cls-1" d="M8.71,207.14c.19-.4.33-.85.52-1.24l2.69-38.4c-.16.24-.33.48-.48.72Z"/><path class="cls-1" d="M9.23,205.9c.15-.3.35-.56.51-.85l2.67-38.23-.49.68Z"/><path class="cls-1" d="M9.74,205.05c.15-.28.34-.53.48-.82l2.68-38.1-.49.69Z"/><path class="cls-1" d="M10.22,204.23c.16-.27.33-.53.49-.79l2.65-38-.46.65Z"/><path class="cls-1" d="M10.71,203.44c.16-.31.33-.58.5-.85l2.64-37.76c-.17.21-.32.43-.49.65Z"/><path class="cls-1" d="M11.21,202.59c.16-.28.33-.55.49-.82l2.63-37.52c-.16.19-.33.38-.48.58Z"/><path class="cls-1" d="M11.7,201.77c.16-.26.32-.54.49-.81l2.6-37.28c-.15.18-.32.38-.46.57Z"/><path class="cls-1" d="M12.19,201c.17-.28.32-.58.5-.86l2.59-37c-.17.19-.33.39-.49.59Z"/><path class="cls-1" d="M12.69,200.1c.17-.25.31-.55.48-.8l2.58-36.79c-.17.19-.31.39-.47.58Z"/><path class="cls-1" d="M13.17,199.3c.17-.25.32-.52.48-.75L16.22,162l-.47.55Z"/><path class="cls-1" d="M13.65,198.55c.16-.21.34-.38.49-.59l2.55-36.5c-.15.17-.32.33-.47.5Z"/><path class="cls-1" d="M14.14,198a1.6,1.6,0,0,1,.16-.19c.1-.14.22-.25.32-.39L17.17,161c-.16.17-.33.34-.48.51Z"/><path class="cls-1" d="M14.62,197.38c.14-.2.31-.37.46-.57l2.54-36.34-.45.48Z"/><path class="cls-1" d="M15.08,196.81c.15-.2.32-.38.48-.58L18.09,160c-.16.16-.31.33-.47.5Z"/><path class="cls-1" d="M15.56,196.23l.49-.6,2.52-36.17c-.17.17-.31.33-.48.51Z"/><path class="cls-1" d="M16.05,195.63l.46-.57L19,159c-.16.14-.32.3-.47.45Z"/><path class="cls-1" d="M16.51,195.06c.16-.19.31-.4.48-.59l2.51-35.9c-.15.15-.32.29-.46.44Z"/><path class="cls-1" d="M17,194.47l.48-.59L20,158.13l-.47.44Z"/><path class="cls-1" d="M17.47,193.88c.16-.18.3-.39.47-.57l2.49-35.61-.46.43Z"/><path class="cls-1" d="M17.94,193.31c.16-.19.3-.41.47-.58l2.48-35.46-.46.43Z"/><path class="cls-1" d="M18.41,192.73s.07-.1.1-.12.25-.26.37-.38l2.48-35.4-.47.44Z"/><path class="cls-1" d="M18.88,192.23c.15-.15.32-.27.46-.42l2.48-35.39c-.16.13-.3.27-.46.41Z"/><path class="cls-1" d="M19.34,191.81c.15-.16.32-.29.47-.44L22.28,156l-.46.38Z"/><path class="cls-1" d="M19.81,191.37c.15-.15.32-.28.47-.43l2.47-35.28-.47.38Z"/><path class="cls-1" d="M20.28,190.94l.46-.43,2.47-35.24c-.16.13-.32.26-.46.39Z"/><path class="cls-1" d="M20.74,190.51l.47-.43,2.46-35.18-.46.37Z"/><path class="cls-1" d="M21.21,190.08c.16-.15.31-.3.47-.43l2.45-35.13-.46.38Z"/><path class="cls-1" d="M21.68,189.65l.45-.42,2.46-35.09-.46.38Z"/><path class="cls-1" d="M22.13,189.23l.47-.44,2.45-35-.46.37Z"/><path class="cls-1" d="M22.6,188.79c.16-.14.3-.29.46-.42l2.45-34.94-.46.34Z"/><path class="cls-1" d="M23.06,188.37c.16-.14.31-.3.46-.44L26,153.11c-.15.1-.31.21-.45.32Z"/><path class="cls-1" d="M23.52,187.93c.17-.13.31-.29.47-.43l2.43-34.73-.46.34Z"/><path class="cls-1" d="M24,187.5l.48-.42,2.42-34.63-.47.32Z"/><path class="cls-1" d="M24.47,187.08l.44-.32,2.43-34.64-.45.33Z"/><path class="cls-1" d="M24.91,186.76c.15-.12.32-.22.46-.32l2.43-34.65-.46.33Z"/><path class="cls-1" d="M25.37,186.44l.46-.34,2.43-34.64-.46.33Z"/><path class="cls-1" d="M25.83,186.1c.15-.1.31-.2.46-.32l2.42-34.65-.45.33Z"/><path class="cls-1" d="M26.29,185.78l.45-.34,2.43-34.61-.46.3Z"/><path class="cls-1" d="M26.74,185.44a4.87,4.87,0,0,0,.47-.32l2.41-34.57-.45.28Z"/><path class="cls-1" d="M27.21,185.12l.45-.32,2.42-34.55-.46.3Z"/><path class="cls-1" d="M27.66,184.8l.45-.32L30.53,150c-.15.1-.31.18-.45.27Z"/><path class="cls-1" d="M28.11,184.48c.16-.11.31-.23.47-.33L31,149.68l-.2.13-.26.17Z"/><path class="cls-1" d="M28.58,184.15c.31-.22.6-.46.92-.66l2.4-34.38-.91.57Z"/><path class="cls-1" d="M29.5,183.49c.16-.11.3-.23.46-.33l2.39-34.33-.45.28Z"/><path class="cls-1" d="M30,183.16c.1-.07.2-.16.3-.22l.14-.1,2.41-34.3c-.16.09-.3.19-.46.29Z"/><path class="cls-1" d="M30.4,182.84l.15-.11.56-.35.21-.11L33.71,148c-.29.18-.61.34-.9.51Z"/><path class="cls-1" d="M31.32,182.27c.12-.08.24-.12.37-.2l.53-.29,2.39-34.24-.9.49Z"/><path class="cls-1" d="M32.22,181.78s0,0,0,0l.41-.24,2.4-34.22-.46.25Z"/><path class="cls-1" d="M32.67,181.51l.15-.08.58-.32.18-.11L36,146.78l-.9.51Z"/><path class="cls-1" d="M33.58,181a3.59,3.59,0,0,0,.38-.21c.18-.09.35-.19.52-.29l2.4-34.22c-.32.16-.6.33-.91.5Z"/><path class="cls-1" d="M34.48,180.5l.05,0c.13-.07.27-.16.4-.22L37.33,146l-.45.25Z"/><path class="cls-1" d="M34.93,180.26l.17-.1.29-.16,2.39-34.19-.45.22Z"/><path class="cls-1" d="M35.39,180l.28-.16.57-.32.06,0,2.38-34.11c-.29.15-.61.28-.9.43Z"/><path class="cls-1" d="M36.3,179.49l.44-.25,2.39-34.08-.45.22Z"/><path class="cls-1" d="M36.74,179.24l.07,0a3.59,3.59,0,0,1,.38-.21L39.58,145l-.45.21Z"/><path class="cls-1" d="M37.19,179a1.06,1.06,0,0,1,.2-.12l.57-.28.14-.07,2.38-34-.9.45Z"/><path class="cls-1" d="M38.1,178.53c.14-.07.29-.12.42-.19h0l2.38-34-.45.2Z"/><path class="cls-1" d="M38.55,178.33l.55-.24.35-.15,2.38-34.08c-.31.14-.59.29-.9.44Z"/><path class="cls-1" d="M39.45,177.94l.22-.1.58-.26.09,0,2.39-34.08-.56.24-.34.16Z"/><path class="cls-1" d="M40.34,177.54l.48-.21.42-.19,2.38-34.06-.89.38Z"/><path class="cls-1" d="M41.24,177.14l.14-.06.57-.25a.82.82,0,0,0,.19-.09l2.38-34-.9.38Z"/><path class="cls-1" d="M42.14,176.74l.38-.17.58-.25.54-.24.59-.26a.24.24,0,0,1,.09,0c1.06-.44,2.16-.82,3.24-1.22l2.38-34c-1.84.65-3.64,1.35-5.42,2.1Z"/><path class="cls-1" d="M47.56,174.57c.61-.23,1.22-.44,1.84-.66L51.77,140c-.61.21-1.23.39-1.83.6Z"/><path class="cls-1" d="M49.4,173.91l1.84-.65L53.6,139.4l-1.83.6Z"/><path class="cls-1" d="M51.24,173.26c.61-.2,1.22-.44,1.83-.62l2.37-33.8-1.84.56Z"/><path class="cls-1" d="M53.07,172.64c.61-.19,1.23-.35,1.84-.54l2.37-33.78-1.84.52Z"/><path class="cls-1" d="M54.91,172.1l1.82-.53,2.37-33.75-1.82.5Z"/><path class="cls-1" d="M56.73,171.57l1.84-.53,2.36-33.69c-.61.15-1.22.3-1.83.47Z"/><path class="cls-1" d="M58.57,171c.62-.17,1.21-.37,1.83-.53l2.36-33.62c-.61.14-1.22.3-1.83.46Z"/><path class="cls-1" d="M60.4,170.51c.61-.16,1.23-.29,1.84-.45l2.34-33.59-1.82.42Z"/><path class="cls-1" d="M62.24,170.06c.6-.16,1.21-.3,1.81-.45l2.36-33.56-1.83.42Z"/><path class="cls-1" d="M64.05,169.61l1.83-.44,2.35-33.51c-.61.13-1.22.25-1.82.39Z"/><path class="cls-1" d="M65.88,169.17l1.83-.44,2.34-33.45-1.82.38Z"/><path class="cls-1" d="M67.71,168.73l1.82-.41,2.34-33.41-1.82.37Z"/><path class="cls-1" d="M69.53,168.32c.61-.14,1.22-.25,1.82-.39l2.34-33.36-1.82.34Z"/><path class="cls-1" d="M71.35,167.93l1.83-.38,2.33-33.33-1.82.35Z"/><path class="cls-1" d="M73.18,167.55l1.82-.38,2.32-33.27c-.6.1-1.21.2-1.81.32Z"/><path class="cls-1" d="M75,167.17l1.82-.38,2.32-33.22-1.82.33Z"/><path class="cls-1" d="M76.82,166.79l1.82-.35L81,133.25l-1.82.32Z"/><path class="cls-1" d="M81,133.25l-2.32,33.19,1.81-.34L82.77,133l-.3.05Z"/><path class="cls-1" d="M80.45,166.1c.61-.12,1.22-.24,1.82-.34l2.32-33.12-1.82.31Z"/><path class="cls-1" d="M82.27,165.76l.59-.12,1.24-.24,2.31-33.06-1.82.3Z"/><path class="cls-1" d="M84.1,165.4l3.67-.68,2.3-33-3.66.61Z"/><path class="cls-1" d="M87.77,164.72l1.86-.34,2.31-33-1.87.32Z"/><path class="cls-1" d="M89.63,164.38l1.85-.36,2.31-32.92c-.62.1-1.23.22-1.85.31Z"/><path class="cls-1" d="M91.48,164l1.87-.34,2.3-32.9-1.86.32Z"/><path class="cls-1" d="M93.35,163.68l1.85-.36,2.3-32.87-1.85.33Z"/><path class="cls-1" d="M95.2,163.32c.62-.12,1.24-.23,1.85-.36l2.3-32.84c-.61.11-1.23.23-1.85.33Z"/><path class="cls-1" d="M97.05,163l1.86-.35,2.3-32.83-1.86.34Z"/><path class="cls-1" d="M98.91,162.61l1.86-.37,2.3-32.83-1.86.37Z"/><path class="cls-1" d="M100.77,162.24c.63-.12,1.23-.27,1.86-.39l2.3-32.81c-.62.13-1.24.26-1.86.37Z"/><path class="cls-1" d="M102.63,161.85l1.85-.4,2.3-32.79-1.85.38Z"/><path class="cls-1" d="M104.48,161.45l1.86-.4,2.29-32.8c-.61.14-1.23.26-1.85.41Z"/><path class="cls-1" d="M106.34,161.05c.62-.14,1.26-.26,1.87-.41l2.3-32.83-1.88.44Z"/><path class="cls-1" d="M108.21,160.64c.64-.14,1.24-.31,1.86-.47l2.3-32.81-1.86.45Z"/><path class="cls-1" d="M110.07,160.17l1.86-.47,2.3-32.82-1.86.48Z"/><path class="cls-1" d="M111.93,159.7l1.87-.47,2.3-32.86-1.87.51Z"/><path class="cls-1" d="M113.8,159.23c.57-.16,1.17-.29,1.73-.44a.39.39,0,0,1,.14,0l2.3-32.93-1.87.56Z"/><path class="cls-1" d="M115.67,158.74c1.29-.38,2.53-.78,3.74-1.19l2.31-33c-1.23.42-2.48.83-3.75,1.22Z"/><path class="cls-1" d="M119.41,157.55c2-.66,3.88-1.35,5.65-2.12l2.32-33q-2.75,1.2-5.66,2.2Z"/><path class="cls-1" d="M125.06,155.43a61.15,61.15,0,0,0,6.53-3.27,50.25,50.25,0,0,0,11.82-9.22l2.4-34.34c-4.82,6.2-11.12,10.57-18.43,13.79Z"/><path class="cls-1" d="M143.41,142.94c19.6-21,10.25-50.72,10.25-50.72a44.39,44.39,0,0,1-7.85,16.38Z"/><path class="cls-1" d="M2.53,281.89c-.2,1.57-.33,3.08-.41,4.57Z"/><path class="cls-1" d="M4,306.43a58.7,58.7,0,0,1,10.65-19.1l3.38-37.19A53.37,53.37,0,0,0,2.59,281.51l-.53,5.79A63.42,63.42,0,0,0,4,306.43Z"/><path class="cls-1" d="M19.26,249c-.4.37-.82.73-1.2,1.11l-3.38,37.2c.42-.5.81-1.05,1.25-1.54Z"/><path class="cls-1" d="M20.48,247.88c-.42.38-.81.76-1.22,1.14l-3.33,36.77c.42-.46.81-1,1.24-1.41Z"/><path class="cls-1" d="M17.17,284.38c.38-.41.82-.74,1.21-1.13l3.3-36.37c-.4.33-.81.66-1.2,1Z"/><path class="cls-1" d="M18.39,283.24c.39-.38.81-.75,1.21-1.12l3.28-36.21-1.19,1Z"/><path class="cls-1" d="M19.6,282.11c.4-.37.79-.75,1.2-1.11L24.07,245c-.41.32-.78.63-1.18,1Z"/><path class="cls-1" d="M25.26,244.12c-.39.27-.8.55-1.18.83L20.81,281c.41-.36.78-.78,1.2-1.12Z"/><path class="cls-1" d="M26.45,243.27c-.4.29-.8.56-1.19.85L22,279.88l1.21-1Z"/><path class="cls-1" d="M27.63,242.46c-.41.27-.78.54-1.18.81l-3.23,35.62c.38-.31.8-.56,1.18-.84Z"/><path class="cls-1" d="M27.8,242.36l-.16.1L24.41,278c.38-.29.79-.56,1.18-.85l3.1-34.28.11-1.16C28.47,242,28.12,242.15,27.8,242.36Z"/><path class="cls-1" d="M28.81,241.74l-.11,1.18-3.11,34.27,1.18-.84,3-32.86L30,241Z"/><path class="cls-1" d="M30,241l-.22,2.46-3,32.85c.4-.27.78-.58,1.18-.85l2.85-31.44.34-3.73C30.75,240.55,30.38,240.8,30,241Z"/><path class="cls-1" d="M32.33,239.68c-.39.22-.8.42-1.17.64l-.34,3.73L28,275.49c.4-.27.78-.56,1.19-.81Z"/><path class="cls-1" d="M32.33,239.68l-3.18,35c.38-.24.79-.43,1.17-.66l2.62-28.86.55-6.1C33.1,239.28,32.7,239.48,32.33,239.68Z"/><path class="cls-1" d="M33.49,239.06l-.55,6.1L30.33,274c.38-.24.77-.44,1.16-.66L34,245.62l.65-7.16Z"/><path class="cls-1" d="M34.66,238.46,34,245.62l-2.52,27.74,1.16-.65,2.41-26.62.75-8.23Z"/><path class="cls-1" d="M37,237.35c-.38.17-.78.33-1.15.51l-.74,8.24-2.42,26.6c.39-.21.77-.44,1.16-.64Z"/><path class="cls-1" d="M38.13,236.82l-1.16.53-3.15,34.71c.4-.21.78-.45,1.17-.66Z"/><path class="cls-1" d="M39.29,236.3c-.39.16-.77.34-1.16.52L35,271.4c.4-.21.78-.43,1.18-.62Z"/><path class="cls-1" d="M40.18,235.9c-.31.12-.58.27-.89.4l-3.12,34.48c.37-.18.77-.33,1.14-.51l2-22.44,1.09-12Z"/><path class="cls-1" d="M40.46,235.79l-1.1,12-2,22.43c.37-.18.76-.33,1.14-.51l2-21.53,1.17-12.87C41.21,235.5,40.83,235.63,40.46,235.79Z"/><path class="cls-1" d="M41.6,235.35l-1.17,12.89-2,21.51c.38-.18.77-.34,1.15-.51l1.87-20.62,1.24-13.72Z"/><path class="cls-1" d="M43.89,234.46c-.38.13-.76.29-1.14.44l-1.24,13.72-1.88,20.62,1.16-.52Z"/><path class="cls-1" d="M43.89,234.46l-3.1,34.26,1.15-.5,1.72-18.89L45,234.05C44.66,234.18,44.27,234.31,43.89,234.46Z"/><path class="cls-1" d="M45.05,234.05l-1.39,15.28L42,268.2c.39-.16.76-.35,1.15-.5l1.64-18,1.45-16Z"/><path class="cls-1" d="M46.19,233.64l-1.45,16-1.64,18c.37-.16.77-.28,1.14-.41L45.81,250l1.52-16.73C47,233.38,46.57,233.52,46.19,233.64Z"/><path class="cls-1" d="M47.34,233.25,45.82,250l-1.57,17.29c.37-.14.76-.26,1.14-.4l1.5-16.56,1.58-17.44C48.1,233,47.71,233.13,47.34,233.25Z"/><path class="cls-1" d="M49.62,232.53c-.38.11-.76.22-1.14.35l-1.59,17.44-1.5,16.56,1.15-.41Z"/><path class="cls-1" d="M49.62,232.53l-3.08,33.94,1.14-.41L49.05,251l1.71-18.8Z"/><path class="cls-1" d="M50.76,232.18,49.06,251l-1.37,15.08,1.13-.42,1.31-14.37,1.77-19.43C51.51,231.94,51.14,232.06,50.76,232.18Z"/><path class="cls-1" d="M51.91,231.84l-1.77,19.43-1.3,14.37c.38-.11.75-.28,1.13-.39l1.24-13.69L53,231.5Z"/><path class="cls-1" d="M53.05,231.5l-1.82,20.06L50,265.24c.38-.13.74-.27,1.13-.38l1.18-13,1.87-20.65C53.8,231.31,53.42,231.4,53.05,231.5Z"/><path class="cls-1" d="M55.31,230.9l-1.13.3L52.3,251.85l-1.17,13c.37-.12.76-.22,1.13-.33Z"/><path class="cls-1" d="M56.45,230.57c-.38.12-.75.23-1.14.33l-3.05,33.63,1.15-.34Z"/><path class="cls-1" d="M56.45,230.57l-3,33.62,1.13-.33,1-11.15,2-22.4Z"/><path class="cls-1" d="M57.6,230.31l-2,22.4-1,11.15,1.13-.33,1-10.53,2.09-23Z"/><path class="cls-1" d="M58.73,230l-2.08,23-1,10.53,1.13-.34.9-9.92,2.13-23.51Z"/><path class="cls-1" d="M61,229.48l-1.12.28-2.14,23.51-.9,9.92,1.13-.33Z"/><path class="cls-1" d="M62.14,229.25l-1.15.23-3,33.38c.39-.1.77-.22,1.15-.31Z"/><path class="cls-1" d="M62.14,229.25l-3,33.3c.37-.09.76-.17,1.13-.27l.74-8.22L63.26,229Z"/><path class="cls-1" d="M63.26,229,61,254.06l-.75,8.22,1.12-.28.7-7.68,2.32-25.57Z"/><path class="cls-1" d="M64.4,228.75l-2.33,25.57L61.38,262l1.12-.26.65-7.14,2.37-26.07Z"/><path class="cls-1" d="M66.65,228.28l-1.13.22-2.37,26.09-.65,7.13,1.14-.27Z"/><path class="cls-1" d="M67.78,228.06l-1.13.22-3,33.17,1.13-.28Z"/><path class="cls-1" d="M67.78,228.06l-3,33.11,1.14-.27.5-5.54,2.5-27.52Z"/><path class="cls-1" d="M68.92,227.84l-2.5,27.52-.5,5.54,1.12-.26.46-5,2.54-28Z"/><path class="cls-1" d="M70.05,227.62l-2.55,28-.45,5,1.12-.25.41-4.53,2.58-28.45Z"/><path class="cls-1" d="M72.29,227.2l-1.12.21-2.59,28.45-.41,4.53,1.13-.23Z"/><path class="cls-1" d="M73.43,227l-1.14.21-3,33,1.14-.24Z"/><path class="cls-1" d="M74.55,226.8l-1.12.19-3,32.93,1.13-.24.27-3Z"/><path class="cls-1" d="M75.68,226.6l-1.12.2-2.71,29.84-.27,3,1.12-.23.23-2.56Z"/><path class="cls-1" d="M76.8,226.4l-1.11.2-2.75,30.29-.23,2.56,1.12-.25.18-2.05Z"/><path class="cls-1" d="M77.93,226.2l-1.12.2L74,257.15l-.19,2.05L75,259Z"/><path class="cls-1" d="M79.07,226c-.39,0-.76.11-1.14.18L75,259l1.12-.22Z"/><path class="cls-1" d="M80.17,226.1l0-.28-.74.13-.38.07-3,32.73,1.13-.21.06-.61Z"/><path class="cls-1" d="M81.25,226.35l.06-.72-1.11.19,0,.28-2.89,31.84-.06.59,1.12-.21v-.12Z"/><path class="cls-1" d="M82.34,226.59l.1-1.15-1.11.19-.07.72L78.37,258.2v.12l.28-.05.84-.16Z"/><path class="cls-1" d="M83.57,225.25l-1.12.19-.1,1.15L79.49,258.1l1.11-.21Z"/><path class="cls-1" d="M84.7,225.06l-1.13.19-3,32.64,1.15-.22Z"/><path class="cls-1" d="M85.83,224.88c-.38.07-.75.14-1.13.18l-3,32.61,1.13-.21,2.73-30.11Z"/><path class="cls-1" d="M87,224.69l-1.12.19-.22,2.47-2.73,30.11,1.11-.21,2.69-29.65Z"/><path class="cls-1" d="M88.07,224.51l-1.12.18-.26,2.91L84,257.25l1.12-.21,2.65-29.17Z"/><path class="cls-1" d="M89.2,224.32l-1.12.19-.31,3.36L85.12,257c.38-.06.76-.14,1.13-.21Z"/><path class="cls-1" d="M90.34,224.13l-1.14.19-3,32.51,1.14-.22Z"/><path class="cls-1" d="M91.46,223.92l-1.12.21-3,32.48,1.12-.2L91,228.68Z"/><path class="cls-1" d="M92.58,223.74q-.56.1-1.11.18L91,228.68l-2.52,27.73,1.11-.21L92.1,229Z"/><path class="cls-1" d="M98.1,222.74c-1.82.33-3.67.67-5.52,1L92.11,229,89.64,256.2c1.86-.34,3.69-.7,5.52-1.06Z"/><path class="cls-1" d="M103.61,221.63q-2.73.57-5.51,1.11l-2.94,32.4c1.86-.36,3.69-.72,5.51-1.1l2-22Z"/><path class="cls-1" d="M109.14,220.35q-2.72.69-5.52,1.27l-1,10.4-2,22c1.86-.4,3.71-.77,5.52-1.19Z"/><path class="cls-1" d="M114.7,218.85c-1.82.54-3.67,1-5.56,1.5l-2.94,32.5c1.89-.44,3.72-.93,5.54-1.42l1.41-15.49Z"/><path class="cls-1" d="M120.29,217c-1.82.67-3.67,1.29-5.59,1.86l-1.54,17.09-1.42,15.49c.59-.16,1.21-.29,1.79-.45,1.31-.37,2.55-.78,3.78-1.19Z"/><path class="cls-1" d="M125.74,216.59l.1-1.12.07-.77-.07,0-.68.3c-.23.11-.48.2-.72.31l-.71.3-.68.28-.7.3c-.23.1-.47.18-.7.26a1.53,1.53,0,0,1-.27.11l-1.09.4-3,32.8c2-.66,3.85-1.34,5.61-2.09l.59-6.46Z"/><path class="cls-1" d="M130.76,212.17l-.71.4c-.24.13-.47.27-.7.41l-.69.36c-.23.12-.48.23-.71.36l-.7.34-.7.34-.63.32-.08.86-.09,1-2.24,24.65-.59,6.46c2-.87,3.89-1.81,5.67-2.78l3-33.23a.83.83,0,0,0-.13.07C131.23,211.91,131,212,130.76,212.17Z"/><path class="cls-1" d="M137.23,209.42l.16-1.83c-.76.62-1.53,1.25-2.33,1.83l-.09.06c-.23.17-.48.3-.72.47s-.46.31-.69.47-.46.32-.7.47-.46.32-.7.47-.37.21-.56.33l-3,33.23.27-.15a56.18,56.18,0,0,0,5.47-3.42l2.25-24.76.48-5.39Z"/><path class="cls-1" d="M143.36,201.52a42.12,42.12,0,0,1-6,6.06l-.17,1.84-.18,1.91-.48,5.26-2.24,24.76a49.21,49.21,0,0,0,5.86-4.94Z"/><path class="cls-1" d="M144.17,200.45c-.27.36-.53.73-.81,1.07l-3.16,34.89a43.75,43.75,0,0,0,6.1-7.49L148.2,208l1.64-17.94A43.42,43.42,0,0,1,144.17,200.45Z"/><path class="cls-1" d="M149.84,190l-1.63,18-1.9,20.9c6.15-9.51,7.69-19.95,7.59-28.35a61.61,61.61,0,0,0-2.23-16.14A51.4,51.4,0,0,1,149.84,190Z"/><path class="cls-1" d="M0,384.64l1.14-14.49A64.1,64.1,0,0,0,0,384.64Z"/><path class="cls-1" d="M1.85,367.22c-.25,1-.47,1.94-.66,2.9L0,384.66c0,1.08.09,2.13.17,3.11Z"/><path class="cls-1" d="M2.45,365c-.22.74-.41,1.48-.6,2.21L.21,387.79c.07.84.15,1.66.24,2.42Z"/><path class="cls-1" d="M2.45,365l-2,25.24c.08.71.17,1.4.27,2L3,363.17C2.82,363.78,2.63,364.38,2.45,365Z"/><path class="cls-1" d="M3,363.17.72,392.26c.09.63.18,1.22.28,1.77l2.57-32.38C3.39,362.15,3.2,362.67,3,363.17Z"/><path class="cls-1" d="M3.57,361.65,1,394c.1.58.2,1.09.29,1.56l2.82-35.36C3.92,360.7,3.75,361.18,3.57,361.65Z"/><path class="cls-1" d="M4.11,360.23,1.29,395.59c.12.58.23,1.07.33,1.49l3-38.13C4.47,359.37,4.28,359.8,4.11,360.23Z"/><path class="cls-1" d="M4.65,359l-3,38.13c.14.61.26,1.05.33,1.29l3.22-40.58C5,358.18,4.82,358.56,4.65,359Z"/><path class="cls-1" d="M5.17,357.79,2,398.37l.07.25c.12-.36.29-.66.42-1l3.25-40.95C5.51,357,5.34,357.41,5.17,357.79Z"/><path class="cls-1" d="M6.2,355.7c-.17.31-.35.63-.5.95l-3.26,41c.16-.44.36-.83.53-1.27Z"/><path class="cls-1" d="M3.49,395.07,6.7,354.74c-.17.32-.34.63-.5,1L3,396.34C3.13,395.91,3.32,395.49,3.49,395.07Z"/><path class="cls-1" d="M7.2,353.79l-.49.94L3.5,395.06c.17-.43.35-.85.52-1.27Z"/><path class="cls-1" d="M7.7,353c-.16.27-.34.54-.49.81L4,393.78c.18-.42.34-.86.53-1.27Z"/><path class="cls-1" d="M5.09,391.22l3.1-39c-.16.26-.33.52-.49.79L4.56,392.51C4.74,392.09,4.89,391.63,5.09,391.22Z"/><path class="cls-1" d="M5.61,390.08l3.08-38.71-.5.82-3.1,39C5.27,390.85,5.43,390.45,5.61,390.08Z"/><path class="cls-1" d="M6.11,389.26l3.06-38.63-.48.74L5.61,390.08C5.76,389.79,6,389.53,6.11,389.26Z"/><path class="cls-1" d="M6.6,388.42,7.65,375.2l2-25.26c-.16.24-.33.46-.49.69L6.11,389.26C6.26,389,6.45,388.7,6.6,388.42Z"/><path class="cls-1" d="M7.1,387.58l3-38.31-.48.67-2,25.26L6.6,388.42C6.76,388.14,6.93,387.87,7.1,387.58Z"/><path class="cls-1" d="M10.63,348.57c-.17.23-.32.45-.48.69L7.1,387.58c.16-.28.33-.55.5-.82Z"/><path class="cls-1" d="M11.11,347.92l-.47.64-3,38.18.49-.82Z"/><path class="cls-1" d="M11.59,347.33c-.15.19-.33.39-.47.58l-3,38c.17-.27.33-.56.5-.84Z"/><path class="cls-1" d="M9.09,384.26l3-37.51-.48.58-3,37.75C8.76,384.81,8.91,384.51,9.09,384.26Z"/><path class="cls-1" d="M9.58,383.43l3-37.25c-.16.18-.32.37-.47.57l-3,37.51C9.26,384,9.4,383.7,9.58,383.43Z"/><path class="cls-1" d="M10.06,382.76l3-37.17-.48.59-3,37.25Z"/><path class="cls-1" d="M10.54,382.17l2.94-37.12c-.16.17-.31.36-.46.54l-3,37.17C10.21,382.55,10.38,382.37,10.54,382.17Z"/><path class="cls-1" d="M11,381.59l2.94-37c-.15.17-.32.32-.47.51l-2.94,37.12C10.68,382,10.86,381.8,11,381.59Z"/><path class="cls-1" d="M11.49,381,14.42,344l-.47.5-2.94,37C11.17,381.38,11.34,381.2,11.49,381Z"/><path class="cls-1" d="M14.9,343.54c-.16.16-.31.32-.47.5L11.49,381l.48-.57Z"/><path class="cls-1" d="M14.9,343.54,12,380.41c.16-.19.32-.37.48-.58L15.36,343C15.2,343.2,15.06,343.36,14.9,343.54Z"/><path class="cls-1" d="M15.36,343l-2.91,36.79c.15-.19.3-.39.46-.58l2.92-36.71C15.67,342.7,15.52,342.86,15.36,343Z"/><path class="cls-1" d="M15.83,342.54l-2.92,36.71.47-.58,2.91-36.58C16.14,342.25,16,342.39,15.83,342.54Z"/><path class="cls-1" d="M16.29,342.09l-2.91,36.58c.17-.18.31-.39.48-.58l2.9-36.41Z"/><path class="cls-1" d="M16.76,341.68l-2.9,36.41c.17-.19.31-.41.49-.6l2.87-36.26C17.07,341.39,16.91,341.54,16.76,341.68Z"/><path class="cls-1" d="M17.22,341.23l-2.87,36.26c.16-.18.3-.4.47-.58l2.87-36.09Z"/><path class="cls-1" d="M18.16,340.37c-.16.15-.32.29-.47.45l-2.87,36.09c.15-.15.32-.28.47-.44Z"/><path class="cls-1" d="M18.62,339.94l-.46.43-2.87,36.1c.15-.16.31-.27.46-.43Z"/><path class="cls-1" d="M16.22,375.62l2.86-36.07c-.15.14-.31.27-.46.39L15.75,376C15.9,375.89,16.06,375.77,16.22,375.62Z"/><path class="cls-1" d="M19.54,339.18c-.15.14-.31.24-.46.37L16.22,375.6c.14-.14.3-.27.46-.41Z"/><path class="cls-1" d="M20,338.82c-.15.12-.31.23-.46.36l-2.86,36,.46-.43Z"/><path class="cls-1" d="M17.6,374.33l2.86-35.89-.46.38-2.86,35.94C17.29,374.6,17.45,374.47,17.6,374.33Z"/><path class="cls-1" d="M18.06,373.9l2.85-35.82-.45.36L17.6,374.33C17.76,374.19,17.91,374,18.06,373.9Z"/><path class="cls-1" d="M18.53,373.46l2.84-35.76-.46.38L18.06,373.9Z"/><path class="cls-1" d="M19,373l2.84-35.7c-.16.11-.3.24-.46.36l-2.84,35.76C18.69,373.33,18.83,373.17,19,373Z"/><path class="cls-1" d="M19.46,372.6,22.28,337c-.15.11-.31.22-.45.34L19,373C19.15,372.9,19.29,372.74,19.46,372.6Z"/><path class="cls-1" d="M22.75,336.68l-.45.31-2.84,35.6c.16-.13.31-.29.46-.42Z"/><path class="cls-1" d="M20.38,371.74l2.82-35.38c-.15.11-.31.21-.45.32l-2.83,35.49C20.08,372,20.22,371.88,20.38,371.74Z"/><path class="cls-1" d="M23.65,336l-.44.31-2.82,35.39.45-.37Z"/><path class="cls-1" d="M21.3,371.05l2.81-35.33-.46.32-2.81,35.33C21,371.25,21.15,371.16,21.3,371.05Z"/><path class="cls-1" d="M21.75,370.72l2.81-35.33-.45.33L21.3,371.05C21.45,370.93,21.61,370.84,21.75,370.72Z"/><path class="cls-1" d="M22.21,370.38,25,335.08l-.46.31-2.81,35.33Z"/><path class="cls-1" d="M22.66,370.07l2.81-35.31-.45.32-2.81,35.3Z"/><path class="cls-1" d="M23.13,369.73l2.79-35.25c-.14.09-.31.18-.45.28l-2.81,35.31C22.81,370,23,369.85,23.13,369.73Z"/><path class="cls-1" d="M26.37,334.2c-.14.1-.3.19-.44.28l-2.8,35.25.45-.31Z"/><path class="cls-1" d="M26.83,333.93l-.45.27-2.8,35.21.45-.32Z"/><path class="cls-1" d="M27.28,333.65l-.45.27L24,369.08l.44-.31Z"/><path class="cls-1" d="M27.73,333.39l-.44.26-2.8,35.12.45-.33Z"/><path class="cls-1" d="M25.4,368.12l2.78-35c-.15.08-.3.18-.45.28l-2.79,35.05C25.1,368.34,25.24,368.22,25.4,368.12Z"/><path class="cls-1" d="M26.31,367.45l2.77-34.9-.9.56-2.78,35C25.71,367.9,26,367.66,26.31,367.45Z"/><path class="cls-1" d="M26.76,367.13l2.77-34.83-.45.25-2.77,34.9C26.47,367.35,26.6,367.23,26.76,367.13Z"/><path class="cls-1" d="M27.22,366.85,30,332.05c-.15.09-.31.16-.45.25l-2.77,34.83Z"/><path class="cls-1" d="M28.12,366.34l2.75-34.75-.88.46-2.76,34.79C27.51,366.66,27.83,366.52,28.12,366.34Z"/><path class="cls-1" d="M29,365.84l2.77-34.72-.89.46-2.77,34.76C28.41,366.16,28.72,366,29,365.84Z"/><path class="cls-1" d="M29.46,365.59l2.76-34.7-.44.23L29,365.84Z"/><path class="cls-1" d="M30.37,365.08l2.75-34.68-.9.49-2.76,34.7C29.76,365.41,30.07,365.24,30.37,365.08Z"/><path class="cls-1" d="M31.26,364.57,34,330c-.3.15-.59.3-.89.43l-2.75,34.68Z"/><path class="cls-1" d="M34.46,329.77,34,330l-2.74,34.6.45-.24Z"/><path class="cls-1" d="M32.16,364.08l2.74-34.51-.44.2-2.74,34.56A4.91,4.91,0,0,1,32.16,364.08Z"/><path class="cls-1" d="M33.06,363.57l2.74-34.41-.88.41-2.75,34.5C32.47,363.91,32.76,363.72,33.06,363.57Z"/><path class="cls-1" d="M33.5,363.32,36.24,329l-.44.19-2.74,34.41C33.22,363.49,33.35,363.4,33.5,363.32Z"/><path class="cls-1" d="M34,363.08l2.73-34.31-.44.2L33.5,363.32Z"/><path class="cls-1" d="M34.85,362.69l2.73-34.32-.9.4L34,363.08C34.25,362.94,34.56,362.83,34.85,362.69Z"/><path class="cls-1" d="M35.3,362.49,38,328.16l-.44.21-2.73,34.32Z"/><path class="cls-1" d="M38.47,328l-.29.11-.15.07L35.3,362.49c.15-.08.3-.14.44-.2Z"/><path class="cls-1" d="M38.91,327.82l-.43.16-2.73,34.31.43-.2Z"/><path class="cls-1" d="M37.07,361.7l2.73-34.24c-.29.12-.6.22-.88.36l-2.73,34.27C36.48,362,36.77,361.83,37.07,361.7Z"/><path class="cls-1" d="M38,361.3l2.72-34.18-.88.34L37.07,361.7Z"/><path class="cls-1" d="M38.86,360.9l2.71-34.13-.89.35L38,361.3C38.26,361.18,38.56,361,38.86,360.9Z"/><path class="cls-1" d="M42,326.61c-.15,0-.29.11-.43.16L38.87,360.9l.43-.19Z"/><path class="cls-1" d="M42.46,326.44l-.44.15L39.31,360.7l.44-.19Z"/><path class="cls-1" d="M42.89,326.28a3.66,3.66,0,0,1-.43.15l-2.71,34.08.44-.2Z"/><path class="cls-1" d="M44.25,358.78l2.69-33.85c-1.36.43-2.71.89-4,1.35l-2.7,34C41.53,359.76,42.89,359.28,44.25,358.78Z"/><path class="cls-1" d="M46.07,358.13l2.68-33.76c-.6.19-1.21.36-1.81.56l-2.69,33.85Z"/><path class="cls-1" d="M47.89,357.49l2.67-33.65c-.61.16-1.21.35-1.81.53l-2.68,33.76C46.68,357.92,47.27,357.69,47.89,357.49Z"/><path class="cls-1" d="M50.57,323.84l-2.68,33.64,1.82-.59,2.67-33.55C51.77,323.5,51.17,323.65,50.57,323.84Z"/><path class="cls-1" d="M52.38,323.34l-2.67,33.55,1.82-.53,2.66-33.51Z"/><path class="cls-1" d="M54.19,322.85l-2.66,33.51,1.82-.52L56,322.4C55.4,322.55,54.79,322.69,54.19,322.85Z"/><path class="cls-1" d="M56,322.4l-2.66,33.44c.61-.18,1.2-.36,1.82-.53L57.81,322Z"/><path class="cls-1" d="M57.81,322l-2.64,33.34c.6-.17,1.19-.36,1.79-.52l2.65-33.24C59,321.69,58.41,321.82,57.81,322Z"/><path class="cls-1" d="M58.78,354.35l2.64-33.19q-.9.18-1.8.39L57,354.79C57.58,354.64,58.18,354.51,58.78,354.35Z"/><path class="cls-1" d="M60.59,353.91l2.63-33.14q-.9.18-1.8.39l-2.64,33.19Z"/><path class="cls-1" d="M62.41,353.48,65,320.4l-1.81.37-2.63,33.14Z"/><path class="cls-1" d="M64.21,353l2.62-33-1.8.36-2.62,33.08Z"/><path class="cls-1" d="M66,352.64l2.61-32.93-1.79.33-2.62,33Z"/><path class="cls-1" d="M70.43,319.37l-1.8.34L66,352.64l1.8-.38Z"/><path class="cls-1" d="M69.62,351.88,72.22,319l-1.79.33-2.62,32.89Z"/><path class="cls-1" d="M71.43,351.5,74,318.73l-1.81.31-2.6,32.84Z"/><path class="cls-1" d="M71.43,351.5l1.79-.37,2.6-32.71c-.6.09-1.2.21-1.79.31Z"/><path class="cls-1" d="M73.22,351.13l1.8-.34,2.6-32.67-1.8.3Z"/><path class="cls-1" d="M79.42,317.81l-1.8.31L75,350.79l1.79-.35Z"/><path class="cls-1" d="M81.22,317.51c-.6.1-1.2.21-1.8.3l-2.6,32.63,1.81-.36Z"/><path class="cls-1" d="M83,317.21l-1.79.3-2.59,32.57c.6-.1,1.2-.22,1.8-.33Z"/><path class="cls-1" d="M86.64,316.6l-3.63.61-2.58,32.54,3.64-.68Z"/><path class="cls-1" d="M88.48,316.29l-1.84.31-2.57,32.47,1.83-.34Z"/><path class="cls-1" d="M90.32,316l-1.84.31L85.9,348.73l1.84-.35Z"/><path class="cls-1" d="M87.75,348.38l1.83-.34,2.57-32.39-1.83.33Z"/><path class="cls-1" d="M89.58,348l1.84-.35L94,315.33l-1.84.32Z"/><path class="cls-1" d="M95.84,315l-1.85.35-2.57,32.36,1.85-.36Z"/><path class="cls-1" d="M97.66,314.63l-1.82.35-2.57,32.35c.6-.13,1.22-.25,1.83-.35Z"/><path class="cls-1" d="M99.5,314.26l-1.84.37L95.1,347c.6-.12,1.23-.23,1.83-.37Z"/><path class="cls-1" d="M99.51,314.26l-2.57,32.35c.62-.12,1.22-.27,1.84-.4l2.56-32.32Z"/><path class="cls-1" d="M98.78,346.21l1.83-.38,2.57-32.35c-.61.13-1.21.28-1.84.41Z"/><path class="cls-1" d="M105,313.06c-.61.15-1.23.28-1.85.41l-2.57,32.34,1.85-.39Z"/><path class="cls-1" d="M106.88,312.61c-.61.16-1.22.32-1.84.45l-2.57,32.36,1.84-.4Z"/><path class="cls-1" d="M108.73,312.16c-.61.16-1.23.31-1.85.45L104.31,345c.63-.15,1.22-.31,1.84-.47Z"/><path class="cls-1" d="M110.58,311.65l-1.85.51-2.58,32.39c.63-.14,1.23-.32,1.85-.47Z"/><path class="cls-1" d="M112.43,311.13l-1.85.52L108,344.08l1.85-.47Z"/><path class="cls-1" d="M114.28,310.56c-.61.19-1.23.39-1.85.57l-2.58,32.48c.55-.16,1.14-.28,1.69-.44l.16,0Z"/><path class="cls-1" d="M118,309.29c-1.22.44-2.46.87-3.72,1.27l-2.58,32.57c1.29-.37,2.5-.77,3.72-1.18Z"/><path class="cls-1" d="M121.74,307.84c-1.23.52-2.47,1-3.74,1.45L115.42,342c1.28-.43,2.51-.88,3.71-1.36Z"/><path class="cls-1" d="M123.61,307.05c-.61.27-1.25.53-1.87.79l-2.6,32.74c.62-.24,1.27-.46,1.87-.72Z"/><path class="cls-1" d="M125.51,306.11c-.63.32-1.26.65-1.9.94L121,339.86c.65-.28,1.25-.59,1.89-.88Z"/><path class="cls-1" d="M125.51,306.11,122.9,339c1.3-.61,2.56-1.24,3.76-1.89l2.62-33C128.06,304.8,126.8,305.47,125.51,306.11Z"/><path class="cls-1" d="M141.82,293.14a43.82,43.82,0,0,1-12.53,10.93l-2.63,33a50.27,50.27,0,0,0,12.59-9.57L142,293.33l0-.44Z"/><path class="cls-1" d="M149.68,276.62A45.33,45.33,0,0,1,142,292.86l0,.49-2.72,34.15c10.18-10.75,12.68-23.88,12.66-34.11A61.71,61.71,0,0,0,149.68,276.62Z"/><path class="cls-1" d="M23.17,64.65C9.08,77.82,5.94,94.08,6,105.93a66.78,66.78,0,0,0,1.15,12.34C7.56,120.64,8,122,8,122l.06-.13a59.09,59.09,0,0,1,8.74-16.66c1-1.3,2-2.57,3.07-3.77Z"/><path class="cls-1" d="M24.38,63.53c-.42.37-.8.74-1.21,1.12l-3.33,36.81c.42-.46.8-1,1.23-1.43Z"/><path class="cls-1" d="M21.08,100c.38-.4.81-.74,1.2-1.12l3.3-36.39c-.4.34-.81.66-1.19,1Z"/><path class="cls-1" d="M26.78,61.55c-.41.32-.81.65-1.19,1L22.29,98.9c.38-.38.8-.73,1.2-1.12Z"/><path class="cls-1" d="M23.49,97.78c.4-.37.8-.76,1.21-1.12L28,60.58c-.42.32-.79.64-1.19,1Z"/><path class="cls-1" d="M24.7,96.66c.42-.37.79-.78,1.22-1.13l3.25-35.78c-.39.29-.81.55-1.19.83Z"/><path class="cls-1" d="M25.92,95.53c.39-.33.79-.67,1.2-1l3.22-35.62c-.4.27-.79.56-1.17.83Z"/><path class="cls-1" d="M27.13,94.53c.38-.3.79-.54,1.17-.84L31.53,58.1c-.41.26-.78.54-1.17.81Z"/><path class="cls-1" d="M32.7,57.39c-.38.23-.79.45-1.17.71L28.31,93.69c.38-.29.78-.57,1.18-.84Z"/><path class="cls-1" d="M29.49,92.84,30.67,92l3.21-35.32c-.39.23-.79.47-1.17.72Z"/><path class="cls-1" d="M30.67,92c.41-.28.79-.58,1.2-.86l3.19-35.19c-.41.24-.78.49-1.18.73Z"/><path class="cls-1" d="M31.87,91.13c.4-.26.78-.57,1.18-.82l3.18-35-1.17.63Z"/><path class="cls-1" d="M37.39,54.7c-.39.21-.78.39-1.15.61l-3.18,35c.37-.24.77-.42,1.15-.65Z"/><path class="cls-1" d="M34.23,89.65c.37-.23.77-.43,1.15-.65l3.17-34.91-1.15.6Z"/><path class="cls-1" d="M35.39,89l1.16-.66,3.17-34.85c-.4.19-.77.4-1.16.6Z"/><path class="cls-1" d="M36.55,88.34c.4-.21.78-.44,1.19-.66L40.89,53c-.39.18-.8.35-1.17.53Z"/><path class="cls-1" d="M37.74,87.68c.39-.2.76-.44,1.16-.64L42,52.44,40.89,53Z"/><path class="cls-1" d="M43.19,51.93,42,52.44,38.91,87c.39-.2.76-.42,1.15-.62Z"/><path class="cls-1" d="M40.07,86.41c.37-.19.77-.33,1.15-.51l3.12-34.48-.19.08-.95.42Z"/><path class="cls-1" d="M41.22,85.89l1.16-.51L45.5,51c-.38.15-.77.28-1.15.44Z"/><path class="cls-1" d="M42.38,85.38l1.15-.51,3.12-34.35c-.39.14-.77.29-1.15.45Z"/><path class="cls-1" d="M43.53,84.87l1.16-.52L47.8,50.06l-1.15.46Z"/><path class="cls-1" d="M49,49.66l-1.14.4L44.69,84.35c.39-.16.76-.35,1.15-.51Z"/><path class="cls-1" d="M45.85,83.84c.39-.16.75-.35,1.14-.51l3.09-34.06L49,49.65Z"/><path class="cls-1" d="M47,83.33c.37-.16.77-.28,1.15-.43l3.08-34c-.38.12-.76.26-1.14.39Z"/><path class="cls-1" d="M48.15,82.9l1.15-.4,3.08-34-1.15.39Z"/><path class="cls-1" d="M49.3,82.5c.37-.15.76-.27,1.14-.41l3.08-33.95c-.38.11-.76.22-1.14.35Z"/><path class="cls-1" d="M51.58,81.68l3.07-33.89-1.12.35-3.08,34Z"/><path class="cls-1" d="M51.59,81.68l1.15-.41L55.8,47.44l-1.13.35Z"/><path class="cls-1" d="M52.74,81.27c.38-.13.75-.28,1.14-.41l3.06-33.74-1.14.32Z"/><path class="cls-1" d="M53.88,80.86,55,80.47l3-33.66-1.14.31Z"/><path class="cls-1" d="M55,80.47c.37-.12.76-.21,1.14-.33l3-33.64-1.14.31Z"/><path class="cls-1" d="M60.35,46.2l-1.12.3-3,33.64c.37-.12.74-.22,1.12-.33Z"/><path class="cls-1" d="M57.32,79.81c.37-.12.75-.23,1.12-.33l3-33.57-1.11.28Z"/><path class="cls-1" d="M59.58,79.14l3.05-33.49-1.13.26-3,33.57Z"/><path class="cls-1" d="M60.73,78.82l3-33.45-1.13.28L59.58,79.14Z"/><path class="cls-1" d="M61.87,78.48l3-33.38c-.38.08-.76.18-1.14.27l-3,33.45C61.11,78.71,61.48,78.58,61.87,78.48Z"/><path class="cls-1" d="M64.9,45.1l-3,33.38L63,78.17l3-33.32Z"/><path class="cls-1" d="M64.13,77.89l3-33.28L66,44.85,63,78.16C63.38,78.07,63.76,78,64.13,77.89Z"/><path class="cls-1" d="M65.27,77.61l3-33.25-1.13.24-3,33.29Z"/><path class="cls-1" d="M66.41,77.35l3-33.23-1.13.24-3,33.25Z"/><path class="cls-1" d="M67.54,77.06l3-33.16-1.13.22-3,33.23Z"/><path class="cls-1" d="M70.57,43.89l-3,33.17,1.12-.27,3-33.12Z"/><path class="cls-1" d="M69.8,76.51l3-33.07-1.11.22-3,33.13Z"/><path class="cls-1" d="M70.94,76.25l3-33-1.13.21-3,33.07Z"/><path class="cls-1" d="M72.08,76l3-33-1.14.21-3,33C71.32,76.16,71.7,76.09,72.08,76Z"/><path class="cls-1" d="M73.21,75.77l3-33L75.08,43l-3,33Z"/><path class="cls-1" d="M76.21,42.8l-3,33,1.11-.22,3-32.94Z"/><path class="cls-1" d="M75.47,75.29l3-32.89-1.12.2-3,32.94Z"/><path class="cls-1" d="M76.6,75.06l3-32.86-1.12.2-3,32.89Z"/><path class="cls-1" d="M77.74,74.82l3-32.81-1.13.19-3,32.86Z"/><path class="cls-1" d="M78.87,74.58l3-32.77-1.13.2-3,32.81C78.12,74.74,78.49,74.65,78.87,74.58Z"/><path class="cls-1" d="M81.84,41.81l-3,32.76c.38-.07.75-.13,1.12-.21l3-32.74Z"/><path class="cls-1" d="M81.12,74.15l3-32.71L83,41.62,80,74.36Z"/><path class="cls-1" d="M82.25,73.93l3-32.68-1.13.19-3,32.71Z"/><path class="cls-1" d="M83.38,73.71l3-32.65-1.12.19-3,32.68Z"/><path class="cls-1" d="M84.51,73.5l3-32.63-1.13.19-3,32.65C83.76,73.65,84.13,73.57,84.51,73.5Z"/><path class="cls-1" d="M87.48,40.87l-3,32.63,1.11-.22,3-32.6Z"/><path class="cls-1" d="M86.77,73.07l3-32.58-1.12.19-3,32.6C86,73.21,86.39,73.13,86.77,73.07Z"/><path class="cls-1" d="M87.9,72.86,90.85,40.3c-.37.06-.75.13-1.13.18l-3,32.59Z"/><path class="cls-1" d="M89,72.65,92,40.1l-1.13.2L87.9,72.86Z"/><path class="cls-1" d="M90.16,72.44l3-32.52L92,40.1,89,72.65C89.41,72.57,89.78,72.5,90.16,72.44Z"/><path class="cls-1" d="M93.12,39.92l-3,32.52,1.12-.21,3-32.5Z"/><path class="cls-1" d="M92.4,72l2.95-32.47-1.11.19-2.95,32.5Z"/><path class="cls-1" d="M99.06,70.75,102,38.34c-2.19.42-4.4.81-6.64,1.2L92.41,72C94.65,71.61,96.86,71.17,99.06,70.75Z"/><path class="cls-1" d="M104.57,69.64l2.94-32.39q-2.72.57-5.51,1.09L99.06,70.75Q101.85,70.21,104.57,69.64Z"/><path class="cls-1" d="M110.11,68.46,113.05,36c-1.82.45-3.66.89-5.54,1.29l-2.94,32.39C106.44,69.26,108.3,68.87,110.11,68.46Z"/><path class="cls-1" d="M113.06,36l-3,32.49c1.89-.43,3.72-.92,5.54-1.4l2.95-32.59Q115.89,35.27,113.06,36Z"/><path class="cls-1" d="M115.65,67.05c.61-.17,1.26-.31,1.86-.47,1.29-.38,2.5-.78,3.71-1.18l3-32.79q-2.73,1-5.6,1.85Z"/><path class="cls-1" d="M124.2,32.61l-3,32.79c2-.65,3.83-1.33,5.59-2.08l3-33C128,31.16,126.12,31.91,124.2,32.61Z"/><path class="cls-1" d="M132.5,60.55l3-33.23a62.89,62.89,0,0,1-5.7,3l-3,33C128.85,62.46,130.71,61.52,132.5,60.55Z"/><path class="cls-1" d="M135.52,27.31l-3,33.23A59.18,59.18,0,0,0,138.23,57l3.05-33.78A47,47,0,0,1,135.52,27.31Z"/><path class="cls-1" d="M144.1,52.09l3.16-34.87a41.89,41.89,0,0,1-6,6L138.23,57A49,49,0,0,0,144.1,52.09Z"/><path class="cls-1" d="M147.26,17.22,144.1,52.09a44.94,44.94,0,0,0,6.08-7.43L153.69,6A42.67,42.67,0,0,1,147.26,17.22Z"/><path class="cls-1" d="M155.65,0a50.24,50.24,0,0,1-2,5.93l-3.51,38.73C163.34,24.48,155.65,0,155.65,0Z"/></g></g></g></svg>