<svg xmlns="http://www.w3.org/2000/svg" viewBox="0 0 3413.97 398.62"><defs><style>.cls-1{fill:#606060;}</style></defs><title>br_2</title><g id="Capa_2" data-name="Capa 2"><g id="Capa_3" data-name="Capa 3"><path class="cls-1" d="M48.44,312.84C50.46,367.33,0,381.46,0,381.46v16.15H375.41s44.4-10.09,44.4-48.44c0-46.42-26.21-58.53-58.53-58.53-62.57,0-71.65,58.53-108,60.55H201.83s-2-115,0-143.3h27.25c47.43,0,54.49,44.4,103.94,44.4,31.28,0,58.53-19.18,58.53-59.54,0-42.39-28.25-63.58-94.86-63.58H237.15a51.47,51.47,0,1,1,0-102.93c48.44,0,56.51,66.6,105,66.6C403.67,92.84,413.75,0,353.2,0H0V16.15S50.46,30.27,48.44,84.77C47.39,113.19,48.44,312.84,48.44,312.84Z"/><path class="cls-1" d="M724.57,397.61a143.3,143.3,0,0,0,143.3-143.3C867.87,197.79,843.65,113,773,111h-4a70.64,70.64,0,0,0-70.65,70.64c0,39,33.2,63.73,70.65,74.68,14.14,4.13,30.27,17.15,30.27,40.36,0,35.32-36.33,58.53-65.59,58.53A71.65,71.65,0,0,1,662,283.57V84.77c-2-54.5,48.43-68.62,48.43-68.62V0H474.3V16.15s50.46,14.12,48.44,68.62c-1,28.42,0,228.07,0,228.07,2,54.49-48.44,68.62-48.44,68.62v16.15Z"/><path class="cls-1" d="M2594.54,313.85c2,54.49-48.44,68.62-48.44,68.62v16.15h375.4s44.4-10.1,44.4-48.44c0-46.42-26.2-58.53-58.53-58.53-62.56,0-71.65,58.53-108,60.54h-51.46s-2-115,0-143.3h27.24c47.43,0,54.5,44.41,103.95,44.41,31.28,0,58.53-19.18,58.53-59.54,0-42.39-28.26-63.58-94.86-63.58h-59.54a51.47,51.47,0,1,1,0-102.93c48.44,0,56.51,66.6,104.95,66.6,61.57,0,71.65-92.84,11.1-92.84H2546.1V17.16s50.45,14.12,48.44,68.62C2593.48,114.2,2594.54,313.85,2594.54,313.85Z"/><path class="cls-1" d="M3270.67,398.62A143.3,143.3,0,0,0,3414,255.32c0-56.52-24.22-141.29-94.86-143.3h-4a70.64,70.64,0,0,0-70.64,70.64c0,39,33.19,63.73,70.64,74.67,14.15,4.14,30.28,17.16,30.28,40.37,0,35.32-36.33,58.53-65.6,58.53a71.65,71.65,0,0,1-71.65-71.65V85.78c-2-54.5,48.44-68.62,48.44-68.62V1H3020.4V17.16s50.46,14.12,48.44,68.62c-1.05,28.42,0,228.07,0,228.07,2,54.49-48.44,68.62-48.44,68.62v16.15Z"/><path class="cls-1" d="M1631,304l-1.24-1.5a34.05,34.05,0,0,0-48-4.55c-12.4,10.25-13.46,26.31-8.85,41.56.25.85.31,8.69-5.74,10.71-7.9,2.63-11.69-3.23-11.69-3.23l-69-147.14a99.91,99.91,0,1,0,0-199.81L1201.9,1V17.16s50.46,14.12,48.44,68.62c-1,28.42,0,228.07,0,228.07,2,54.49-48.44,68.62-48.44,68.62v16.15h207.89V382.47s-50.46-14.13-48.44-68.62V240.18h45.41L1454.3,341l27.14,57.58h87.8c.85,0,3.42-.24,3.42-.24a68.85,68.85,0,0,0,34.22-15.15C1627.88,365.87,1652,330.84,1631,304ZM1410.29,174.58h-48.94V25.23h48.94a74.68,74.68,0,1,1,0,149.35Z"/><path class="cls-1" d="M1995.1,1h-226V17.16s43.11,15.17,32.29,68.62c-2.13,10.52-7.19,32.94-13.66,60.54a49.38,49.38,0,0,0-23.33-22,55.47,55.47,0,0,0-73.53,27.32l-1.32,2.89c-21.19,50,28.68,94.12,68.63,113.32-4.42,17.41-8.62,33.54-12.29,47-14.35,52.61-67.62,67.61-67.62,67.61v16.15h186.7V382.47s-28.26,1-28.26-79.72h83.76c0,80.73-32.29,79.72-32.29,79.72v16.15h225V382.47C2024.36,381.46,1995.1,1,1995.1,1ZM1856.5,202.18l20.12-92.8L1913,109c7.13,42.37,15.83,92.24,17.41,98.89C1931.45,209.48,1922.53,199.61,1856.5,202.18Z"/><path class="cls-1" d="M2442.15,30.27c13.44-19.64,46.42-14.12,46.42-14.12V0H2311V16.15s80.74-6.06,66.61,42.38c-8.08,22.2-44.4,96.88-44.4,96.88H2315c-29.38-50.1-46.12-77.8-56.29-96.42-18.73-34.28,28-42.84,28-42.84V0h-218V16.15c34.31,2,58.75,42.84,58.75,42.84l100.69,169.08c-1.05,28.42,0,84.77,0,84.77,2,54.49-48.44,68.62-48.44,68.62v16.15h221V381.46s-50.46-14.13-48.44-68.62V224S2438,36.42,2442.15,30.27Z"/></g></g></svg>