<svg xmlns="http://www.w3.org/2000/svg" viewBox="0 0 272.31 272.31"><defs><style>.cls-1{fill:#fff;}</style></defs><title>instagram</title><g id="Capa_2" data-name="Capa 2"><g id="Capa_4" data-name="Capa 4"><path class="cls-1" d="M206.45,136.64c-.15,38.87-31.18,69.47-70.3,69.32-38.88-.15-69.47-31.17-69.32-70.29C67,96.79,98,66.19,137.12,66.34,176,66.49,206.6,97.52,206.45,136.64Zm-31.3-.5a38.76,38.76,0,0,0-38.27-38.49c-21-.26-38.77,17.37-38.76,38.52a38.75,38.75,0,0,0,38.27,38.48C157.43,174.91,175.17,157.28,175.15,136.14Z"/><path class="cls-1" d="M193.38,62.49c.56-9,8.58-16.28,17.2-15.57s15.79,8.5,15.44,16.84a16.6,16.6,0,0,1-17,15.78A16.2,16.2,0,0,1,193.38,62.49Z"/><path class="cls-1" d="M197.16,31.15a44.05,44.05,0,0,1,44,44v122a44.05,44.05,0,0,1-44,44h-122a44.05,44.05,0,0,1-44-44v-122a44.05,44.05,0,0,1,44-44h122M201.41,0H70.9A70.9,70.9,0,0,0,0,70.9V201.41a70.9,70.9,0,0,0,70.9,70.9H201.41a70.9,70.9,0,0,0,70.9-70.9V70.9A70.9,70.9,0,0,0,201.41,0Z"/></g></g></svg>