<svg xmlns="http://www.w3.org/2000/svg" viewBox="0 0 376.97 272.31"><defs><style>.cls-1{fill:#fff;}</style></defs><title>youtube</title><g id="Capa_2" data-name="Capa 2"><g id="Capa_3" data-name="Capa 3"><polygon class="cls-1" points="151.49 194.06 151.49 81.1 249.32 137.58 151.49 194.06"/><path class="cls-1" d="M369.2,48.56A57.82,57.82,0,0,0,328.42,7.77C300.24.23,199.84,0,188.48,0S76.73.23,48.55,7.77A57.79,57.79,0,0,0,7.77,48.56C.09,77.22,0,133.76,0,136.15s.09,58.95,7.77,87.6a57.73,57.73,0,0,0,40.78,40.79c28.18,7.54,128.58,7.77,139.93,7.77s111.76-.23,139.93-7.77a57.77,57.77,0,0,0,40.79-40.78c7.68-28.66,7.77-85.21,7.77-87.61S376.88,77.22,369.2,48.56Zm-33,164.87a28.43,28.43,0,0,1-20.1,20.09c-20.06,5.38-98.91,6.55-127.6,6.55S81,238.9,60.88,233.52a28.43,28.43,0,0,1-20.09-20.1c-6.47-24.14-6.55-76.74-6.55-77.27,0-14.68,1.17-57.2,6.55-77.26a28.46,28.46,0,0,1,20.1-20.1c20.06-5.37,98.9-6.55,127.59-6.55S296,33.4,316.08,38.79a28.46,28.46,0,0,1,20.1,20.1h0c6.46,24.13,6.55,76.73,6.55,77.25S342.64,189.28,336.18,213.43Z"/></g></g></svg>