<svg xmlns="http://www.w3.org/2000/svg" viewBox="0 0 1073.67 392.24"><defs><style>.cls-1{fill:#606060;}</style></defs><title>santar</title><g id="Capa_2" data-name="Capa 2"><g id="Capa_2-2" data-name="Capa 2"><path class="cls-1" d="M389.53,70.41c0,.76-.22,1.25-.87,1.25-2.05,0-2.68-12.34-15-12.34-13.28,0-19.84,13.88-19.84,28.34a36.72,36.72,0,0,0,4.89,18.9c3.64,6.06,8.54,10.21,14.95,10.21,12.27,0,13.22-15.13,15.34-15.13.65,0,.95.58.88,1.25l-.4,7.81c-.14,3-.07,3.19-2.53,4.64a27.41,27.41,0,0,1-14.31,4c-14.4,0-25.87-14.57-25.87-31.64,0-17.83,13-31.12,27.45-31.12a37.74,37.74,0,0,1,12.5,2.6c2.28,1,2,2.22,2.21,4.91Z"/><path class="cls-1" d="M395.63,96.63A24.35,24.35,0,0,1,401,81.1a19,19,0,0,1,27.69-.86c3.87,4,6.17,10.22,6.17,16.39,0,13.21-9,22.76-19.63,22.76S395.63,109.84,395.63,96.63Zm33.23.67c0-9.73-4.52-20.82-13.71-20.82-8.69,0-13.58,9.84-13.58,19.67,0,9.55,5,21.39,13.91,21.39C424,117.54,428.86,106.45,428.86,97.3Z"/><path class="cls-1" d="M450.13,108.39c0,4.14-.71,7.4,3.55,7.9.79.09,2.22,0,2.22,1.25,0,.76-.39,1.06-.94,1.06-2.54,0-5.06-.39-7.44-.39-2.54,0-5.07.39-7.53.39-.54,0-1.1-.18-1.1-1,0-1.46,1.35-1.26,2.22-1.35,4.28-.5,3.55-3.76,3.55-7.9V64.53c0-3.56.73-7.81-3.08-7.81-.7,0-2.05.29-2.05-1,0-.67.63-1,1.11-1.06a18.4,18.4,0,0,0,7.12-3c.38-.37,1.1-1.05,1.66-1.05.79,0,.71.77.71,1.53Z"/><path class="cls-1" d="M469.59,92c-2.46,0-3.25-.2-3.25,3,0,10.78,5.77,20.12,15.34,20.12,7.77,0,10.69-6.26,11.71-6.26a.7.7,0,0,1,.64.76c0,1.16-2.53,3.78-3.09,4.35a16.16,16.16,0,0,1-12.5,5.41c-10.35,0-18-10.14-18-22.18,0-6.56,1.52-11.66,5.7-16.11a19.2,19.2,0,0,1,14.25-6.45,13.44,13.44,0,0,1,11.39,6,20.08,20.08,0,0,1,2.76,9.73c0,.78-.15,1.65-.94,1.65Zm6.48-2.32c2.45,0,6.89-.09,9.18-.75a3.6,3.6,0,0,0,2.91-3.86,10.09,10.09,0,0,0-2-5.69,8.45,8.45,0,0,0-6.89-3c-4,0-7.91,2.4-10.29,6.47a14.19,14.19,0,0,0-2,5.59c0,1.54,1.8,1.23,2.68,1.23Z"/><path class="cls-1" d="M534.3,78.23c2,0,2.61-.39,2.76,2.12,0,.36.16,1.24-.15,1.54-.49.38-2.61.18-2.93.18s-3.24-.48-3.24.79a5.43,5.43,0,0,0,.56,1.63,15.68,15.68,0,0,1,1,6.05A16.14,16.14,0,0,1,528.37,101c-3.11,3.39-7.28,4.36-11.33,4.54-2.69.21-3.55.21-6,1.45-.93.48-2.45,1.06-2.45,2.6,0,2.32,3.34,3.08,4.75,3.08h8.55c3.32,0,6.25-.09,9.34,1.75a9.86,9.86,0,0,1,5.2,8.46c0,12.54-13.39,17.07-21.58,17.07a21,21,0,0,1-10.45-2.5c-2.68-1.46-5.37-4.34-5.37-8.1s2.05-5.59,4.34-7.13l2.23-1.54c.38-.38,2.66-1.63,2.66-2.51s-1.17-1.94-1.56-2.42c-.72-.67-4.44-4.42-4.44-5.59a.86.86,0,0,1,.8-1c1.12-.46,8.06-3.44,8.06-4.41,0-1.35-8.62-4.52-8.62-14.47A15.21,15.21,0,0,1,517.6,74.65a14.19,14.19,0,0,1,8,2.31c2.21,1.37,2.31,1.27,4.77,1.27Zm-23.12,40.46c-2.83,2.11-6.48,4.84-6.48,9.36a9.52,9.52,0,0,0,3.71,7.41A13,13,0,0,0,516.5,138c5.38,0,14.87-2.7,14.87-11.08,0-6.84-5.87-8.21-10.2-8.21Zm15.2-28.91c0-5.88-3-13.39-8.62-13.39-6,0-9.35,6.74-9.35,13.49,0,6.27,2.77,13.78,8.72,13.78C523.53,103.66,526.38,96.81,526.38,89.78Z"/><path class="cls-1" d="M552,108.39c0,4.14-.72,7.4,3.55,7.9.79.09,2.21,0,2.21,1.25,0,.76-.4,1.06-.94,1.06-2.54,0-5.05-.39-7.45-.39s-5,.39-7.51.39c-.54,0-1.11-.18-1.11-1,0-1.46,1.34-1.26,2.22-1.35,4.28-.5,3.55-3.76,3.55-7.9V90.26c0-1.33.09-5.11-.79-6.17a3,3,0,0,0-2.29-.76h-1c-.48,0-1-.2-1-.78,0-1.14,1.11-1.35,1.84-1.62a17.8,17.8,0,0,0,6.55-5c.4-.49.8-1.26,1.43-1.26.78,0,.72.86.72,1.54Zm-6.18-46.75c0-2.51,1.43-4.83,3.55-4.83s3.33,2.32,3.33,4.64c0,2.6-1.19,4.82-3.48,4.82S545.84,64.14,545.84,61.64Z"/><path class="cls-1" d="M561.75,96.63a24.35,24.35,0,0,1,5.37-15.53,18,18,0,0,1,14.23-6.45,18.24,18.24,0,0,1,13.47,5.59c3.87,4,6.16,10.22,6.16,16.39,0,13.21-9,22.76-19.63,22.76S561.75,109.84,561.75,96.63Zm33.2.67c0-9.73-4.5-20.82-13.68-20.82-8.7,0-13.6,9.84-13.6,19.67,0,9.55,5,21.39,13.92,21.39C590.14,117.54,595,106.45,595,97.3Z"/><path class="cls-1" d="M368.85,205.52c-11.5-6.13-22.83-14-22.83-31.07,0-20.16,15-32.44,30.4-32.44,6.14,0,15.28,1.35,21.1,4.23,3,1.34,2.68,3.64,2.84,7.1.15,5,.47,10,.63,15,0,1.36-.63,2.31-1.73,2.31-1.74,0-2.05-3.07-2.52-4.41-3.45-13.25-8.19-20.35-20.49-20.35-10.39,0-20.31,6.52-20.31,20.55,0,16.49,17.34,23.2,27.56,28.58,5.21,2.87,11.82,6.9,15.6,11.9a39.48,39.48,0,0,1,7.56,22.84,38.74,38.74,0,0,1-11,27.23c-7.09,7.1-16.07,10-25.2,10-7.72,0-17.18-2.69-23.8-7.48-2.67-2.12-2.19-7.29-2.19-10.76,0-5,0-9.79.48-14.77.15-1.54.61-3.84,2.36-3.84,2,0,2,4.8,2.21,6.34,1.57,16.5,8.8,26.87,23.14,26.87,11.82,0,23.46-9.79,23.46-25,0-15.36-8.51-22.84-19.21-28.59Z"/><path class="cls-1" d="M450.29,218c5.66-3.27,5.82-3.46,5.82-10.75v-8.44c0-9.41-.31-17.29-10.09-17.29-9.59,0-14.47,6.35-18.11,16.14-1.09,2.87-1.88,5.55-4.41,6.91-1.56.94-4.88,2.48-6.76,2.48-1.27,0-2.05-.37-2.05-2.29,0-5,3.62-10.56,6.62-13.63,7.4-8.06,18.11-13.23,28.19-13.23,4.88,0,10.71.94,14.33,5,3.77,3.84,3.14,8.82,3.14,14v45.28c0,4.23-.15,15.34,5.52,15.34,3.93,0,5.67-4.76,7.08-4.76.63,0,1.11.75,1.11,1.5,0,2.12-2.67,4.81-3.79,6-3.13,2.67-7.08,5.56-11.18,5.56-7.71,0-8.49-13.43-10.71-13.43-1.4,0-11.64,14.58-25.36,14.58a14.69,14.69,0,0,1-14.8-15.17c0-13.61,14.65-21.68,23.31-26.87ZM439,228.76c-6.15,3.84-12.3,8.83-12.3,18,0,7.46,5.05,11.3,10.89,11.3,5.5,0,10.84-3.05,14.63-7.66,3.78-4.81,3.94-8.06,3.94-14.4V224.53c0-.77.47-5.37-1.11-5.37-.47,0-1.25.57-1.73.76Z"/><path class="cls-1" d="M495.81,209c0-2.71.16-10.18-1.58-12.3-.94-1.32-3.32-1.53-4.57-1.53h-2.05c-.94,0-1.89-.37-1.89-1.54,0-2.31,2.19-2.67,3.63-3.26,3.77-1.34,10.55-6.33,13.06-10,.8-.95,1.58-2.48,2.85-2.48,1.57,0,1.41,1.72,1.41,3.05v12.67c2.68,0,11.49-15.72,25.84-15.72,7.86,0,14.16,3.44,18.57,10.36,5,7.86,4.73,17.25,4.73,26.47v30.32c0,8.26-1.41,14.79,7.08,15.73,1.58.21,4.42,0,4.42,2.51,0,1.52-.79,2.11-1.89,2.11-5,0-10.08-.79-14.81-.79-5,0-10.08.79-15,.79-1.1,0-2.18-.39-2.18-1.93,0-2.87,2.67-2.48,4.4-2.69,8.51-.94,7.08-7.47,7.08-15.73V214.55c0-6.14,0-13.82-2.83-19a16.5,16.5,0,0,0-14.81-8.65c-6,0-11.49,3.08-15.59,8.26-4.57,5.76-5,10-5,17.66v32.23c0,8.26-1.41,14.79,7.08,15.73,1.58.21,4.41,0,4.41,2.51,0,1.52-.78,2.11-1.89,2.11-5,0-10.06-.79-14.81-.79-5,0-10.07.79-14.95.79-1.11,0-2.2-.39-2.2-1.93,0-2.87,2.68-2.48,4.41-2.69,8.5-.94,7.09-7.47,7.09-15.73Z"/><path class="cls-1" d="M636.13,244.68c0,12.27-.62,15.93,10.23,15.93,1.43,0,4.1-.2,4.1,2.29,0,2.12-1.26,2.51-2.67,2.51-6,0-11.66-.79-17.65-.79s-12,.79-17.94.79c-1.42,0-2.68-.39-2.68-2.51,0-2.49,2.5-2.29,3.93-2.29,11,0,10.24-3.84,10.24-15.93V155.84c0-6.91-2.05-5.58-6.93-5.58-14.34,0-20.16,1.72-27.72,17.09-.64,1.34-1.89,4.6-3.47,4.6-1.11,0-1.58-1-1.58-2.29a19.32,19.32,0,0,1,1-4.62l6.15-24.95c.31-1.33.63-2.67,2-2.67.94,0,1.42,1,1.42,2.11.16,1.73,0,2.87,1.26,4,2.05,2.12,5.36,1.54,7.87,1.54h57.17c4.1,0,8,.95,9.62-4.43.46-1.52.79-3.24,2.36-3.24,2.19,0,1.41,5.56,1.41,6.9l-.94,23.4c0,1.55-.16,3.27-1.88,3.27-1.11,0-1.43-1.53-1.73-2.69-1.11-4-2.22-9.4-4.59-13.06-3.47-5-7.87-5-12.74-5h-9.14c-7.09,0-7.09-.38-7.09,9.4Z"/><path class="cls-1" d="M708.28,218c5.67-3.27,5.83-3.46,5.83-10.75v-8.44c0-9.41-.33-17.29-10.07-17.29s-14.51,6.35-18.12,16.14c-1.11,2.87-1.9,5.55-4.41,6.91-1.58.94-4.88,2.48-6.78,2.48-1.25,0-2.05-.37-2.05-2.29,0-5,3.64-10.56,6.62-13.63,7.41-8.06,18.11-13.23,28.19-13.23,4.89,0,10.71.94,14.34,5,3.77,3.84,3.15,8.82,3.15,14v45.28c0,4.23-.15,15.34,5.51,15.34,3.94,0,5.66-4.76,7.07-4.76.64,0,1.12.75,1.12,1.5,0,2.12-2.68,4.81-3.77,6-3.17,2.67-7.11,5.56-11.2,5.56-7.71,0-8.5-13.43-10.69-13.43-1.44,0-11.66,14.58-25.37,14.58a14.7,14.7,0,0,1-14.8-15.17c0-13.61,14.65-21.68,23.29-26.87Zm-11.34,10.75c-6.15,3.84-12.28,8.83-12.28,18,0,7.46,5,11.3,10.86,11.3,5.52,0,10.87-3.05,14.65-7.66,3.78-4.81,3.94-8.06,3.94-14.4V224.53c0-.77.47-5.37-1.09-5.37-.48,0-1.27.57-1.75.76Z"/><path class="cls-1" d="M753.8,209c0-2.71.14-10.18-1.58-12.3-.94-1.32-3.3-1.53-4.56-1.53h-2c-1,0-1.89-.37-1.89-1.54,0-2.31,2.19-2.67,3.61-3.26,3.77-1.34,10.54-6.33,13.07-10,.79-.95,1.59-2.48,2.83-2.48,1.59,0,1.42,1.72,1.42,3.05v9.41c0,.77-.31,4,.8,4,1.58,0,7.72-15.35,18.57-15.35a8.81,8.81,0,0,1,9,9.22c0,4.79-2.81,7.66-6.61,7.66-5.33,0-5.65-7.29-10.07-7.29-3.48,0-6.14,4-8,6.92-3.78,6.52-3.63,11.5-3.63,19.18v30.32c0,8.26-1.42,14.79,7.09,15.73,1.56.21,4.43,0,4.43,2.51,0,1.52-.81,2.11-1.9,2.11-5,0-10.09-.79-14.82-.79-5,0-10.07.79-15,.79-1.11,0-2.21-.39-2.21-1.93,0-2.87,2.69-2.48,4.41-2.69,8.52-.94,7.1-7.47,7.1-15.73Z"/><path class="cls-1" d="M794.45,241.43c.14-1.55.3-4.24,2-4.24,5.68,0-.77,26.29,20.63,26.29,9.3,0,19.23-6.53,19.23-18.8,0-11.13-7.58-15.35-15.13-18.43-9.76-3.83-24.09-8.63-24.09-24.17a23.09,23.09,0,0,1,8.35-17.84c5.5-4.8,12-6.33,18.57-6.33,4.12,0,12.44,1.33,16.22,3.24,2.69,1.55,1.75,5.76,1.75,8.65,0,1.16,1.11,9.41-1.6,9.41-3.93,0-2.18-18.06-19.2-18.06-6.45,0-14.48,5.38-14.48,14.23,0,22.44,39.37,12.26,39.37,43.53,0,18.43-16.53,28-29.9,28-5.54,0-14.83-2.49-20-5.76-2.54-1.33-2.23-3.84-2.23-6.92Z"/><path class="cls-1" d="M874.6,245.06c0,8.26-1.42,14.79,7.09,15.73,1.55.21,4.42,0,4.42,2.51,0,1.52-.81,2.11-1.91,2.11-5,0-10.07-.79-14.8-.79-5,0-10.09.79-15,.79-1.08,0-2.2-.39-2.2-1.93,0-2.87,2.67-2.48,4.42-2.69,8.5-.94,7.08-7.47,7.08-15.73V209c0-2.71.17-10.18-1.58-12.3-.95-1.32-3.31-1.53-4.55-1.53h-2.05c-1,0-1.9-.37-1.9-1.54,0-2.31,2.21-2.67,3.61-3.26,3.8-1.34,10.56-6.33,13.07-10,.81-.95,1.6-2.48,2.85-2.48,1.57,0,1.42,1.72,1.42,3.05ZM862.32,152c0-5,2.83-9.58,7.08-9.58S876,147,876,151.62c0,5.17-2.35,9.59-6.9,9.59C864.85,161.21,862.32,157,862.32,152Z"/><path class="cls-1" d="M949.73,202.48c-5.05,0-7.89-21.13-20.63-21.13-5.52,0-11.83,3.65-15.92,7.87-7.24,7.68-11.34,19.39-11.34,31.1,0,19.56,11.84,39.53,29.45,39.53a23.22,23.22,0,0,0,18.12-8.46c.47-.57,1.57-2.29,2.34-2.29s1.12.75,1.12,1.54c0,1.9-3.62,5.74-4.72,6.88a31.85,31.85,0,0,1-22.83,9.42c-19.38,0-35.29-19.58-35.29-42.8,0-25.9,19.85-46.23,41-46.23,6,0,14.32,2.11,19.35,6.33,2,1.73,1.26,5.93,1.26,8.44C951.61,194.21,952.56,202.48,949.73,202.48Z"/><path class="cls-1" d="M980.12,245.06c0,8.26-1.41,14.79,7.08,15.73,1.59.21,4.41,0,4.41,2.51,0,1.52-.77,2.11-1.88,2.11-5.05,0-10.08-.79-14.81-.79-5,0-10.07.79-15,.79-1.1,0-2.21-.39-2.21-1.93,0-2.87,2.7-2.48,4.41-2.69,8.49-.94,7.08-7.47,7.08-15.73V209c0-2.71.17-10.18-1.55-12.3-1-1.32-3.34-1.53-4.58-1.53h-2.06c-.94,0-1.89-.37-1.89-1.54,0-2.31,2.22-2.67,3.65-3.26,3.77-1.34,10.54-6.33,13.07-10,.78-.95,1.57-2.48,2.83-2.48,1.56,0,1.41,1.72,1.41,3.05ZM967.83,152c0-5,2.82-9.58,7.09-9.58,4.1,0,6.62,4.61,6.62,9.22,0,5.17-2.36,9.59-6.94,9.59C970.35,161.21,967.83,157,967.83,152Z"/><path class="cls-1" d="M995.56,221.64c0-11.5,3.92-23,10.7-30.89,7.56-9,17.81-12.84,28.35-12.84,9.78,0,19.22,3.24,26.77,11.12,7.73,7.87,12.29,20.35,12.29,32.61,0,26.3-18,45.3-39.06,45.3C1013.35,266.94,995.56,247.94,995.56,221.64Zm66.15,1.35c0-19.37-9-41.46-27.27-41.46-17.32,0-27.09,19.58-27.09,39.16,0,19,9.94,42.61,27.74,42.61C1052.1,263.3,1061.71,241.22,1061.71,223Z"/><rect class="cls-1" x="344.42" y="290.41" width="729.26" height="6.47"/><path class="cls-1" d="M148.16,391.62l-1.39-7.32c0-.24-4.58-23.45-16.56-26.87s-23.08-6-47.94-5.54c-22.27.43-44.83-.42-59-9.53-10.16-6.54-17.13-15.19-20.16-25A103.45,103.45,0,0,1,.29,305.49l0-.24L0,20.09l2,.65c.58.19,58.43,18.92,100.7,3.46,23.9-8.71,46-23.43,46.2-23.58L149.8,0l.86.71c.3.25,30.81,24.92,71.76,29,34.77,3.44,73-8.66,73.36-8.78l2-.63V299.67c0,.79.35,20.29-12.51,33.61-12.42,12.89-22.7,14.31-41.36,16.89l-2.3.32c-12.92,1.79-25.22,1.88-36.07,1.95-5.74,0-11.16.08-15.8.39l-2.48.16c-10.79.67-19.31,1.2-26.29,7.36-7.45,6.59-11.18,23.81-11.22,24ZM88.07,348.83c21.26,0,31.75,2.49,43,5.71,9.75,2.79,15,15.78,17.24,23.47,1.82-6,5.31-15.17,10.67-19.9,7.75-6.85,16.72-7.41,28.08-8.12l2.47-.16c4.73-.31,10.19-.34,16-.39,10.76-.07,23-.16,35.67-1.92l2.31-.32c18.58-2.57,27.91-3.86,39.61-16,12-12.4,11.67-31.31,11.67-31.49V24.37c-8.33,2.43-41.76,11.39-72.61,8.32-38-3.78-67.16-24.89-72.5-29C145.18,6.59,125.18,19.19,103.7,27,64.92,41.2,13.63,27.35,3,24.19l.27,280.93A102.62,102.62,0,0,0,6,316.45c2.86,9.28,9.22,17.15,18.92,23.39,13.51,8.69,36.56,9.46,57.31,9.05Q85.27,348.83,88.07,348.83Z"/><path class="cls-1" d="M227.54,292.82c-.89,0-1.51-.05-1.72-.07H72.48c-.33,0-9.81.48-14.86-3.94s-4.56-13.14-4.53-13.51V94.1h194.1V274.82c0,.43-.62,8.74-6.25,13.74C236.72,292.31,230.56,292.82,227.54,292.82Zm-1.66-2.71H226c.09,0,8.4.72,13.18-3.54s5.37-11.77,5.37-11.85v-178H55.73V275.4c0,.18-.51,7.8,3.63,11.42s13,3.3,13,3.29Z"/><rect class="cls-1" x="146.83" y="94.93" width="2.91" height="197.06"/><rect class="cls-1" x="149.16" y="194.75" width="97" height="2.12"/><path class="cls-1" d="M33.58,138.11c2.92-.13,3.85-2.55,3.85-4.68,0-1.6-.45-4.31-3.31-4.31-1.61,0-2.14,1.13-2.39,2.23l-1.24,5.39c-.59,2.45-2,4.29-5,4.29-4.46,0-5.69-4.15-5.69-7.39,0-3.49,1-4.86,1.81-5.7A5.82,5.82,0,0,1,26.34,126v2.39c-3.42,0-4.41,2.78-4.41,5.2,0,1.84.47,4.94,3.18,4.94,2,0,2.59-.91,3.33-4l.89-3.86c.3-1.23,1.16-4,4.44-4,2.95,0,5.83,1.91,5.83,6.49,0,6.59-3.93,7.24-6,7.35Z"/><path class="cls-1" d="M29.68,159.05c-4.44,0-7.68-2.48-7.68-6.57s3.24-6.57,7.68-6.57,7.67,2.47,7.67,6.57S34.12,159.05,29.68,159.05Zm0,2.62c4.07,0,9.92-2.15,9.92-9.19s-5.85-9.19-9.92-9.19-9.93,2.14-9.93,9.19S25.6,161.67,29.68,161.67Z"/><path class="cls-1" d="M22.51,167.24v9.57H20.25V164.7H39.11v2.54Z"/><path class="cls-1" d="M20.25,182.24v-2.55H39.11v2.55Z"/><path class="cls-1" d="M36.92,196.4v4.75c0,3.47-2.38,5.65-7.13,5.65s-7.37-2.16-7.37-5.46V196.4Zm-16.67-2.55v7.54c0,6.2,5.45,8,9.68,8,5.44,0,9.18-3,9.18-7.94v-7.64Z"/><path class="cls-1" d="M20.25,226.87V213H39.11v13.74H36.84V215.5H31.07v10.32H28.81V215.5h-6.3v11.37Z"/><path class="cls-1" d="M29.68,245c-4.44,0-7.68-2.47-7.68-6.57s3.24-6.57,7.68-6.57,7.67,2.47,7.67,6.57S34.12,245,29.68,245Zm0,2.63c4.07,0,9.92-2.16,9.92-9.2s-5.85-9.19-9.92-9.19-9.93,2.15-9.93,9.19S25.6,247.63,29.68,247.63Z"/><path class="cls-1" d="M276.51,242v13.92H257.64V242.19h2.26v11.19h5.78V243.06h2.26v10.32h6.31V242Z"/><path class="cls-1" d="M257.64,240.3V225h2.26v6.38h16.61v2.55H259.9v6.38Z"/><path class="cls-1" d="M266.42,207.09v-8.28h10.09v1.66l-2.44.6A7.72,7.72,0,0,1,277,207.3a7.63,7.63,0,0,1-2.12,5.79,10.09,10.09,0,0,1-8,3c-4.6,0-9.77-2.78-9.77-8.93,0-3.52,2-7.44,6.22-8v2.47c-3.27.81-4,3.56-4,5.64,0,3.39,2.7,6.17,7.63,6.17,3.85,0,7.78-1.26,7.78-6.27a6,6,0,0,0-1.2-3.87,5.81,5.81,0,0,0-5-2.07v5.88Z"/><path class="cls-1" d="M274.25,192.33v-9.56h2.26v12.11H257.64v-2.55Z"/><path class="cls-1" d="M267.08,165.48c4.43,0,7.67,2.47,7.67,6.57s-3.24,6.56-7.67,6.56-7.67-2.46-7.67-6.56S262.64,165.48,267.08,165.48Zm0-2.63c-4.07,0-9.93,2.16-9.93,9.2s5.86,9.19,9.93,9.19,9.92-2.15,9.92-9.19S271.15,162.85,267.08,162.85Z"/><path class="cls-1" d="M259.82,157v-6.35c0-1.27.23-3.4,3.16-3.4,2.78,0,3.25,2,3.25,3.85V157Zm8.6,0V150.8c0-3.05,1.81-3.37,3.36-3.37a23,23,0,0,0,4.73-.45v-3.12h-.42c-.45.79-.85.92-1.91.95l-3.39.16c-2.64.1-3.1,1.18-3.57,2.25a4.61,4.61,0,0,0-4.51-2.62c-4,0-5.07,3.1-5.07,6.2v8.72h18.87V157Z"/><path class="cls-1" d="M276.51,137.92v2.55H257.64v-2.55Z"/><path class="cls-1" d="M268.76,129.81l-8.31-3v-.06l8.31-2.78ZM271,123l5.48-1.87v-2.78l-18.87,6.83v2.89l18.87,7.1v-2.64l-5.48-2Z"/><path class="cls-1" d="M114.76,305.68h2.56v18.87h-2.56v-8.81h-9.85v8.81h-2.55V305.68h2.55v7.8h9.85Z"/><path class="cls-1" d="M136.1,315.11c0,4.43-2.47,7.67-6.57,7.67s-6.57-3.24-6.57-7.67,2.47-7.67,6.57-7.67S136.1,310.68,136.1,315.11Zm2.62,0c0-4.07-2.15-9.93-9.19-9.93s-9.2,5.86-9.2,9.93,2.16,9.93,9.2,9.93S138.72,319.19,138.72,315.11Z"/><path class="cls-1" d="M154.25,305.68h2.47v18.87h-2.87l-9.58-15.24h-.06v15.24h-2.46V305.68h3l9.44,15.23h.05Z"/><path class="cls-1" d="M175.49,315.11c0,4.43-2.45,7.67-6.56,7.67s-6.56-3.24-6.56-7.67,2.47-7.67,6.56-7.67S175.49,310.68,175.49,315.11Zm2.64,0c0-4.07-2.17-9.93-9.2-9.93s-9.2,5.86-9.2,9.93,2.17,9.93,9.2,9.93S178.13,319.19,178.13,315.11Z"/><path class="cls-1" d="M184,307.86h6.34c1.26,0,3.39.23,3.39,3.15s-2,3.26-3.82,3.26H184Zm0,8.59h6.17c3,0,3.36,1.81,3.36,3.36a22.44,22.44,0,0,0,.45,4.74h3.12v-.43c-.79-.44-.91-.84-1-1.89l-.14-3.42c-.1-2.62-1.19-3.09-2.27-3.54a4.66,4.66,0,0,0,2.63-4.52c0-4-3.09-5.07-6.19-5.07h-8.74v18.87H184Z"/><path class="cls-1" d="M28.77,79.1A14,14,0,0,1,21.17,77c-.52-.42-.58-1.16-.58-2.48,0-.21,0-2.85.14-4.74,0-.21.06-1,.64-1,.41,0,.57.42.67.9.9,4.69,4.15,8,7.54,8a5.77,5.77,0,0,0,5.69-5.85c0-4.11-3.25-6.12-6.68-7.86-3.88-1.9-7.66-4-7.66-9.53,0-4.86,3.34-9.08,9.42-9.08a16.86,16.86,0,0,1,6.26,1.22c.58.36.58.84.58,5.48,0,1.15,0,1.58-.68,1.58-.48,0-.66-.32-1.14-2-.58-2.06-1.44-5.06-5.4-5.06a4.9,4.9,0,0,0-5.21,5.06c0,3.74,2.77,5.07,6.59,6.8,2.68,1.27,7.7,3.85,7.7,9.81S35.13,79.1,28.77,79.1Z"/><path class="cls-1" d="M49.16,68.31c-1.22,0-1.22,0-1.53,1.17l-1.39,4.79a15.09,15.09,0,0,0-.37,1.88c0,1.12,1,1.2,2,1.25s1.54.18,1.54.72-.48.62-1.42.62c-.41,0-2.8-.17-4-.17-.46,0-2.85.17-3.37.17-.25,0-.78,0-.78-.66s.57-.68,1.22-.77c1.34-.14,1.71-.18,2.47-1.75,1.3-2.77,4.88-13.25,7.56-21,1.5-4.34,1.5-4.39,1.91-4.39s.56.31,1.17,2.15c.42,1.26.86,2.51,1.18,3.35l6.33,17c1.3,3.45,1.71,4.43,3.37,4.7.69.09,1.14.18,1.14.76s-.69.58-.94.58c-.69,0-4.05-.17-4.74-.17-2.48,0-4.59.17-4.72.17-.39,0-.93,0-.93-.62s.65-.72,1.46-.81c1.06-.09,1.43-.31,1.43-1a4.12,4.12,0,0,0-.29-1.3L55.7,69.66c-.46-1.35-.57-1.35-1.66-1.35Zm4.26-1.61c.94,0,.94-.18.94-.31a2.27,2.27,0,0,0-.25-.85l-2.84-7.71-2.51,7.58a2.51,2.51,0,0,0-.16.84c0,.45.23.45,1,.45Z"/><path class="cls-1" d="M89.39,71.32l-.16-13.8c-.07-5.41-.52-5.41-2.15-5.5-1.22-.05-1.82-.09-1.82-.72s.72-.63,1-.63c.45,0,2.73.18,3.26.18s3.65-.18,4.34-.18a.62.62,0,0,1,.73.67c0,.54-.41.68-1.59.77-1.5.17-2.1.26-2.07,2.73L91,78.25c0,.44,0,1.29-.61,1.29-.33,0-.61,0-1.3-1L71.81,54.8l-.08.08.16,15.4c0,6.5.54,6.94,2.37,7.12,1.61.13,1.82.13,1.82.72s-.66.62-1,.62c-.5,0-2-.17-3.3-.17-2.07,0-3.89.17-4.63.17-.12,0-.69,0-.69-.58s.18-.58,1.87-.81,2-.45,2-6.53V55.91C70.31,52.46,70,52,68.2,52c-.85-.05-1.5-.05-1.5-.72s.53-.63,1.26-.63c.44,0,2.27.18,3.57.18,1.13,0,2.11-.18,2.63-.18.74,0,1.11.95,1.39,1.35L89.32,71.4Z"/><path class="cls-1" d="M121.49,73.59c0,2.06,0,3.42,2.29,3.57,1,0,1.6.1,1.6.85s-.61.76-1,.76c-1.5,0-3.87-.2-5.38-.2-.78,0-4.47.2-5.34.2-.35,0-1,0-1-.76s.63-.75,1.59-.85c2.29-.15,2.29-1.51,2.29-3.48V50.31c0-1.31-.37-1.31-1.28-1.31-2.73,0-5.75,0-8.07,4.78-.41.81-.64,1-1,1a.65.65,0,0,1-.6-.66,4.5,4.5,0,0,1,.15-.8l1.87-7.09c.13-.6.27-.9.68-.9s.5.25.55.7c.23,1.36,1,1.41,2,1.41h14.64c4.69,0,4.93-.65,5.25-1.56.14-.4.27-.71.62-.71.65,0,.65.81.65,2l-.33,6.13c0,1-.13,1.61-.71,1.61-.23,0-.55,0-.73-1.11-.79-4.83-3-4.83-6-4.83-2.6,0-2.83,0-2.83,1.66Z"/><path class="cls-1" d="M141,68.31c-1.21,0-1.21,0-1.54,1.17L138,74.27a15.09,15.09,0,0,0-.37,1.88c0,1.12,1,1.2,2,1.25s1.53.18,1.53.72-.48.62-1.41.62c-.4,0-2.8-.17-4-.17-.45,0-2.84.17-3.37.17-.24,0-.78,0-.78-.66s.57-.68,1.22-.77c1.35-.14,1.7-.18,2.48-1.75,1.3-2.77,4.87-13.25,7.55-21,1.5-4.34,1.5-4.39,1.91-4.39s.57.31,1.17,2.15c.42,1.26.86,2.51,1.19,3.35l6.33,17c1.29,3.45,1.7,4.43,3.37,4.7.69.09,1.13.18,1.13.76s-.69.58-.93.58c-.68,0-4.06-.17-4.75-.17-2.48,0-4.59.17-4.71.17-.4,0-.93,0-.93-.62s.64-.72,1.46-.81c1-.09,1.42-.31,1.42-1a4.81,4.81,0,0,0-.28-1.3l-1.75-5.36c-.45-1.35-.56-1.35-1.66-1.35Zm4.27-1.61c.93,0,.93-.18.93-.31a2.67,2.67,0,0,0-.24-.85l-2.85-7.71-2.51,7.58a2.8,2.8,0,0,0-.16.84c0,.45.24.45,1,.45Z"/><path class="cls-1" d="M161.76,55.2c0-1.84,0-3.05-2-3.18-.89-.05-1.45-.09-1.45-.72s.16-.63,1.5-.63c.4,0,2.38.18,2.88.18,1.09,0,6.49-.18,7.7-.18,7.19,0,7.81,5.47,7.81,7,0,5.24-4.19,6.31-5.58,6.62.54.37,1,.64,2,2.51l3.93,7.71c.83,1.56,1.38,2.68,2.53,2.86,1.34.18,1.66.22,1.66.81s-.41.53-.7.53c-.51,0-3.15-.17-3.77-.17-.31,0-1.82.17-2.18.17-.75,0-.91-.4-1.36-1.34l-4.9-10.21c-.9-1.92-1.1-2.1-2.93-2.1-.68,0-.76.27-.76,1v8.06c0,1.88,0,3.09,2,3.22.88,0,1.46.09,1.46.76s-.53.58-.86.58c-.76,0-4.72-.17-4.87-.17-.69,0-4,.17-4.7.17-.33,0-.85,0-.85-.62s.59-.68,1.45-.72c2-.18,2-1.34,2-3.22Zm4.34,7.07c0,1.57,0,1.65,2,1.65,1.46,0,5.48,0,5.48-5.59,0-1.61-.57-6.4-5.61-6.4-1.87,0-1.9,1.07-1.9,2.82Z"/><path class="cls-1" d="M190.58,79a11.79,11.79,0,0,1-6.46-1.79c-.45-.36-.49-1-.49-2.1,0-.18,0-2.42.13-4,0-.18,0-.81.53-.81s.48.36.56.76c.78,4,3.52,6.81,6.42,6.81a4.9,4.9,0,0,0,4.82-5c0-3.49-2.76-5.18-5.68-6.66-3.28-1.62-6.5-3.35-6.5-8.1,0-4.12,2.84-7.7,8-7.7a14.59,14.59,0,0,1,5.32,1c.47.32.47.72.47,4.66,0,1,0,1.34-.56,1.34-.4,0-.57-.26-1-1.65-.49-1.75-1.22-4.3-4.6-4.3a4.16,4.16,0,0,0-4.41,4.3c0,3.17,2.35,4.3,5.6,5.78,2.26,1.06,6.52,3.26,6.52,8.32S196,79,190.58,79Z"/><path class="cls-1" d="M209.25,74.13c0,1.88,0,3.09,2,3.22.9.05,1.46.09,1.46.77s-.53.62-.85.62c-.86,0-2.19-.17-4.86-.17-2.33,0-4.36.17-4.75.17s-.86,0-.86-.66.6-.68,1.45-.73c2-.18,2-1.34,2-3.17V55.29c0-1.89,0-3-2-3.23-.89,0-1.45-.09-1.45-.76s.53-.63.86-.63c.84,0,2.3.18,4.77.18,2.93,0,4.23-.18,4.84-.18.32,0,.85,0,.85.67s-.61.68-1.46.72c-2,.18-2,1.34-2,3.09Z"/><path class="cls-1" d="M238.23,56.14c0,.44,0,.76-.48.76-.29,0-.53-.09-1-.81-1.46-2.42-3-4.52-6.7-4.52-6.65,0-9.73,7.16-9.73,12.89,0,6.27,3.32,13.43,9.45,13.43,3.74,0,5.52-2.51,7.24-6,.07-.18.4-.85.8-.85.61,0,.61.4.61.71l-.33,3.81a1.65,1.65,0,0,1-1,1.56A14.31,14.31,0,0,1,229.67,79a14.57,14.57,0,0,1-14.78-14.37c0-6.22,4.88-14.23,15.46-14.23a24.16,24.16,0,0,1,5.34.62c1.82.36,2,.76,2.19,2Z"/><path class="cls-1" d="M248.27,74.13c0,1.88,0,3.09,2,3.22.9.05,1.46.09,1.46.77s-.51.62-.85.62c-.84,0-2.19-.17-4.86-.17-2.32,0-4.36.17-4.75.17s-.86,0-.86-.66.61-.68,1.47-.73c2-.18,2-1.34,2-3.17V55.29c0-1.89,0-3-2-3.23-.9,0-1.47-.09-1.47-.76s.53-.63.86-.63c.84,0,2.3.18,4.78.18,2.93,0,4.22-.18,4.83-.18.34,0,.85,0,.85.67s-.6.68-1.46.72c-2,.18-2,1.34-2,3.09Z"/><path class="cls-1" d="M267.79,79a14.09,14.09,0,0,1-13.88-14.37,13.9,13.9,0,0,1,14-14.23,13.73,13.73,0,0,1,13.74,13.83C281.64,72.93,274.7,79,267.79,79Zm-.37-27.44c-5.68,0-8.64,5.77-8.64,12.13,0,7.26,3.86,14.15,9.33,14.15,5.7,0,8.66-6.94,8.66-13.43C276.77,59.09,273.88,51.57,267.42,51.57Z"/><path class="cls-1" d="M100.13,158.9a27,27,0,1,1,27-27A27,27,0,0,1,100.13,158.9Zm0-53.21a26.2,26.2,0,1,0,26.21,26.19A26.22,26.22,0,0,0,100.13,105.69Z"/><path class="cls-1" d="M100.69,227.92C89.37,227.92,80,212,75.08,197.15c-5.57-16.73.21-39.09.27-39.31l.08-.31,50-.27.08.32c0,.23,5,22.6,0,40.11C123,206.59,112.24,227.92,100.69,227.92ZM76.07,158.35c-.67,2.72-5.36,23.1-.21,38.54,4.87,14.61,14,30.21,24.83,30.21s21.6-21.2,24-29.63c4.6-16.18.64-36.59.06-39.39Z"/><path class="cls-1" d="M107.06,232.08H93.49a2.35,2.35,0,1,1,0-4.7h13.57a2.35,2.35,0,1,1,0,4.7ZM93.49,228.2a1.53,1.53,0,1,0,0,3.06h13.57a1.53,1.53,0,1,0,0-3.06Z"/><path class="cls-1" d="M107.06,237.07H93.49a2.35,2.35,0,1,1,0-4.7h13.57a2.35,2.35,0,1,1,0,4.7Zm-13.57-3.88a1.53,1.53,0,0,0,0,3.06h13.57a1.53,1.53,0,0,0,0-3.06Z"/><path class="cls-1" d="M107.06,241.77H93.49a2.35,2.35,0,1,1,0-4.69h13.57a2.35,2.35,0,1,1,0,4.69ZM93.49,237.9a1.53,1.53,0,1,0,0,3h13.57a1.53,1.53,0,1,0,0-3Z"/><path class="cls-1" d="M115.36,283.36H85.75l10.47-42.13h8.39Zm-28.56-.82h27.5L104,242.05H96.86Z"/><path class="cls-1" d="M81.79,135c0,2.32.09,4.79,2.74,4.79,2,0,2.67-1.43,2.67-4.05V122.23h1.42v13.58c0,3.6-1.34,5.61-4.26,5.61-3.4,0-4-3.09-4-6.41Z"/><path class="cls-1" d="M92.09,140.92V122.23h1.43v8h9v-8h1.43v18.69h-1.43v-9.15h-9v9.15Z"/><path class="cls-1" d="M107.88,135.34c.22,3.35,2,4.57,4.34,4.57a3.57,3.57,0,0,0,3.85-3.87c0-5.79-9.23-1.95-9.23-9.28a4.83,4.83,0,0,1,5.13-5c3.41,0,5.1,2.54,5.09,5.57h-1.37c0-2.85-1.79-4.07-3.72-4.07a3.49,3.49,0,0,0-3.7,4.12c.66,4.83,9.22,1.35,9.22,8.59,0,3.43-2,5.46-5.52,5.46-3.15,0-5.48-2-5.48-6.08Z"/><polygon class="cls-1" points="160.3 153.23 160.15 152.72 167.36 148.5 167.64 148.97 161.39 152.62 227.35 149.35 227.38 149.9 160.3 153.23"/><polygon class="cls-1" points="167.38 156.52 160.17 153.2 160.4 152.7 167.61 156.03 167.38 156.52"/><path class="cls-1" d="M225.55,139.1l-4.3-5.6,9.38-3,.31.41Zm-3.39-5.32,3.36,4.37,4.54-6.91Z"/><rect class="cls-1" x="161.62" y="152.4" width="66.07" height="0.55" transform="translate(-50.39 118.75) rotate(-30.23)"/><path class="cls-1" d="M213.77,156.82a.27.27,0,0,1-.27-.26.26.26,0,0,1,.26-.28l16.37-.83c.15,0,.28.11.29.26a.28.28,0,0,1-.26.29l-16.37.82Z"/><rect class="cls-1" x="218.49" y="158.08" width="4.17" height="0.55" transform="translate(47.62 367.68) rotate(-86.11)"/><path class="cls-1" d="M223.16,166.17a3.07,3.07,0,1,1,3.07-3.06A3.06,3.06,0,0,1,223.16,166.17Zm0-5.59a2.53,2.53,0,1,0,2.52,2.53A2.54,2.54,0,0,0,223.16,160.58Z"/><path class="cls-1" d="M228.54,168.52a3.07,3.07,0,1,1,3.07-3.07A3.07,3.07,0,0,1,228.54,168.52Zm0-5.59a2.52,2.52,0,1,0,2.53,2.52A2.53,2.53,0,0,0,228.54,162.93Z"/><path class="cls-1" d="M217.79,165.27a3.07,3.07,0,1,1,3.06-3.06A3.07,3.07,0,0,1,217.79,165.27Zm0-5.58a2.52,2.52,0,1,0,2.52,2.52A2.52,2.52,0,0,0,217.79,159.69Z"/><path class="cls-1" d="M211.47,166.12a3.07,3.07,0,1,1,3.07-3.06A3.06,3.06,0,0,1,211.47,166.12Zm0-5.58a2.52,2.52,0,1,0,2.52,2.52A2.51,2.51,0,0,0,211.47,160.54Z"/><path class="cls-1" d="M209.11,171a3.07,3.07,0,1,1,3.06-3.06A3.07,3.07,0,0,1,209.11,171Zm0-5.58a2.52,2.52,0,1,0,2.51,2.52A2.52,2.52,0,0,0,209.11,165.44Z"/><path class="cls-1" d="M212.37,175.93a3.07,3.07,0,1,1,3.06-3.06A3.07,3.07,0,0,1,212.37,175.93Zm0-5.58a2.52,2.52,0,1,0,2.52,2.52A2.52,2.52,0,0,0,212.37,170.35Z"/><path class="cls-1" d="M214.35,170.58a3,3,0,1,1,3-3A3,3,0,0,1,214.35,170.58Zm0-5.37a2.41,2.41,0,1,0,2.41,2.41A2.41,2.41,0,0,0,214.35,165.21Z"/><path class="cls-1" d="M225.27,171.9a3,3,0,1,1,3-3A3,3,0,0,1,225.27,171.9Zm0-5.36a2.41,2.41,0,1,0,2.41,2.41A2.43,2.43,0,0,0,225.27,166.54Z"/><path class="cls-1" d="M219.2,170.58a3.07,3.07,0,1,1,3.07-3.07A3.08,3.08,0,0,1,219.2,170.58Zm0-5.59a2.52,2.52,0,1,0,2.52,2.52A2.52,2.52,0,0,0,219.2,165Z"/><path class="cls-1" d="M221.81,189.1a2.65,2.65,0,1,1,2.65-2.64A2.64,2.64,0,0,1,221.81,189.1Zm0-4.75a2.1,2.1,0,1,0,2.1,2.11A2.1,2.1,0,0,0,221.81,184.35Z"/><path class="cls-1" d="M217.77,189.34a2.56,2.56,0,1,1,2.56-2.56A2.58,2.58,0,0,1,217.77,189.34Zm0-4.57a2,2,0,1,0,2,2A2,2,0,0,0,217.77,184.77Z"/><path class="cls-1" d="M221.82,185.21a2.84,2.84,0,1,1,2.84-2.83A2.84,2.84,0,0,1,221.82,185.21Zm0-5.13a2.3,2.3,0,1,0,2.3,2.3A2.3,2.3,0,0,0,221.82,180.08Z"/><path class="cls-1" d="M221.82,174.46a2.84,2.84,0,1,1,2.84-2.83A2.84,2.84,0,0,1,221.82,174.46Zm0-5.13a2.3,2.3,0,1,0,2.29,2.3A2.3,2.3,0,0,0,221.82,169.33Z"/><path class="cls-1" d="M217.7,176.08a3,3,0,1,1,3-3A3,3,0,0,1,217.7,176.08Zm0-5.37a2.41,2.41,0,1,0,2.41,2.41A2.41,2.41,0,0,0,217.7,170.71Z"/><path class="cls-1" d="M213.7,180.81a2.84,2.84,0,1,1,2.84-2.84A2.84,2.84,0,0,1,213.7,180.81Zm0-5.13A2.3,2.3,0,1,0,216,178,2.3,2.3,0,0,0,213.7,175.68Z"/><path class="cls-1" d="M216.24,185.5a3,3,0,1,1,3-3A3,3,0,0,1,216.24,185.5Zm0-5.36a2.41,2.41,0,1,0,2.41,2.4A2.4,2.4,0,0,0,216.24,180.14Z"/><path class="cls-1" d="M219.62,180.64a3,3,0,1,1,3-2.95A2.95,2.95,0,0,1,219.62,180.64Zm0-5.35a2.41,2.41,0,0,0,0,4.81,2.41,2.41,0,1,0,0-4.81Z"/><path class="cls-1" d="M223.87,178.93a2.84,2.84,0,1,1,2.84-2.83A2.83,2.83,0,0,1,223.87,178.93Zm0-5.13a2.29,2.29,0,1,0,2.29,2.3A2.3,2.3,0,0,0,223.87,173.8Z"/><path class="cls-1" d="M200.8,283.09c-5-4.26-11.72-12.7-11.79-12.79-21.6-24.74-18.15-55.8-18.12-56.11l.55.06c0,.31-3.45,31.14,18,55.7.08.1,6.78,8.5,11.73,12.73Z"/><path class="cls-1" d="M168.64,217.46a4.68,4.68,0,0,1-3.1-1,11.73,11.73,0,0,1-3.11-5.6l-.05-.25.25-.07a7,7,0,0,1,6,1.34,6.9,6.9,0,0,1,2.69,4.94v.2l-.19.06A8.07,8.07,0,0,1,168.64,217.46ZM163,211a10.87,10.87,0,0,0,2.86,5c1.59,1.37,4.12.78,4.84.58a6.68,6.68,0,0,0-2.48-4.33A6.55,6.55,0,0,0,163,211Z"/><path class="cls-1" d="M173.26,217.46a8.07,8.07,0,0,1-2.47-.4l-.18-.06v-.2a6.92,6.92,0,0,1,2.67-4.94,7,7,0,0,1,6-1.34l.25.07-.05.25a11.4,11.4,0,0,1-3.1,5.6A4.66,4.66,0,0,1,173.26,217.46Zm-2.09-.85c.72.2,3.24.78,4.83-.58a10.74,10.74,0,0,0,2.85-5,6.55,6.55,0,0,0-5.22,1.29A6.67,6.67,0,0,0,171.17,216.61Z"/><path class="cls-1" d="M168.29,225.81a4.49,4.49,0,0,1-2.7-.81,11.61,11.61,0,0,1-3.49-5.36l-.07-.24.25-.09a7.09,7.09,0,0,1,9.09,5.64v.19l-.18.08A8.22,8.22,0,0,1,168.29,225.81Zm-5.57-6.06a10.63,10.63,0,0,0,3.2,4.81c1.69,1.24,4.17.48,4.87.23a6.62,6.62,0,0,0-2.77-4.13A6.47,6.47,0,0,0,162.72,219.75Z"/><path class="cls-1" d="M172.82,225.47a8.13,8.13,0,0,1-1.94-.23l-.19-.05V225a6.94,6.94,0,0,1,2.29-5.13,7.11,7.11,0,0,1,5.89-1.78l.25,0,0,.26a11.68,11.68,0,0,1-2.69,5.81A5,5,0,0,1,172.82,225.47Zm-1.6-.71c.74.14,3.29.53,4.79-.94a10.86,10.86,0,0,0,2.48-5.22,6.58,6.58,0,0,0-5.14,1.66A6.72,6.72,0,0,0,171.22,224.76Z"/><path class="cls-1" d="M168.8,234.16a4.13,4.13,0,0,1-2-.49,11.39,11.39,0,0,1-4.19-4.83l-.1-.23.23-.12a7.11,7.11,0,0,1,9.77,4.34l0,.2-.17.1A7.77,7.77,0,0,1,168.8,234.16Zm-5.59-5.3a10.73,10.73,0,0,0,3.83,4.33c1.85,1,4.2-.08,4.86-.43a6.75,6.75,0,0,0-3.32-3.72A6.52,6.52,0,0,0,163.21,228.86Z"/><path class="cls-1" d="M172.86,233.24a5.22,5.22,0,0,1-.81-.05l-.2,0,0-.19a6.92,6.92,0,0,1,1.59-5.39A7,7,0,0,1,179,225h.26v.27a11.43,11.43,0,0,1-1.88,6.12A5.64,5.64,0,0,1,172.86,233.24Zm-.54-.57c.74,0,3.33.08,4.6-1.58a10.66,10.66,0,0,0,1.75-5.51,6.54,6.54,0,0,0-4.84,2.35A6.63,6.63,0,0,0,172.32,232.67Z"/><path class="cls-1" d="M169.94,242.25a4.09,4.09,0,0,1-1.59-.31,11.58,11.58,0,0,1-4.66-4.39l-.13-.23.22-.14a7,7,0,0,1,6.12-.53,6.88,6.88,0,0,1,4,3.9l.06.19-.16.12A7.36,7.36,0,0,1,169.94,242.25Zm-5.63-4.74a10.9,10.9,0,0,0,4.26,3.93c1.93.81,4.15-.49,4.78-.91a6.67,6.67,0,0,0-3.65-3.37A6.49,6.49,0,0,0,164.31,237.51Z"/><path class="cls-1" d="M173.62,241h-.28l-.06-.19a7,7,0,0,1,1.07-5.52,7,7,0,0,1,5.3-3.08h.26l0,.26a11.51,11.51,0,0,1-1.27,6.27C177.31,240.84,174.19,241,173.62,241Zm5.78-8.23a6.53,6.53,0,0,0-4.59,2.81,6.65,6.65,0,0,0-1.05,4.86c.75,0,3.33-.23,4.44-2A10.8,10.8,0,0,0,179.4,232.72Z"/><path class="cls-1" d="M172,249.07a4.16,4.16,0,0,1-1.41-.25,11.63,11.63,0,0,1-4.83-4.2l-.14-.22.22-.15a7,7,0,0,1,6.07-.79,6.89,6.89,0,0,1,4.22,3.74l.07.18-.16.12A7.19,7.19,0,0,1,172,249.07Zm-5.62-4.51a10.94,10.94,0,0,0,4.4,3.75c2,.74,4.15-.67,4.75-1.11a6.67,6.67,0,0,0-3.81-3.22A6.47,6.47,0,0,0,166.34,244.56Z"/><path class="cls-1" d="M175.5,247.61l-.07-.18a7.13,7.13,0,0,1,6-8.87l.26,0,0,.25a11.47,11.47,0,0,1-1,6.32c-1.35,2.42-4.87,2.49-5,2.5Zm5.7-8.47a6.55,6.55,0,0,0-4.46,3,6.69,6.69,0,0,0-.85,4.91c.75-.06,3.32-.38,4.35-2.2A10.83,10.83,0,0,0,181.2,239.14Z"/><path class="cls-1" d="M174.58,256a3.8,3.8,0,0,1-1.27-.21,11.44,11.44,0,0,1-5-4l-.14-.21.2-.16A7.1,7.1,0,0,1,178.78,254l.07.18-.15.12A7,7,0,0,1,174.58,256ZM169,251.7a10.78,10.78,0,0,0,4.52,3.59c2,.67,4.11-.81,4.7-1.27a6.59,6.59,0,0,0-3.9-3.08A6.44,6.44,0,0,0,169,251.7Z"/><path class="cls-1" d="M178.23,254.44l-.07-.18a6.87,6.87,0,0,1,.62-5.6,7,7,0,0,1,5-3.49l.26,0,0,.26a11.51,11.51,0,0,1-.78,6.35c-1.27,2.46-4.77,2.67-4.92,2.68Zm5.39-8.68a6.53,6.53,0,0,0-4.36,3.16,6.61,6.61,0,0,0-.66,4.94c.74-.08,3.29-.5,4.26-2.36A10.91,10.91,0,0,0,183.62,245.76Z"/><path class="cls-1" d="M177.89,261.93a4.18,4.18,0,0,1-1.14-.16,20,20,0,0,1-5.9-3.47l-.27-.23.28-.2c.15-.11,3.56-2.49,6.87-1.53a6.85,6.85,0,0,1,4.43,3.46l.08.18-.14.13A7.12,7.12,0,0,1,177.89,261.93Zm-6.4-3.82a18.52,18.52,0,0,0,5.42,3.13c2,.61,4.08-.93,4.66-1.4a6.61,6.61,0,0,0-4-3C175.06,256.14,172.38,257.57,171.49,258.11Z"/><path class="cls-1" d="M181.62,260.25l-.08-.18a7.12,7.12,0,0,1,5.41-9.23l.26,0,0,.25a11.55,11.55,0,0,1-.59,6.37c-1.21,2.5-4.71,2.8-4.86,2.81Zm5.15-8.81a6.59,6.59,0,0,0-4.79,8.23c.74-.1,3.28-.59,4.2-2.48A10.82,10.82,0,0,0,186.77,251.44Z"/><path class="cls-1" d="M181.73,267.91a4.11,4.11,0,0,1-.91-.11,16.42,16.42,0,0,1-5.82-3.2l-.24-.21.24-.2c.13-.11,3.09-2.6,6.48-1.86a7,7,0,0,1,4.63,3.16l.08.18-.13.14A6.9,6.9,0,0,1,181.73,267.91Zm-6.11-3.51a15.46,15.46,0,0,0,5.33,2.87c2.05.49,4-1.18,4.57-1.69a6.72,6.72,0,0,0-4.16-2.72C178.79,262.3,176.4,263.83,175.62,264.4Z"/><path class="cls-1" d="M185.59,266l-.09-.17a6.94,6.94,0,0,1,.12-5.62,7,7,0,0,1,4.7-3.94l.25-.05.07.25a11.62,11.62,0,0,1-.19,6.39c-1,2.57-4.52,3.09-4.67,3.11Zm4.58-9.12a6.52,6.52,0,0,0-4,3.54,6.64,6.64,0,0,0-.22,5c.73-.15,3.25-.79,4-2.73A11,11,0,0,0,190.17,256.87Z"/><path class="cls-1" d="M185.65,273.56a4,4,0,0,1-.76-.08,22.89,22.89,0,0,1-6.42-2.83l-.32-.2.29-.24c.15-.12,3.53-2.86,6.91-2.22a7,7,0,0,1,4.75,3l.09.17-.13.14C190,271.4,188,273.56,185.65,273.56Zm-6.55-3.16A21.78,21.78,0,0,0,185,273c2.06.41,4-1.33,4.51-1.86a6.69,6.69,0,0,0-4.26-2.57C182.68,268,180,269.75,179.1,270.4Z"/><path class="cls-1" d="M189.59,271.5l-.1-.17a6.93,6.93,0,0,1-.07-5.63c1.23-3.24,5.31-4.11,5.48-4.14l.28-.06,0,.28a14,14,0,0,1-.43,6.29c-1,2.6-4.85,3.36-5,3.39Zm5.14-9.34c-.92.26-3.85,1.25-4.8,3.74a6.68,6.68,0,0,0-.05,5c.8-.19,3.67-1,4.4-3A13.21,13.21,0,0,0,194.73,262.16Z"/><path class="cls-1" d="M193.93,283.09l-.36-.41c5-4.23,11.67-12.63,11.74-12.72,21.45-24.58,18-55.4,18-55.71l.54-.06c0,.31,3.49,31.37-18.11,56.12C205.67,270.39,198.91,278.83,193.93,283.09Z"/><path class="cls-1" d="M226.09,217.46a8,8,0,0,1-2.46-.4l-.18-.06v-.2a6.93,6.93,0,0,1,2.66-4.94,7,7,0,0,1,6-1.34l.26.07-.06.25a11.54,11.54,0,0,1-3.11,5.6A4.68,4.68,0,0,1,226.09,217.46Zm-2.08-.85c.72.2,3.24.79,4.82-.58a11,11,0,0,0,2.87-5,6.56,6.56,0,0,0-7.69,5.62Z"/><path class="cls-1" d="M221.48,217.46a4.69,4.69,0,0,1-3.11-1,11.58,11.58,0,0,1-3.1-5.6l-.06-.25.25-.07a7,7,0,0,1,6,1.34,7,7,0,0,1,2.69,4.94v.2l-.19.06A8.07,8.07,0,0,1,221.48,217.46ZM215.87,211a11,11,0,0,0,2.86,5c1.59,1.37,4.12.78,4.84.58a6.61,6.61,0,0,0-2.47-4.32A6.54,6.54,0,0,0,215.87,211Z"/><path class="cls-1" d="M226.44,225.81a8.27,8.27,0,0,1-2.9-.59l-.18-.08,0-.19a6.87,6.87,0,0,1,3-4.74,7,7,0,0,1,6.05-.9l.25.09-.08.25a11.51,11.51,0,0,1-3.49,5.35A4.49,4.49,0,0,1,226.44,225.81Zm-2.49-1c.7.25,3.18,1,4.86-.23a10.76,10.76,0,0,0,3.21-4.81,6.44,6.44,0,0,0-5.29.91A6.65,6.65,0,0,0,224,224.79Z"/><path class="cls-1" d="M221.92,225.47a5,5,0,0,1-3.56-1.26,11.45,11.45,0,0,1-2.7-5.81l0-.26.25,0a7.07,7.07,0,0,1,5.87,1.78,6.92,6.92,0,0,1,2.31,5.13v.19l-.19.05A8.13,8.13,0,0,1,221.92,225.47Zm-5.67-6.87a10.8,10.8,0,0,0,2.49,5.22c1.48,1.48,4,1.09,4.78.94a6.71,6.71,0,0,0-2.15-4.5A6.57,6.57,0,0,0,216.25,218.6Z"/><path class="cls-1" d="M225.94,234.16a7.77,7.77,0,0,1-3.56-1l-.17-.1,0-.2a7.11,7.11,0,0,1,9.78-4.34l.23.11-.11.24a11.58,11.58,0,0,1-4.18,4.83A4.19,4.19,0,0,1,225.94,234.16Zm-3.1-1.4c.66.35,3,1.44,4.87.43a10.83,10.83,0,0,0,3.82-4.32,6.54,6.54,0,0,0-5.38.17A6.67,6.67,0,0,0,222.84,232.76Z"/><path class="cls-1" d="M221.88,233.24c-1.17,0-3.32-.24-4.52-1.82a11.49,11.49,0,0,1-1.86-6.11V225h.26a7,7,0,0,1,5.56,2.56,6.93,6.93,0,0,1,1.61,5.39l0,.19-.2,0A5.22,5.22,0,0,1,221.88,233.24Zm-5.82-7.66a10.82,10.82,0,0,0,1.74,5.51c1.26,1.66,3.87,1.62,4.62,1.58a6.68,6.68,0,0,0-1.53-4.74A6.45,6.45,0,0,0,216.06,225.58Z"/><path class="cls-1" d="M224.8,242.25a7.37,7.37,0,0,1-3.91-1.39l-.16-.12.06-.19a6.88,6.88,0,0,1,4.05-3.9,7,7,0,0,1,6.11.53l.21.14-.13.23a11.47,11.47,0,0,1-4.64,4.39A4.12,4.12,0,0,1,224.8,242.25Zm-3.42-1.72c.63.42,2.86,1.73,4.8.91a10.77,10.77,0,0,0,4.23-3.93,6.44,6.44,0,0,0-5.36-.35A6.66,6.66,0,0,0,221.38,240.53Z"/><path class="cls-1" d="M221.1,241c-.57,0-3.67-.11-5-2.28a11.51,11.51,0,0,1-1.25-6.27l0-.26h.26a7,7,0,0,1,5.28,3.08,6.87,6.87,0,0,1,1.06,5.52l-.06.19h-.28Zm-5.75-8.23a10.84,10.84,0,0,0,1.18,5.66c1.11,1.78,3.69,2,4.44,2a6.6,6.6,0,0,0-1.05-4.86A6.5,6.5,0,0,0,215.35,232.72Z"/><path class="cls-1" d="M222.76,249.07a7.22,7.22,0,0,1-4-1.57l-.15-.12.06-.18a6.89,6.89,0,0,1,4.21-3.74,7,7,0,0,1,6.08.79l.22.15-.14.22a11.38,11.38,0,0,1-4.85,4.2A4,4,0,0,1,222.76,249.07Zm-3.52-1.87c.61.44,2.78,1.84,4.73,1.11a10.75,10.75,0,0,0,4.42-3.75A6.53,6.53,0,0,0,223,244,6.64,6.64,0,0,0,219.24,247.2Z"/><path class="cls-1" d="M219.23,247.61H219c-.15,0-3.67-.08-5-2.5a11.56,11.56,0,0,1-1-6.32l0-.25.26,0a7,7,0,0,1,5.17,3.31,6.83,6.83,0,0,1,.83,5.56Zm-5.71-8.47a10.93,10.93,0,0,0,1,5.71c1,1.82,3.61,2.14,4.36,2.2a6.61,6.61,0,0,0-.84-4.91A6.54,6.54,0,0,0,213.52,239.14Z"/><path class="cls-1" d="M220.16,256A7.18,7.18,0,0,1,216,254.3l-.14-.12.07-.18a6.86,6.86,0,0,1,4.35-3.58,7,7,0,0,1,6,1l.21.16-.15.21a11.46,11.46,0,0,1-5,4A3.76,3.76,0,0,1,220.16,256Zm-3.63-2c.6.46,2.73,1.94,4.73,1.27a10.92,10.92,0,0,0,4.52-3.59,6.47,6.47,0,0,0-5.32-.76A6.62,6.62,0,0,0,216.53,254Z"/><path class="cls-1" d="M216.52,254.44h-.2c-.15,0-3.65-.22-4.93-2.68a11.82,11.82,0,0,1-.78-6.35l0-.26.26,0a7,7,0,0,1,5,3.49,6.94,6.94,0,0,1,.64,5.59Zm-5.4-8.67a11,11,0,0,0,.76,5.73c1,1.87,3.52,2.28,4.26,2.36a6.63,6.63,0,0,0-.67-4.94A6.5,6.5,0,0,0,211.12,245.77Z"/><path class="cls-1" d="M216.84,261.93a7.2,7.2,0,0,1-4.22-1.82l-.14-.13.08-.18a6.88,6.88,0,0,1,4.44-3.46c3.32-1,6.73,1.42,6.88,1.52l.28.21-.26.23a20.57,20.57,0,0,1-5.92,3.47A4.13,4.13,0,0,1,216.84,261.93Zm-3.69-2.09c.58.47,2.67,2,4.67,1.4a18.88,18.88,0,0,0,5.43-3.13c-.89-.54-3.58-2-6.09-1.24A6.64,6.64,0,0,0,213.15,259.84Z"/><path class="cls-1" d="M213.12,260.25h-.19c-.15,0-3.67-.31-4.86-2.81a11.44,11.44,0,0,1-.61-6.37l0-.25.26,0a7.06,7.06,0,0,1,5,3.63,6.93,6.93,0,0,1,.47,5.6ZM208,251.44a10.74,10.74,0,0,0,.6,5.75c.91,1.9,3.46,2.38,4.21,2.48a6.77,6.77,0,0,0-.53-5A6.56,6.56,0,0,0,208,251.44Z"/><path class="cls-1" d="M213,267.91a6.94,6.94,0,0,1-4.34-2.1l-.13-.14.09-.18a6.91,6.91,0,0,1,4.64-3.16c3.38-.75,6.34,1.75,6.46,1.86l.25.2-.24.21a16.3,16.3,0,0,1-5.83,3.2A4.1,4.1,0,0,1,213,267.91Zm-3.79-2.34c.54.51,2.53,2.19,4.56,1.7a15.43,15.43,0,0,0,5.34-2.87c-.78-.57-3.17-2.1-5.73-1.54A6.66,6.66,0,0,0,209.22,265.57Z"/><path class="cls-1" d="M209.15,266l-.19,0c-.15,0-3.62-.54-4.67-3.11a11.46,11.46,0,0,1-.2-6.39l.07-.25.25.05a7.13,7.13,0,0,1,4.83,9.56Zm-4.59-9.12a10.75,10.75,0,0,0,.24,5.78c.79,2,3.3,2.59,4,2.73a6.63,6.63,0,0,0-.22-5A6.48,6.48,0,0,0,204.56,256.87Z"/><path class="cls-1" d="M209.08,273.56c-2.38,0-4.31-2.16-4.4-2.26l-.13-.14.1-.17a6.8,6.8,0,0,1,4.73-3c3.39-.64,6.77,2.1,6.92,2.22l.29.24-.32.2a22.82,22.82,0,0,1-6.44,2.83A4,4,0,0,1,209.08,273.56Zm-3.85-2.47c.53.53,2.44,2.26,4.49,1.86a21.82,21.82,0,0,0,5.92-2.55c-.9-.64-3.58-2.35-6.16-1.88A6.6,6.6,0,0,0,205.23,271.09Z"/><path class="cls-1" d="M205.14,271.5l-.19,0c-.16,0-4-.79-5-3.39a14.19,14.19,0,0,1-.45-6.29l.05-.28.27.06c.18,0,4.26.9,5.49,4.14a7,7,0,0,1-.07,5.63ZM200,262.16a13.4,13.4,0,0,0,.46,5.72c.74,2,3.59,2.81,4.39,3a6.75,6.75,0,0,0-.06-5C203.85,263.4,200.92,262.42,200,262.16Z"/><path class="cls-1" d="M201.32,128.65a59.81,59.81,0,0,1-6.7-.38c-19.53-2.2-31.62-11.6-31.74-11.69l-.1-.08v-1.94l.11-.08c.13-.09,12.39-8.65,32.49-8.65h1c.17,0,16.91.65,30.62,9.2a56.32,56.32,0,0,1,5.9,4.25,25.3,25.3,0,0,0,5.12-3.93l.41.37a26.17,26.17,0,0,1-5.08,3.94,50.16,50.16,0,0,1,4.81,4.56l-.42.36a48.08,48.08,0,0,0-4.88-4.62c-2.05,1.25-3.8,2.13-3.94,2.2A60.6,60.6,0,0,1,201.32,128.65Zm-38-12.42c1.21.92,12.94,9.42,31.36,11.5a60.69,60.69,0,0,0,33.92-6s1.73-.87,3.75-2.09a55.29,55.29,0,0,0-5.7-4.1c-13.58-8.46-30.18-9.1-30.34-9.11h-.94c-18.89,0-30.77,7.6-32,8.47Z"/><path class="cls-1" d="M186,126.26l-.39-.39a14.88,14.88,0,0,0,3.8-9,19.35,19.35,0,0,0-2.74-10.1l.46-.3a19.57,19.57,0,0,1,2.82,10.42A15.19,15.19,0,0,1,186,126.26Z"/><path class="cls-1" d="M182.74,113.36a2,2,0,1,1-2-2A2,2,0,0,1,182.74,113.36Z"/><polygon class="cls-1" points="160.62 151.88 158.41 153.21 162.98 154.96 160.62 151.88"/><polygon class="cls-1" points="230.15 132.82 232.56 129.38 229.25 130.41 230.15 132.82"/><path class="cls-1" d="M156.48,384a8.23,8.23,0,1,1-8.22-8.23A8.23,8.23,0,0,1,156.48,384Z"/></g></g></svg>