<svg xmlns="http://www.w3.org/2000/svg" viewBox="0 0 272.31 272.31"><defs><style>.cls-1{fill:#fff;}</style></defs><title>facebook</title><g id="Capa_2" data-name="Capa 2"><g id="Capa_5" data-name="Capa 5"><path class="cls-1" d="M245.08,0H27.23A27.31,27.31,0,0,0,0,27.23V245.08a27.31,27.31,0,0,0,27.23,27.23H149.77V149.77H122.54V108.92h27.23v-34c0-25.86,21.78-47.65,47.65-47.65h34V68.08H204.23c-8.17,0-13.61,5.44-13.61,13.61v27.23h40.84v40.85H190.62V272.31h54.46a27.32,27.32,0,0,0,27.23-27.23V27.23A27.31,27.31,0,0,0,245.08,0Z"/></g></g></svg>